<?xml version="1.0" encoding="UTF-8"?>
<svg id="Layer_2" data-name="Layer 2" xmlns="http://www.w3.org/2000/svg" viewBox="0 0 61.37 72.5">
  <defs>
    <style>
      .cls-1 {
        fill: #bb9d5a;
      }
    </style>
  </defs>
  <g id="Layer_1-2" data-name="Layer 1">
    <path class="cls-1" d="M61.35,71.18c-.11-.7-.26-1.39-.36-2.09-.58-4.03-2.39-7.32-5.8-9.63-2.37-1.6-5.09-2.19-7.84-2.67-1.62-.28-3.27-.42-4.98-.63,0-.74,0-1.49,0-2.24,.02-1.34,.03-7.61,0-8.46-.02-.56,.15-.97,.53-1.39,1.69-1.88,3.24-3.87,4.36-6.16,.09-.19,.4-.35,.64-.39,2.82-.47,4.74-2.01,5.63-4.73,.93-2.84-.14-5.36-2.77-6.73-.07-.04-.13-.1-.06-.04,.53-1.22,1.17-2.32,1.49-3.5,1.14-4.19,.42-8.22-1.26-12.14-.28-.64-.81-.86-1.37-.64-.59,.23-.81,.79-.58,1.46,.05,.16,.13,.3,.19,.46,.92,2.23,1.4,4.54,1.4,6.96,0,2.66-.57,5.11-2.65,6.98-.24,.22-.44,.49-.65,.75-1.73,2.03-2.86,4.43-4.14,6.73-2.89,5.2-8.94,8.06-14.75,7.03-4.62-.82-8.08-3.27-10.31-7.38-1.5-2.76-3.28-5.29-5.59-7.43-1-.93-1.71-2.03-2.02-3.34-.3-1.25-.59-2.54-.64-3.82-.11-2.98,.5-5.81,2.3-8.29,2.24-3.09,6.72-4.4,9.61-2.91,.48,.25,.91,.08,1.29-.27,.52-.48,1.03-.97,1.58-1.41,5.85-4.67,16.92-4.13,21.71,1.77,.01,.02,.03,.03,.05,.05,.53,.55,1.16,.64,1.62,.22,.48-.42,.48-1.04-.03-1.63-2.17-2.5-4.84-4.19-8.06-4.95-1.26-.3-2.54-.48-3.81-.71h-3.4c-.25,.05-.5,.11-.76,.14-3.42,.43-6.53,1.63-9.17,3.89-.55,.47-1.01,.73-1.73,.42-.4-.17-.88-.19-1.32-.21-4.81-.24-8.98,2.38-10.79,7.04-1.99,5.14-1.82,10.17,1.33,14.94-1.41,.85-2.39,2.07-2.64,3.77-.53,3.61,2.09,6.98,5.79,7.52,.24,.04,.57,.17,.66,.35,1.16,2.38,2.8,4.41,4.52,6.39,.24,.27,.41,.7,.41,1.06,.03,3.42,.02,6.84,.02,10.27,0,.21-.03,.41-.05,.63-1.39,.15-2.73,.26-4.06,.43-2.51,.33-4.96,.92-7.26,2-.67,.31-.91,.86-.67,1.43,.24,.57,.84,.8,1.48,.52,3.87-1.72,7.98-2.21,12.16-2.23,6.75-.04,13.5-.01,20.25-.01,3.03,0,6.02,.4,8.96,1.13,4.74,1.17,7.8,4.02,8.87,8.85,.24,1.08,.38,2.18,.61,3.27,.13,.63,.71,1,1.25,.88,.57-.12,.91-.65,.81-1.3m-12.58-43.39c1.49,0,2.78,1.2,2.92,2.75,.2,2.15-1.4,4.31-3.39,4.68,.16-2.5,.31-4.96,.47-7.43m-38.93,1.98c.28-.77,.8-1.33,1.51-1.7,.6-.32,1.29,0,1.34,.68,.08,1.08,.05,2.17,.12,3.25,.07,1.07,.2,2.14,.3,3.22-2.34-.38-4.07-3.28-3.27-5.44m11.29,26.42v-.87c0-3.04-.06-6.09,.02-9.13,.04-1.56-.29-2.83-1.47-3.94-.8-.75-1.42-1.7-2.07-2.59-1.04-1.42-1.92-2.93-2.27-4.67-.21-1.03-.31-2.08-.47-3.12,.08-.02,.16-.03,.24-.05,.43,.78,.86,1.56,1.3,2.34,4.57,8.14,15.41,10.78,23.22,5.66,2.59-1.7,4.54-3.95,5.92-6.71,.24-.48,.51-.96,.76-1.43,.06,2.25-.26,4.41-1.49,6.27-1.16,1.74-2.48,3.38-3.78,5.02-.48,.6-.79,1.21-.79,1.98,0,1.04-.01,7.76,0,9.04,0,.73,0,1.46,0,2.21H21.13Z"/>
    <path class="cls-1" d="M4.42,61.85c-.33-.09-.9,.05-1.11,.31-.58,.7-1.07,1.49-1.51,2.3-1.17,2.14-1.37,4.54-1.78,6.88-.1,.58,.24,1.02,.82,1.15,.59,.13,1.03-.18,1.21-.73,.16-.51,.24-1.06,.32-1.59,.34-2.41,.96-4.71,2.53-6.66,.15-.19,.2-.46,.36-.84-.27-.28-.51-.71-.84-.8"/>
  </g>
</svg>