<?xml version="1.0" encoding="UTF-8"?>
<svg id="Layer_2" data-name="Layer 2" xmlns="http://www.w3.org/2000/svg" viewBox="0 0 62.67 72.82">
  <defs>
    <style>
      .cls-1 {
        fill: #bb9d5a;
      }
    </style>
  </defs>
  <g id="Layer_1-2" data-name="Layer 1">
    <path class="cls-1" d="M1.57,72.82c-1.18-.37-1.6-1.22-1.57-2.39,.06-2.37-.05-4.75,.16-7.1,.55-6.25,5.96-11.82,12.2-12.69,.63-.09,1.26-.15,1.91-.22,.14-.7,.24-1.4,.43-2.07,.56-2.04,1.64-3.78,3.14-5.24,1.42-1.39,2.91-2.72,4.41-4.02,3.26-2.83,3.83-4.83,2.45-8.93-.62-1.86-1.34-3.69-1.93-5.56-.47-1.51-.55-3.07-.33-4.64,.06-.43-.06-.67-.44-.91-4.47-2.86-6.88-6.93-7.08-12.25-.06-1.7-.03-3.41-.02-5.12,0-1.14,.52-1.64,1.66-1.65C18.08,0,19.6,0,21.12,0c1.16,0,1.63,.47,1.63,1.65,0,1.71-.04,3.41,.02,5.12,.08,2.11,1.01,3.8,2.63,5.1,1-.93,1.89-1.93,2.95-2.7,5.95-4.33,12.46-5.95,19.64-3.73,1.38,.43,2.64,1.24,3.92,1.95,.64,.35,.76,.99,.42,1.52-.34,.53-.96,.67-1.55,.28-5.17-3.34-10.6-3.19-16.14-1.14-3.12,1.15-5.8,2.99-7.81,5.7-.57,.76-1.26,.87-2.05,.33-2.59-1.77-4.07-4.19-4.17-7.36-.04-1.49,0-2.98,0-4.51h-3.45s-.08,.06-.08,.09c0,2.83-.33,5.69,.71,8.44,1.09,2.88,2.94,5.13,5.62,6.63,.97,.55,1.42,1.2,1.21,2.35-.41,2.24,.11,4.37,.88,6.46,.63,1.71,1.16,3.45,1.77,5.16,.08,.22,.32,.44,.55,.54,3.43,1.48,7.03,1.82,10.72,1.49,.38-.03,.76-.08,1.13-.09,.72-.02,1.19,.38,1.21,1.01,.02,.58-.39,1.07-1.05,1.12-1.46,.1-2.93,.22-4.4,.22-2.68,0-5.27-.55-7.8-1.49-.05,.1-.12,.18-.12,.26-.19,2.27-1.39,3.99-2.99,5.48-1.4,1.31-2.88,2.54-4.28,3.85-1.6,1.48-2.97,3.14-3.5,5.33-.14,.59-.22,1.21-.27,1.82-.11,1.31-.51,1.71-1.82,1.74-6.28,.14-11.21,4.25-12.28,10.43-.31,1.78-.17,3.64-.22,5.46-.02,.7,0,1.41,0,2.15h3.55c0-.36,0-.71,0-1.05,.03-1.89-.06-3.8,.13-5.68,.45-4.24,4.24-7.57,8.5-7.76,2.07-.09,3.95,.26,5.78,1.3,2.92,1.66,6.18,2.32,9.47,2.81,6.66,.99,12.9-.12,18.52-3.92,6.27-4.25,9.91-10.29,11.58-17.6,.06-.25-.1-.66-.29-.83-3.38-2.92-7.33-4.03-11.74-3.56-.94,.1-1.88,.23-2.82,.34-.65,.07-1.16-.28-1.28-.86-.11-.54,.24-1.14,.82-1.22,3.75-.58,7.51-.93,11.14,.54,1.61,.65,3.1,1.59,4.71,2.42,.03-.37,.09-.85,.12-1.33,.52-7.89-1.4-15.11-6.01-21.57-.08-.12-.18-.22-.25-.34-.35-.56-.27-1.17,.21-1.52,.49-.36,1.1-.3,1.5,.25,.75,1.03,1.54,2.05,2.15,3.17,5.84,10.84,6.45,21.93,.92,33.02-4,8.01-10.49,13.12-19.35,14.99-3.98,.84-7.96,.58-11.93-.11-3.24-.57-6.3-1.63-9.24-3.11-4.44-2.23-10.38,.54-10.46,6.21-.02,1.66-.03,3.32,0,4.98,.02,1.24-.39,2.17-1.6,2.63H1.57Z"/>
    <path class="cls-1" d="M43.97,44.03c0,2.23-1.82,4.03-4.04,4-2.18-.03-3.96-1.84-3.95-4.03,0-2.19,1.79-3.99,3.97-4,2.22-.01,4.02,1.79,4.01,4.03m-2.15-.02c0-1.02-.82-1.83-1.85-1.84-1,0-1.85,.85-1.84,1.86,0,1.01,.86,1.85,1.86,1.84,1.02,0,1.84-.84,1.83-1.86"/>
    <path class="cls-1" d="M26.32,52.94c-2.2,.01-3.98-1.74-4-3.94-.02-2.24,1.76-4.05,3.98-4.05,2.2,0,3.99,1.77,4.01,3.95,.02,2.24-1.74,4.03-3.98,4.04m1.84-4.01c-.01-1.01-.87-1.84-1.87-1.83-1,0-1.83,.86-1.82,1.88,0,1.02,.83,1.83,1.86,1.82,1.02,0,1.84-.84,1.83-1.86"/>
  </g>
</svg>