<?xml version="1.0" encoding="UTF-8"?>
<svg id="Layer_2" data-name="Layer 2" xmlns="http://www.w3.org/2000/svg" viewBox="0 0 66.33 65.79">
  <defs>
    <style>
      .cls-1 {
        fill: #bb9d5a;
      }
    </style>
  </defs>
  <g id="Layer_1-2" data-name="Layer 1">
    <path class="cls-1" d="M66.33,16.59c-.22,1.05-.36,2.12-.66,3.15-1.21,4.08-3.49,7.34-7.34,9.34-2.18,1.12-4.52,1.35-6.87,.84-4.6-.99-6.58-6.35-3.81-10.15,.24-.33,.36-.57-.11-.86-2.11,1.21-3.47,3-4.01,5.41-.35,1.57-.13,3.1,.46,4.57,.67,1.68,1.41,3.33,2.15,4.98,2.23,4.93,2.2,9.85-.07,14.76-.07,.15-.15,.32-.16,.49,0,2.71-1.44,4.73-3.22,6.56-1.6,1.65-3.51,2.85-5.69,3.59-.48,.16-.63,.4-.61,.89,.03,.8,.02,1.6,0,2.4-.04,1.83-1.43,3.23-3.19,3.25-1.74,.02-3.17-1.38-3.24-3.2-.03-.82-.03-1.64,0-2.46,.02-.49-.16-.71-.62-.88-3.34-1.21-6-3.28-7.82-6.35-.67-1.13-1.09-2.34-1.09-3.68,0-.22-.09-.46-.19-.67-2.17-4.73-2.28-9.49-.21-14.29,.78-1.82,1.66-3.61,2.35-5.46,1.37-3.73,.19-7.41-2.95-9.53-.19-.13-.4-.24-.64-.38-.13,.15-.26,.29-.38,.44,.08,.11,.14,.2,.2,.29,1.52,2.07,1.86,4.32,.78,6.65-1.09,2.36-3.03,3.63-5.65,3.82-5.05,.37-8.59-2.08-11.18-6.13C-1.39,17.8-.7,9.51,4.16,4.05,6.88,1,10.27-.46,14.39,.13c4.87,.7,7.21,6.28,4.32,10.26-.1,.14-.2,.28-.27,.38,.33,.55,.62,1.08,.95,1.58,.11,.16,.29,.31,.47,.38,5.28,2.15,8.31,6.06,9.1,11.68,.34,2.4-.15,4.73-1.05,6.96-.64,1.58-1.35,3.12-2.05,4.67-.28,.62-.84,.85-1.37,.59-.5-.25-.66-.76-.39-1.39,.76-1.78,1.62-3.53,2.27-5.35,2.29-6.38-1.09-12.23-5.67-14.66-.21-.11-.42-.2-.64-.31-.12,.68-.26,1.32-.33,1.97-.02,.15,.16,.37,.31,.47,2.68,1.68,4.29,4.08,4.78,7.2,.3,1.89-.08,3.7-.81,5.43-.7,1.67-1.45,3.32-2.18,4.97-1.63,3.72-1.8,7.5-.42,11.35,.54-.45,1.08-.88,1.57-1.35,.11-.1,.11-.37,.09-.55-.12-1.35-.31-2.69-.38-4.04-.04-.77,.37-1.17,1-1.16,.63,.01,.96,.42,.93,1.21-.05,1.16-.02,2.32,.36,3.43,5.47-1.77,10.9-1.77,16.39,0,.55-1.92,.54-3.84-.12-5.71-.6-1.7-1.36-3.35-2.09-5-1.02-2.3-1.84-4.65-1.85-7.21,0-.8,.3-1.21,.92-1.23,.64-.02,1.02,.4,1.02,1.21,.02,2.25,.78,4.3,1.64,6.34,.84,1.98,1.71,3.96,2.38,5.99,.65,1.96,.56,4.01,0,6-.13,.46-.02,.69,.35,.95,.45,.32,.84,.73,1.3,1.13,.76-2.12,1.07-4.27,.89-6.49-.19-2.25-1.03-4.3-1.92-6.34-.71-1.62-1.48-3.22-2-4.9-1.31-4.28,.48-8.82,4.3-11.15,.4-.25,.51-.46,.37-.92-.15-.49-.15-1.02-.23-1.62-.22,.1-.44,.19-.65,.3-2.44,1.32-4.21,3.26-5.37,5.77-.08,.18-.15,.36-.23,.53-.28,.58-.8,.81-1.32,.58-.49-.22-.69-.74-.46-1.32,.59-1.5,1.41-2.86,2.47-4.07,1.56-1.79,3.44-3.12,5.67-3.96,.23-.09,.44-.31,.59-.52,.32-.46,.59-.95,.8-1.3-.45-1.04-1.03-1.98-1.26-3C45.64,3.92,48.64,.21,52.78,.02c5.02-.24,8.49,2.22,11.07,6.25,1.34,2.08,2.08,4.39,2.36,6.85,.02,.17,.08,.33,.12,.5v2.98ZM12.68,28.17c.26,0,.52,0,.78,0,1.94-.09,3.39-.97,4.18-2.74,.78-1.75,.44-3.39-.8-4.85-.73-.86-.7-1.52,.08-2.46,1.49-1.79,1.5-4.12,.04-5.9-.87-1.06-.87-1.59,.01-2.66,2.23-2.7,.77-6.74-2.69-7.33-2.8-.48-5.29,.25-7.46,2.08C1.15,9.08,.31,18.26,5.03,24.14c1.95,2.44,4.37,4.06,7.65,4.02m40.92,.18c.01-.06,.03-.12,.04-.18,2.56,.08,4.65-.97,6.44-2.69,5.4-5.17,5.76-14.34,.81-19.98-2.11-2.4-4.68-3.75-7.96-3.54-1.93,.12-3.4,.96-4.21,2.74-.79,1.73-.48,3.36,.72,4.83,.8,.97,.79,1.58-.03,2.58-1.46,1.77-1.48,4.13-.04,5.88,.9,1.1,.9,1.6-.01,2.72-1.85,2.28-1.18,5.64,1.47,6.91,.84,.41,1.84,.49,2.77,.72m-20.45,16.22c-.65,0-1.3-.04-1.94,0-2.18,.17-4.33,.51-6.3,1.54-2.7,1.41-3.24,3.23-1.7,5.85,1.54,2.61,3.81,4.37,6.63,5.41,1.65,.61,2.04,1.15,2.05,2.92,0,.73-.02,1.47,.01,2.2,.03,.79,.61,1.36,1.3,1.34,.71-.02,1.23-.58,1.25-1.38,.02-.71,0-1.42,0-2.14,0-1.81,.39-2.32,2.08-2.96,2.73-1.02,4.95-2.72,6.48-5.22,1.73-2.83,1.11-4.81-1.91-6.2-2.53-1.16-5.22-1.41-7.96-1.39"/>
  </g>
</svg>