<?xml version="1.0" encoding="UTF-8"?>
<svg id="Layer_2" data-name="Layer 2" xmlns="http://www.w3.org/2000/svg" viewBox="0 0 77.44 77.48">
  <defs>
    <style>
      .cls-1 {
        fill: none;
        stroke: #fff;
        stroke-miterlimit: 10;
        stroke-width: .5px;
      }

      .cls-2 {
        fill: #bb9d5a;
      }
    </style>
  </defs>
  <g id="Layer_1-2" data-name="Layer 1">
    <path class="cls-2" d="M5.33,77.23c-.52-.18-1.06-.3-1.54-.54-2.3-1.12-3.62-2.98-3.54-5.55,.12-3.95,.32-7.91,.65-11.85,.39-4.67,.88-9.32,1.44-13.97,.49-4.1,1.26-8.16,2.4-12.14,.96-3.38,2.72-6.28,5.15-8.78,4.38-4.5,9.48-7.92,15.34-10.18,3.13-1.21,5.39-1.73,8.97,.37v-.84c0-3.86,0-7.72,0-11.58,0-1.4,.51-1.92,1.89-1.92,1.78,0,3.56,0,5.34,0,1.24,0,1.79,.55,1.79,1.79,0,3.89,0,7.77,0,11.65v.84c.11-.01,.19,0,.25-.03,2.1-1.41,4.38-1.7,6.75-.93,7.95,2.59,14.6,7.07,19.7,13.74,1.82,2.38,2.65,5.2,3.35,8.05,.4,1.63,.72,3.27,1.04,4.92,.25,1.28-.17,2.08-1.12,2.23-.99,.16-1.59-.43-1.85-1.69-.39-1.91-.8-3.82-1.24-5.72-.82-3.54-2.57-6.54-5.17-9.07-4.01-3.92-8.57-6.98-13.79-9.04-1.42-.56-2.88-1.06-4.46-.68-1.88,.45-3.33,2.06-3.44,3.98-.07,1.15-.08,2.31,.02,3.46,.15,1.81,.92,3.36,2.21,4.65,.8,.8,1.57,1.62,2.4,2.38,.26,.24,.68,.41,1.03,.42,1.68,.04,3.36,.03,5.04,.02,3.54-.04,6.34,1.42,8.48,4.19,.56,.73,1.04,1.53,1.5,2.33,.56,.99,.35,1.89-.48,2.33-.81,.42-1.56,.06-2.17-.87-.7-1.06-1.4-2.14-2.27-3.06-1.23-1.31-2.85-1.9-4.67-1.91-.95,0-1.9,0-2.98,0,.21,.25,.34,.41,.48,.56,1.79,1.79,3.58,3.58,5.37,5.37,2.69,2.71,4.04,5.98,4.04,9.8,0,2.78,.02,5.56-.02,8.34,0,.64,.2,1.07,.64,1.5,1.61,1.57,3.2,3.18,4.79,4.78,.65,.66,.77,1.32,.4,1.96-.53,.92-1.64,1.03-2.49,.2-1.41-1.39-2.8-2.8-4.2-4.19-.19-.19-.39-.37-.71-.67-.57,.62-1.1,1.22-1.66,1.78-.79,.79-1.66,.85-2.31,.2-.66-.65-.59-1.52,.18-2.31,.78-.81,1.99-1.5,2.26-2.45,.39-1.39,.1-2.97,.1-4.58-.23,.2-.4,.32-.54,.46-.94,.94-1.87,1.89-2.83,2.81-.71,.68-1.6,.67-2.2,.03-.58-.61-.58-1.47,.09-2.15,1.67-1.7,3.37-3.36,5.03-5.07,.26-.27,.46-.73,.45-1.09-.07-2.83-1.16-5.24-3.16-7.24-3.81-3.81-7.6-7.64-11.44-11.42-2.32-2.29-3.45-5.02-3.42-8.28,.04-6.14,.01-12.28,.01-18.42v-.84h-3.01v.87c0,6.19-.01,12.38,0,18.57,0,3.12-1.07,5.76-3.29,7.96-3.87,3.85-7.73,7.72-11.59,11.59-1.96,1.96-3.02,4.32-3.18,7.1-.03,.52,.11,.89,.48,1.25,1.58,1.54,3.13,3.11,4.69,4.67,.16,.16,.32,.32,.47,.49,.54,.66,.51,1.47-.05,2.04-.58,.59-1.44,.64-2.09,.03-.95-.89-1.85-1.83-2.78-2.75-.19-.19-.39-.37-.71-.67,0,1.62-.01,3.08,.02,4.54,0,.18,.2,.39,.35,.54,.61,.63,1.24,1.24,1.85,1.87,.91,.92,1.03,1.79,.32,2.48-.69,.67-1.54,.57-2.42-.32-.51-.52-1-1.05-1.56-1.64-.24,.23-.42,.38-.59,.55-1.42,1.42-2.84,2.83-4.25,4.25-.45,.45-.96,.73-1.62,.55-1.18-.32-1.49-1.68-.56-2.62,1.6-1.63,3.2-3.25,4.84-4.83,.45-.44,.63-.88,.62-1.5-.03-2.76-.02-5.51-.01-8.27,0-3.87,1.36-7.18,4.11-9.92,1.74-1.73,3.47-3.47,5.21-5.21,.17-.17,.33-.35,.52-.55-4.18-.36-6.9-.18-9.59,4.34-.19,.32-.35,.67-.57,.97-.45,.61-1.23,.77-1.88,.42-.67-.36-1.01-1.15-.68-1.86,1.71-3.68,4.9-6.88,9.69-6.97,1.88-.03,3.76,0,5.64-.03,.31,0,.68-.16,.9-.37,.84-.78,1.65-1.61,2.45-2.44,1.49-1.52,2.24-3.35,2.24-5.48,0-.78,.02-1.55,0-2.33-.08-2.79-2.64-4.95-5.33-4.26-1.97,.5-3.9,1.27-5.74,2.15-3.66,1.75-6.93,4.08-9.93,6.82-3.47,3.17-5.4,7.11-6.36,11.65-1.15,5.45-1.93,10.95-2.39,16.49-.45,5.37-.78,10.74-1.13,16.12-.05,.84-.09,1.72,.1,2.53,.36,1.57,2.05,2.52,3.57,2.03,6.28-2.02,12.41-4.4,17.93-8.1,1.04-.69,2.01-1.49,2.98-2.29,2.64-2.19,4.07-5.03,4.33-8.44,.33-4.31-.43-8.48-1.68-12.75-.68,.7-1.28,1.33-1.89,1.95-.31,.32-.62,.65-.97,.94-.65,.54-1.47,.51-2.04-.05-.57-.57-.6-1.38-.08-2.04,.14-.17,.31-.33,.47-.49,2.36-2.36,4.71-4.72,7.07-7.07,3.38-3.37,7.88-3.35,11.27,.03,2.34,2.34,4.68,4.68,7.02,7.02,.05,.05,.11,.11,.16,.16,.83,.85,.92,1.7,.27,2.37-.66,.68-1.54,.6-2.37-.22-.66-.65-1.31-1.31-1.97-1.96-.18-.17-.36-.33-.68-.63-.43,2-.89,3.87-1.23,5.75-.47,2.63-.57,5.27-.23,7.93,.4,3.06,1.9,5.49,4.2,7.48,3.42,2.98,7.35,5.12,11.49,6.87,3.03,1.29,6.15,2.38,9.26,3.48,1.99,.7,3.99-.82,3.9-2.98-.17-3.93-.42-7.85-.66-11.78-.09-1.5-.26-2.99-.36-4.49-.07-1.07,.47-1.74,1.36-1.8,.95-.06,1.56,.55,1.63,1.65,.31,4.65,.62,9.3,.94,13.95,.02,.27,.08,.54,.12,.81v2.71c-.05,.16-.12,.32-.16,.49-.47,1.75-1.46,3.1-3.09,3.92-.59,.3-1.24,.47-1.86,.7h-1.8c-2.42-.85-4.88-1.63-7.27-2.56-5.05-1.96-9.92-4.29-14.22-7.67-2.89-2.27-5.24-4.94-6.11-8.66-.62-2.67-.68-5.36-.43-8.06,.3-3.25,1.04-6.42,2.04-9.52,.14-.45,.08-.73-.26-1.04-.75-.7-1.45-1.46-2.19-2.16-1.81-1.7-4.44-1.7-6.24,0-.69,.65-1.32,1.38-2.04,2-.49,.43-.55,.81-.36,1.42,1.43,4.54,2.35,9.16,2.06,13.96-.24,3.89-1.53,7.3-4.38,10.08-3.09,3.01-6.73,5.18-10.56,7.08-4.24,2.1-8.68,3.7-13.18,5.14h-1.8Z"/>
    <path class="cls-1" d="M5.33,77.23c-.52-.18-1.06-.3-1.54-.54-2.3-1.12-3.62-2.98-3.54-5.55,.12-3.95,.32-7.91,.65-11.85,.39-4.67,.88-9.32,1.44-13.97,.49-4.1,1.26-8.16,2.4-12.14,.96-3.38,2.72-6.28,5.15-8.78,4.38-4.5,9.48-7.92,15.34-10.18,3.13-1.21,5.39-1.73,8.97,.37v-.84c0-3.86,0-7.72,0-11.58,0-1.4,.51-1.92,1.89-1.92,1.78,0,3.56,0,5.34,0,1.24,0,1.79,.55,1.79,1.79,0,3.89,0,7.77,0,11.65v.84c.11-.01,.19,0,.25-.03,2.1-1.41,4.38-1.7,6.75-.93,7.95,2.59,14.6,7.07,19.7,13.74,1.82,2.38,2.65,5.2,3.35,8.05,.4,1.63,.72,3.27,1.04,4.92,.25,1.28-.17,2.08-1.12,2.23-.99,.16-1.59-.43-1.85-1.69-.39-1.91-.8-3.82-1.24-5.72-.82-3.54-2.57-6.54-5.17-9.07-4.01-3.92-8.57-6.98-13.79-9.04-1.42-.56-2.88-1.06-4.46-.68-1.88,.45-3.33,2.06-3.44,3.98-.07,1.15-.08,2.31,.02,3.46,.15,1.81,.92,3.36,2.21,4.65,.8,.8,1.57,1.62,2.4,2.38,.26,.24,.68,.41,1.03,.42,1.68,.04,3.36,.03,5.04,.02,3.54-.04,6.34,1.42,8.48,4.19,.56,.73,1.04,1.53,1.5,2.33,.56,.99,.35,1.89-.48,2.33-.81,.42-1.56,.06-2.17-.87-.7-1.06-1.4-2.14-2.27-3.06-1.23-1.31-2.85-1.9-4.67-1.91-.95,0-1.9,0-2.98,0,.21,.25,.34,.41,.48,.56,1.79,1.79,3.58,3.58,5.37,5.37,2.69,2.71,4.04,5.98,4.04,9.8,0,2.78,.02,5.56-.02,8.34,0,.64,.2,1.07,.64,1.5,1.61,1.57,3.2,3.18,4.79,4.78,.65,.66,.77,1.32,.4,1.96-.53,.92-1.64,1.03-2.49,.2-1.41-1.39-2.8-2.8-4.2-4.19-.19-.19-.39-.37-.71-.67-.57,.62-1.1,1.22-1.66,1.78-.79,.79-1.66,.85-2.31,.2-.66-.65-.59-1.52,.18-2.31,.78-.81,1.99-1.5,2.26-2.45,.39-1.39,.1-2.97,.1-4.58-.23,.2-.4,.32-.54,.46-.94,.94-1.87,1.89-2.83,2.81-.71,.68-1.6,.67-2.2,.03-.58-.61-.58-1.47,.09-2.15,1.67-1.7,3.37-3.36,5.03-5.07,.26-.27,.46-.73,.45-1.09-.07-2.83-1.16-5.24-3.16-7.24-3.81-3.81-7.6-7.64-11.44-11.42-2.32-2.29-3.45-5.02-3.42-8.28,.04-6.14,.01-12.28,.01-18.42v-.84h-3.01v.87c0,6.19-.01,12.38,0,18.57,0,3.12-1.07,5.76-3.29,7.96-3.87,3.85-7.73,7.72-11.59,11.59-1.96,1.96-3.02,4.32-3.18,7.1-.03,.52,.11,.89,.48,1.25,1.58,1.54,3.13,3.11,4.69,4.67,.16,.16,.32,.32,.47,.49,.54,.66,.51,1.47-.05,2.04-.58,.59-1.44,.64-2.09,.03-.95-.89-1.85-1.83-2.78-2.75-.19-.19-.39-.37-.71-.67,0,1.62-.01,3.08,.02,4.54,0,.18,.2,.39,.35,.54,.61,.63,1.24,1.24,1.85,1.87,.91,.92,1.03,1.79,.32,2.48-.69,.67-1.54,.57-2.42-.32-.51-.52-1-1.05-1.56-1.64-.24,.23-.42,.38-.59,.55-1.42,1.42-2.84,2.83-4.25,4.25-.45,.45-.96,.73-1.62,.55-1.18-.32-1.49-1.68-.56-2.62,1.6-1.63,3.2-3.25,4.84-4.83,.45-.44,.63-.88,.62-1.5-.03-2.76-.02-5.51-.01-8.27,0-3.87,1.36-7.18,4.11-9.92,1.74-1.73,3.47-3.47,5.21-5.21,.17-.17,.33-.35,.52-.55-4.18-.36-6.9-.18-9.59,4.34-.19,.32-.35,.67-.57,.97-.45,.61-1.23,.77-1.88,.42-.67-.36-1.01-1.15-.68-1.86,1.71-3.68,4.9-6.88,9.69-6.97,1.88-.03,3.76,0,5.64-.03,.31,0,.68-.16,.9-.37,.84-.78,1.65-1.61,2.45-2.44,1.49-1.52,2.24-3.35,2.24-5.48,0-.78,.02-1.55,0-2.33-.08-2.79-2.64-4.95-5.33-4.26-1.97,.5-3.9,1.27-5.74,2.15-3.66,1.75-6.93,4.08-9.93,6.82-3.47,3.17-5.4,7.11-6.36,11.65-1.15,5.45-1.93,10.95-2.39,16.49-.45,5.37-.78,10.74-1.13,16.12-.05,.84-.09,1.72,.1,2.53,.36,1.57,2.05,2.52,3.57,2.03,6.28-2.02,12.41-4.4,17.93-8.1,1.04-.69,2.01-1.49,2.98-2.29,2.64-2.19,4.07-5.03,4.33-8.44,.33-4.31-.43-8.48-1.68-12.75-.68,.7-1.28,1.33-1.89,1.95-.31,.32-.62,.65-.97,.94-.65,.54-1.47,.51-2.04-.05-.57-.57-.6-1.38-.08-2.04,.14-.17,.31-.33,.47-.49,2.36-2.36,4.71-4.72,7.07-7.07,3.38-3.37,7.88-3.35,11.27,.03,2.34,2.34,4.68,4.68,7.02,7.02,.05,.05,.11,.11,.16,.16,.83,.85,.92,1.7,.27,2.37-.66,.68-1.54,.6-2.37-.22-.66-.65-1.31-1.31-1.97-1.96-.18-.17-.36-.33-.68-.63-.43,2-.89,3.87-1.23,5.75-.47,2.63-.57,5.27-.23,7.93,.4,3.06,1.9,5.49,4.2,7.48,3.42,2.98,7.35,5.12,11.49,6.87,3.03,1.29,6.15,2.38,9.26,3.48,1.99,.7,3.99-.82,3.9-2.98-.17-3.93-.42-7.85-.66-11.78-.09-1.5-.26-2.99-.36-4.49-.07-1.07,.47-1.74,1.36-1.8,.95-.06,1.56,.55,1.63,1.65,.31,4.65,.62,9.3,.94,13.95,.02,.27,.08,.54,.12,.81v2.71c-.05,.16-.12,.32-.16,.49-.47,1.75-1.46,3.1-3.09,3.92-.59,.3-1.24,.47-1.86,.7h-1.8c-2.42-.85-4.88-1.63-7.27-2.56-5.05-1.96-9.92-4.29-14.22-7.67-2.89-2.27-5.24-4.94-6.11-8.66-.62-2.67-.68-5.36-.43-8.06,.3-3.25,1.04-6.42,2.04-9.52,.14-.45,.08-.73-.26-1.04-.75-.7-1.45-1.46-2.19-2.16-1.81-1.7-4.44-1.7-6.24,0-.69,.65-1.32,1.38-2.04,2-.49,.43-.55,.81-.36,1.42,1.43,4.54,2.35,9.16,2.06,13.96-.24,3.89-1.53,7.3-4.38,10.08-3.09,3.01-6.73,5.18-10.56,7.08-4.24,2.1-8.68,3.7-13.18,5.14h-1.8Z"/>
    <path class="cls-2" d="M73.86,49.26c-.83-.02-1.51-.73-1.47-1.56,.04-.8,.72-1.45,1.52-1.43,.83,.02,1.51,.74,1.47,1.56-.04,.8-.73,1.45-1.52,1.43"/>
    <path class="cls-1" d="M73.86,49.26c-.83-.02-1.51-.73-1.47-1.56,.04-.8,.72-1.45,1.52-1.43,.83,.02,1.51,.74,1.47,1.56-.04,.8-.73,1.45-1.52,1.43Z"/>
  </g>
</svg>