<?xml version="1.0" encoding="UTF-8"?>
<svg id="Layer_2" data-name="Layer 2" xmlns="http://www.w3.org/2000/svg" viewBox="0 0 66.74 66.69">
  <defs>
    <style>
      .cls-1 {
        fill: #bb9d5a;
      }
    </style>
  </defs>
  <g id="Layer_1-2" data-name="Layer 1">
    <path class="cls-1" d="M61.4,14.44c.18,.2,.46,.51,.78,.87,.12-.13,.26-.25,.36-.4,.97-1.33,1.7-2.79,2.05-4.41,.76-3.55-1.41-6.83-5.12-7.81-3.04-.8-5.79,.01-8.4,1.56-.51,.3-1.01,.63-1.44,1.02-.58,.52-1.13,.52-1.81,.18-3.11-1.55-6.39-2.55-9.83-3.1-6.53-1.04-12.71,.15-18.62,2.91-1.01,.47-1.7,.47-2.61-.24-2.23-1.75-4.78-2.76-7.68-2.63-3.29,.14-6.09,2.15-6.8,5.05-.24,1-.26,2.13-.07,3.14,.32,1.73,1.16,3.28,2.31,4.72,.32-.33,.62-.64,.96-1-.25-.39-.52-.77-.74-1.18-.8-1.46-1.52-2.97-1.27-4.7,.34-2.35,2.19-4.05,4.77-4.48,2.68-.44,5.07,.31,7.23,1.84,3.15,2.23,5.38,5.12,5.91,9.05,.37,2.73-.08,5.41-.73,8.07-.39,1.6-.78,3.22-1.03,4.85-.5,3.2,.29,6.19,1.75,9.03,1.37,2.67,2.82,5.3,4.02,8.05,2.05,4.66,2.92,9.61,3.28,14.66,.14,1.89,.16,3.78,.23,5.67,0,.24,.01,.48-.03,.71-.11,.54-.47,.83-1.01,.8-.5-.03-.84-.32-.91-.84-.04-.3-.04-.61-.05-.92-.05-4.57-.42-9.11-1.48-13.58-.94-3.94-2.55-7.6-4.5-11.13-1.14-2.07-2.27-4.14-2.9-6.45-.88-3.22-.6-6.43,.23-9.6,.63-2.41,1.18-4.81,1.25-7.32,.14-5.07-4.04-10.21-9-10.98-1.26-.19-2.45,.02-3.56,.64-1.23,.69-1.88,2.04-1.43,3.37,.37,1.08,.96,2.09,1.47,3.12,.19,.39,.49,.45,.93,.39,4.48-.61,9.16,4.42,8.22,8.81-.54,2.54-3,4.06-5.68,3.56-3.55-.65-6.72-3.93-6.69-7.74,0-.29-.19-.62-.39-.85C1.83,15.28,.68,13.17,.18,10.77-.63,6.84,1.35,3.14,5.14,1.39,8.55-.2,11.9,.21,15.2,1.75c.81,.38,1.6,.83,2.31,1.37,.54,.41,.95,.36,1.52,.1C23.81,1.05,28.83-.12,34.09,0c4.81,.11,9.4,1.25,13.77,3.28,.49,.23,.81,.22,1.27-.11,2.51-1.77,5.27-2.85,8.4-2.78,4.38,.09,8.07,2.9,9.01,6.88,.63,2.67-.2,5.05-1.45,7.33-.45,.82-1.01,1.6-1.59,2.34-.37,.47-.56,.92-.58,1.52-.14,3.58-3.45,7.03-7.01,7.34-3.57,.32-5.93-2.29-5.32-5.89,.56-3.35,3.81-6.31,7.2-6.57,.17-.01,.35-.05,.49,0,1.09,.35,1.6-.3,1.99-1.13,.34-.75,.71-1.49,.95-2.28,.42-1.39-.18-2.73-1.44-3.43-1.7-.94-3.46-.88-5.21-.21-3.33,1.27-7.69,5.3-7.32,10.94,.15,2.33,.6,4.59,1.22,6.82,1.39,5,.88,9.74-1.62,14.33-1.55,2.85-2.99,5.79-4.22,8.8-1.62,3.97-2.24,8.19-2.55,12.45-.13,1.89-.16,3.78-.24,5.67,0,.12,0,.24-.01,.35-.03,.61-.34,.98-.95,1.03-.56,.04-1.01-.39-1.01-1.04,0-1.28,.03-2.55,.08-3.83,.22-4.86,.86-9.65,2.4-14.29,.93-2.82,2.25-5.45,3.62-8.07,.93-1.77,1.87-3.56,2.58-5.43,1.2-3.16,.84-6.38-.02-9.56-.76-2.82-1.46-5.66-1.21-8.59,.12-1.43,.42-2.94,1.02-4.23,1.79-3.85,4.7-6.54,8.9-7.6,1.88-.48,3.71-.25,5.43,.67,2.14,1.15,3.19,3.52,2.43,5.84-.42,1.29-1.08,2.5-1.69,3.88m-6.1,9.4c2.6-.01,5.37-2.58,5.63-5.22,.21-2.15-1-3.45-3.09-3.31-2.68,.18-5.38,3.04-5.39,5.71-.01,1.72,1.12,2.83,2.85,2.82m-43.94,0c1.84,.03,3.02-1.16,2.92-2.95-.16-2.8-2.81-5.45-5.6-5.58-1.68-.08-2.85,1-2.91,2.68-.09,2.81,2.76,5.81,5.58,5.86"/>
    <path class="cls-1" d="M34.49,60.59c.27-5.46,.61-10.92,2.03-16.23,.73-2.73,1.59-5.46,2.78-8.01,1.83-3.94,2.14-7.89,1.16-12.08-.99-4.23-1.01-8.48,.36-12.67,.24-.73-.04-1.01-.79-1.13-1.2-.2-2.44-.38-3.57-.8-2.08-.78-4.07-.79-6.15-.02-1.15,.43-2.41,.6-3.63,.82-.67,.12-1.01,.4-.8,1.02,1.57,4.62,1.24,9.27,.21,13.93-.76,3.41-.52,6.7,.97,9.89,2.16,4.66,3.58,9.54,4.27,14.64,.7,5.19,.94,10.41,.92,15.64,0,.66-.39,1.09-.95,1.1-.6,.02-1.02-.44-1.03-1.18-.06-2.34-.06-4.68-.17-7.02-.29-5.87-.91-11.69-2.84-17.29-.58-1.67-1.22-3.33-1.97-4.93-1.76-3.76-1.99-7.63-1.08-11.63,.78-3.42,1.08-6.87,.37-10.34-.16-.78-.41-1.55-.62-2.33-.49-1.76,.69-3.32,2.51-3.5,1.09-.1,2.2-.33,3.22-.71,2.49-.94,4.91-.93,7.4,0,1.02,.38,2.13,.59,3.22,.7,1.72,.18,3.05,1.7,2.51,3.31-1.5,4.48-1.17,8.94-.18,13.43,.81,3.69,.53,7.27-1.07,10.73-1.86,4.03-3.22,8.22-3.93,12.61-.81,5.08-1.12,10.2-1.15,15.33,0,.59,.02,1.18-.02,1.77-.04,.64-.5,1.07-1.05,1.01-.6-.07-.92-.44-.92-1.05,0-1.68,0-3.36,0-5.04"/>
  </g>
</svg>