<?xml version="1.0" encoding="UTF-8"?>
<svg id="Layer_2" data-name="Layer 2" xmlns="http://www.w3.org/2000/svg" viewBox="0 0 66.31 65.83">
  <defs>
    <style>
      .cls-1 {
        fill: #bb9d5a;
      }
    </style>
  </defs>
  <g id="Layer_1-2" data-name="Layer 1">
    <path class="cls-1" d="M0,12.6c.1-.41,.2-.82,.32-1.23C2.05,5.1,9.62,2.71,14.65,6.84c.13,.11,.27,.21,.4,.32,3.67-3.08,8.55-2.91,12.01,.04,4.03-3.07,8.08-3.08,12.04-.07,.97-.55,1.91-1.06,2.83-1.6,.18-.1,.32-.28,.46-.44C46.1,.74,50.79-.94,56.3,.51c5.48,1.45,8.75,5.23,9.8,10.8,.56,2.98,0,5.83-1.45,8.51-.16,.29-.29,.51-.05,.86,2.37,3.57,2.18,7.58-.48,10.91-.05,.07-.1,.14-.17,.22,3.09,4.04,3.1,8.08,.02,12.13,3.66,4.37,2.45,9.69-.45,12.47-3.07,2.94-8.21,3.65-12.25,.22-3.81,2.96-7.72,3.09-11.79,.3v1.21c0,2.14,0,4.27,0,6.41,0,.83-.33,1.26-.96,1.27-.63,0-.98-.43-.98-1.25,0-2.57,0-5.14,0-7.7v-.74c-.46,.07-.88,.16-1.29,.2-.65,.05-1.11-.3-1.17-.85-.07-.6,.3-.99,1.01-1.08,1.5-.18,2.34-1.02,2.49-2.5,.07-.67,.44-1.03,1.02-1.01,.57,.03,.99,.46,.9,1.1-.12,.8-.37,1.57-.61,2.53,1.5,1.77,3.56,2.67,6.08,2.42,1.74-.17,3.2-.95,4.41-2.22,.64-.68,1.12-.66,1.8,.02,2.16,2.17,4.71,2.85,7.58,1.77,2.87-1.08,4.38-3.29,4.54-6.33,.11-2.06-.68-3.83-2.17-5.28-.79-.77-.79-1.17-.01-1.93,2.93-2.86,2.93-7.32,0-10.17-.78-.76-.78-1.17,0-1.93,2.26-2.2,2.83-5.43,1.45-8.2-.1-.21-.23-.4-.45-.8-.12,.23-.17,.38-.27,.49-5.14,5.7-13.88,5.97-19.37,.62-.29-.29-.76-.48-1.17-.55-2.74-.47-5.45-.14-8.17,.25-2.51,.36-4.72-.4-6.69-1.97-.1-.08-.2-.16-.34-.27-3.02,2.48-6.34,3.01-10.13,1.38,1.52,3.67,1.16,6.97-1.4,9.99,1.47,1.74,2.33,3.73,2.33,6.05,0,2.3-.83,4.29-2.33,6.05,1.02,1.19,1.78,2.5,2.09,4.03,.12,.61,.19,1.23,.22,1.86,.03,.68-.32,1.08-.9,1.11-.6,.03-.92-.38-1.04-1.07-.16-.95-.28-1.94-.67-2.8-.37-.82-1.01-1.54-1.61-2.23-.6-.69-.65-1.13,.01-1.77,3.06-2.98,3.06-7.38,0-10.34-.6-.58-.68-1.11-.12-1.61,2.46-2.24,2.8-4.96,1.85-7.99-.25-.8-.57-1.57-.83-2.27-.8,.16-1.5,.35-2.22,.43-.6,.06-1.03-.36-1.05-.9-.02-.5,.34-.91,.9-1.01,1.86-.34,2.25-.73,2.62-2.63,.11-.56,.52-.92,1.02-.89,.53,.04,.93,.47,.88,1.07-.04,.51-.11,1.04-.3,1.51-.18,.44-.04,.65,.28,.91,2.8,2.21,6.79,1.96,9.32-.58,.21-.21,.42-.45,.68-.58,.54-.27,.93,.03,1.3,.42,1.4,1.49,3.14,2.23,5.18,2.26,.23,0,.46-.04,.65-.05-.3-.76-.59-1.48-.85-2.21-.08-.22-.08-.47-.08-.7,0-.61,.36-1.02,.91-1.04,.56-.03,.92,.34,1.03,.94,.08,.44,.16,.9,.36,1.29,.39,.76,1.08,1.21,1.92,1.25,1.39,.06,2.78,.02,4.25,.02-2.02-3.57-2.42-7.27-1.22-11.18-1.04,.63-1.21,.61-2.03-.22-2.77-2.79-7.23-2.79-9.98,.02-.89,.91-1.19,.91-2.06,.02-2.77-2.83-7.24-2.84-10.03-.02-.8,.81-1.19,.8-1.97-.02-2.71-2.86-7.17-2.96-9.98-.23-2.8,2.72-2.84,7.29-.1,10.07,.92,.93,.91,1.18,0,2.11-2.72,2.76-2.69,7.16,.06,9.9,.94,.94,.94,1.21-.01,2.16-2.26,2.24-2.72,5.72-1.12,8.46,.11,.18,.23,.35,.36,.53,.3-.37,.55-.73,.85-1.03,.4-.4,.96-.4,1.33-.02,.39,.4,.4,.84,.09,1.29-1.09,1.62-1.09,2.19,0,3.77,.31,.46,.26,1.01-.13,1.34-.41,.34-.91,.32-1.34-.09-.17-.16-.32-.36-.46-.54-.14-.19-.26-.39-.4-.59-2.62,3.6-1.04,9.3,3.92,10.69,1.37,.38,2.73,.32,4.08-.12,1.06-.35,1.57,.03,1.58,1.14,0,.67-.01,1.34,0,2.01,.03,.96,.68,1.63,1.57,1.63,.9,0,1.58-.69,1.58-1.68,.02-1.6,0-3.19,0-4.79,0-.21,0-.44,.05-.64,.14-.5,.5-.77,1.01-.73,.5,.05,.86,.35,.86,.88,.01,1.96,.08,3.93-.04,5.89-.11,1.76-1.82,3.08-3.62,3.01-1.77-.07-3.24-1.49-3.35-3.25-.03-.41,0-.81,0-1.3-.28,.02-.49,.03-.69,.05-4.98,.58-9.15-2.53-10.05-7.49-.02-.1-.07-.2-.11-.3v-2.07c.28-1.32,.61-2.63,1.39-3.77,.3-.44,.62-.86,.82-1.14-.6-1.14-1.19-2.16-1.67-3.22-.26-.57-.36-1.22-.53-1.84v-2.2c.39-1.82,1.03-3.53,2.24-4.83-.58-1.06-1.18-2.03-1.65-3.05-.3-.65-.4-1.39-.59-2.09v-2.07c.04-.1,.1-.19,.11-.29,.2-1.39,.72-2.65,1.51-3.79,.21-.3,.42-.58,.55-.75-.55-1.02-1.1-1.92-1.53-2.87-.3-.67-.44-1.42-.65-2.14v-2.33Zm41.41,.81c0,6.35,5.12,11.49,11.45,11.49,6.3,0,11.45-5.13,11.47-11.42,.02-6.34-5.1-11.49-11.43-11.51-6.35-.02-11.49,5.1-11.49,11.44"/>
    <path class="cls-1" d="M49.29,41.97c-1.6-3.69-1.14-7.03,1.36-10.1-.34-.49-.7-.94-1-1.43-.35-.57-.24-1.11,.24-1.42,.47-.3,.99-.14,1.4,.37,.45,.57,.92,1.14,1.41,1.68,.5,.56,.54,1.07-.03,1.57-3.13,2.77-3.16,7.74,.03,10.53,.38,.33,.52,.75,.26,1.22-.27,.47-.7,.65-1.21,.5-.76-.23-1.51-.51-2.26-.77-.86-.29-1.7-.61-2.58-.85-2.72-.74-5.01,.06-6.92,2.07-.75,.79-.96,.84-1.86,.28-1.52-.93-3.1-1.05-4.67-.19-1.61,.87-2.48,2.28-2.49,4.1-.04,4.94-.01,9.88-.02,14.82,0,.21,.02,.44-.02,.65-.11,.53-.44,.84-1,.81-.53-.03-.81-.35-.9-.85-.02-.13-.01-.26-.01-.39,0-4.98-.01-9.97,0-14.95,.01-3.17,2.13-5.82,5.16-6.53,1.43-.33,2.83-.17,4.17,.44,.26,.12,.45,.22,.74-.04,2.73-2.48,5.85-3.04,9.3-1.83,.28,.1,.56,.18,.91,.29"/>
    <path class="cls-1" d="M49.59,18.8c-3.34-.54-5.05-2.21-5.03-4.84,.02-2.59,1.81-4.37,4.81-4.78,1.04-2.84,3.35-4.27,5.83-3.63,2.16,.55,4.09,2.6,3.46,6,.42-.07,.81-.13,1.2-.19,.68-.11,1.17,.19,1.27,.77,.09,.58-.23,.99-.88,1.13-.44,.09-.88,.17-1.33,.25,1.23,2.75,.85,4.96-1.08,6.44-1.91,1.48-4.18,1.32-6.42-.48-.19,.44-.36,.87-.55,1.29-.27,.59-.79,.81-1.32,.58-.49-.21-.68-.73-.48-1.31,.14-.4,.32-.79,.5-1.24m7.42-8.51c-.16-1.68-1.32-2.9-2.88-2.92-1.52-.02-2.8,1.2-2.87,2.74-.04,.94-.46,1.28-1.37,1.12-1.27-.23-2.46,.33-3.05,1.44-.56,1.07-.4,2.36,.42,3.24,.84,.9,2.15,1.13,3.33,.58,.91-.42,1.33-.26,1.7,.67,.48,1.19,1.56,1.92,2.75,1.86,1.25-.07,2.26-.87,2.59-2.07,.33-1.18-.13-2.38-1.18-3.1-.85-.58-.86-1-.25-1.85,.36-.5,.54-1.13,.8-1.7"/>
    <path class="cls-1" d="M48.27,6.75c0,.51-.41,.94-.93,.96-.55,.02-1-.41-1-.95,0-.51,.41-.95,.93-.97,.53-.02,1,.43,1,.96"/>
    <path class="cls-1" d="M54.27,9.96c0,.53-.21,.95-.49,.97-.29,.02-.54-.41-.55-.94,0-.53,.25-.99,.53-.98,.28,.01,.5,.44,.51,.95"/>
    <path class="cls-1" d="M55.5,15.45c.28,.02,.5,.45,.5,.96s-.26,.99-.54,.97c-.29-.02-.51-.48-.49-1.03,.02-.52,.25-.91,.53-.9"/>
    <path class="cls-1" d="M50.23,14.05c-.01,.55-.46,.96-1.02,.93-.51-.03-.93-.47-.91-.98,.01-.51,.45-.93,.96-.93,.55,0,.98,.43,.97,.98"/>
  </g>
</svg>