<?xml version="1.0" encoding="UTF-8"?>
<svg id="Layer_2" data-name="Layer 2" xmlns="http://www.w3.org/2000/svg" xmlns:xlink="http://www.w3.org/1999/xlink" viewBox="0 0 517.5 388.92">
  <defs>
    <style>
      .cls-1 {
        fill: #bb9d5a;
      }

      .cls-2 {
        clip-path: url(#clippath);
      }

      .cls-3 {
        fill: none;
      }

      .cls-4 {
        opacity: .1;
      }
    </style>
    <clipPath id="clippath">
      <rect class="cls-3" width="517.5" height="388.92"/>
    </clipPath>
  </defs>
  <g id="Layer_1-2" data-name="Layer 1">
    <g class="cls-4">
      <g class="cls-2">
        <path class="cls-1" d="M58.75,388.92H458.75c32.43-.04,58.71-26.32,58.75-58.75V58.75C517.47,26.32,491.18,.03,458.75,0H58.75C26.32,.03,.04,26.32,0,58.75V330.17c.03,32.43,26.32,58.71,58.75,58.75m0-17.5c-9.03,.01-17.81-2.96-24.98-8.45l119.62-122.36c2.22-2.23,3.07-5.48,2.23-8.51-.84-3.03-3.24-5.38-6.29-6.14-3.05-.77-6.28,.15-8.46,2.42L22.38,349.6c-3.2-5.97-4.88-12.65-4.88-19.43V78.04L220.86,250.23c21.9,18.64,54.08,18.63,75.96-.04L500,77.87v252.3c0,6.81-1.68,13.5-4.91,19.49l-119.22-121.3c-3.4-3.41-8.91-3.45-12.34-.08-3.43,3.38-3.5,8.89-.14,12.34l120.28,122.38c-7.16,5.47-15.92,8.42-24.93,8.41H58.75Zm0-353.93H458.75c21.34,.03,39.15,16.31,41.08,37.57l-214.33,181.78c-15.36,13.1-37.97,13.11-53.34,.02L17.67,55.24c1.84-21.33,19.68-37.71,41.09-37.74"/>
      </g>
    </g>
  </g>
</svg>