<?xml version="1.0" encoding="UTF-8"?>
<svg id="Layer_2" data-name="Layer 2" xmlns="http://www.w3.org/2000/svg" xmlns:xlink="http://www.w3.org/1999/xlink" viewBox="0 0 93.14 147.39">
  <defs>
    <style>
      .cls-1 {
        fill: url(#linear-gradient-2);
      }

      .cls-2 {
        clip-path: url(#clippath-2);
      }

      .cls-3 {
        clip-path: url(#clippath-1);
      }

      .cls-4 {
        clip-path: url(#clippath);
      }

      .cls-5 {
        fill: none;
      }

      .cls-6 {
        fill: url(#linear-gradient-3);
      }

      .cls-7 {
        fill: url(#linear-gradient);
      }
    </style>
    <clipPath id="clippath">
      <path class="cls-5" d="M31.66,3.18c-10.77,5.64-4.12,17.25-2.61,19.24,0,0,16.67-8.8,34.78,.69,0,0,0,0,0,0,.15-.21,6.67-9.49,1.92-16.35C62.8,2.5,54.71,0,46.41,0c-5.25,0-10.58,1-14.75,3.18"/>
    </clipPath>
    <linearGradient id="linear-gradient" x1="-848.92" y1="2210.95" x2="-847.92" y2="2210.95" gradientTransform="translate(35542.54 92513.42) scale(41.84 -41.84)" gradientUnits="userSpaceOnUse">
      <stop offset="0" stop-color="#c6c6c6"/>
      <stop offset=".04" stop-color="#c6c6c6"/>
      <stop offset=".35" stop-color="#d9d9d9"/>
      <stop offset=".71" stop-color="#f6f6f6"/>
      <stop offset=".82" stop-color="#f0f0f0"/>
      <stop offset=".96" stop-color="#e0e0e0"/>
      <stop offset="1" stop-color="#dadada"/>
    </linearGradient>
    <clipPath id="clippath-1">
      <path class="cls-5" d="M63.83,23.11s0,0,0,0c-.71,1.19-25.86,36.43-36.56,51.56C16.57,89.79,.24,112.61,.24,112.61c0,0-2.88,5.78,11.11,34.78,0,0,57.48-81.66,62.28-93.76,4.8-12.1,3.15-18.7,.27-27.49-2.88-8.8-5.82-17.05-8.16-19.38,4.75,6.86-1.77,16.14-1.92,16.35"/>
    </clipPath>
    <linearGradient id="linear-gradient-2" x1="-843.33" y1="2210.18" x2="-842.33" y2="2210.18" gradientTransform="translate(105879.35 277621.84) scale(125.58 -125.58)" gradientUnits="userSpaceOnUse">
      <stop offset="0" stop-color="#ededed"/>
      <stop offset=".16" stop-color="#e7e7e7"/>
      <stop offset=".36" stop-color="#d6d6d6"/>
      <stop offset=".51" stop-color="#c6c6c6"/>
      <stop offset=".84" stop-color="#dadada"/>
      <stop offset=".91" stop-color="#d6d6d6"/>
      <stop offset=".98" stop-color="#cbcbcb"/>
      <stop offset="1" stop-color="#c6c6c6"/>
    </linearGradient>
    <clipPath id="clippath-2">
      <path class="cls-5" d="M19.23,26.14c-2.88,8.8-4.53,15.4,.28,27.49,4.8,12.1,62.28,93.76,62.28,93.76,13.99-29.01,11.11-34.78,11.11-34.78,0,0-16.32-22.82-27.02-37.94C55.17,59.55,30.03,24.31,29.32,23.11c0,0,0,0,0,0-.15-.21-6.66-9.49-1.92-16.35-2.34,2.33-5.28,10.58-8.16,19.38"/>
    </clipPath>
    <linearGradient id="linear-gradient-3" x1="-845" y1="2207.35" x2="-844" y2="2207.35" gradientTransform="translate(-278782.21 106747.2) rotate(90) scale(126.32 -126.32)" gradientUnits="userSpaceOnUse">
      <stop offset="0" stop-color="#dadada"/>
      <stop offset=".06" stop-color="#dadada"/>
      <stop offset=".09" stop-color="#e0e0e0"/>
      <stop offset=".17" stop-color="#f0f0f0"/>
      <stop offset=".24" stop-color="#f6f6f6"/>
      <stop offset=".56" stop-color="#e4e4e4"/>
      <stop offset=".84" stop-color="#dadada"/>
      <stop offset="1" stop-color="#dadada"/>
    </linearGradient>
  </defs>
  <g id="Layer_1-2" data-name="Layer 1">
    <g class="cls-4">
      <rect class="cls-7" x="20.89" width="49.6" height="23.11"/>
    </g>
    <g class="cls-3">
      <rect class="cls-1" x="-42.41" y="1.7" width="160.63" height="150.75" transform="translate(-46.09 59.09) rotate(-51.73)"/>
    </g>
    <g class="cls-2">
      <rect class="cls-6" x="-23.94" y="-.39" width="158.36" height="154.92" transform="translate(-38.87 65.47) rotate(-47.34)"/>
    </g>
  </g>
</svg>