<svg xmlns="http://www.w3.org/2000/svg" viewBox="0 0 596.67 638.48"><defs><style>.cls-1{fill:#bb9c58;}.cls-2{fill:#50715f;}</style></defs><g id="Layer_2" data-name="Layer 2"><g id="Layer_1-2" data-name="Layer 1"><path class="cls-1" d="M524.63,223.18c.29-17.15,8.8-31.36,24.56-36.73,13.19-4.5,25-1.33,34.76,8.69,9.23,9.52,11.37,21.23,9.57,34.3-6.94-13.61-17.31-22.21-32.58-23.59S533.87,211.05,524.63,223.18Z"/><path class="cls-1" d="M582.17,329.06l-7-10.95c-10-15.77-20.16-31.46-30-47.32-5.88-9.45-11.46-19.1-17-28.78-2.12-3.71-3.77-7.77-3.27-12.22A13,13,0,0,1,526.5,225c2.9-5.08,9.44-10.74,15-13.23.21.95.39,1.89.63,2.8,1.85,7.27,5.13,13.94,8.63,20.51,7,13.15,15.36,25.5,23.44,38q11,17,22.07,33.81a1.62,1.62,0,0,1,0,2.18c-4.43,6.28-8.79,12.6-13.18,18.91C582.81,328.28,582.53,328.6,582.17,329.06Z"/><path class="cls-1" d="M539.32,266l12.86,20.48-34.07,37L507.26,300Z"/><path class="cls-1" d="M571.78,265c-4.45-7-8.7-13.67-12.94-20.31,7.65-9.34,15.52-18.33,20.11-29.67a39,39,0,0,1,11.9,14.49,11.49,11.49,0,0,1,.26,10.13,30.65,30.65,0,0,1-3.68,6.7C582.41,252.58,577.14,258.64,571.78,265Z"/><path class="cls-2" d="M552.88,295.93l-21.61,23.55c-25.5,104-89.64,214.43-238.12,281.69l8.62-544.68c35,27.31,106,68.86,195.87,68.86a274.56,274.56,0,0,0,45.72-3.69c1.6,17.1,2.85,36.83,3.06,58.44.2-.07.34-.14.55-.21,11.19-3.82,21.75-3.06,31.2,2.16a652.48,652.48,0,0,0-3-66.71c-.55-5.77-1-11.25-1.87-16.26L571.5,83,556,86.44c-2.91.83-5.56,1.32-8.2,1.87-2.84.49-5.48.77-8.12,1.32C399.32,111.66,304.41,16,300.44,11.81L289.19,0s-10,9.45-23.69,21.82C193.23,86.44,57.88,97,6.32,85.4,28.42,94.64,149,130.63,276.54,53.57l1,63.09c-3.41,3.2-7.37,6.6-12.86,11.33-21.33,17.09-55,42.87-91,56.77-5.49,2.36-11.05,3.68-16.54,5.55-2.92,1.05-5.56,1.81-8.41,2.58l-8.68,1.87A274.67,274.67,0,0,1,70,202.13a280.88,280.88,0,0,1-65.25-9.45,637.25,637.25,0,0,1,1.88-92A644.32,644.32,0,0,0,0,190.31v2.58c.28,21.33,1,42.87,3.2,64.2C4.72,269.94,6.6,282.8,9,295.44c0,0,.77,5.49,1,6.05A476,476,0,0,0,42.87,407.66a31.36,31.36,0,0,0,2.64,5.56A410.16,410.16,0,0,0,107,509.66a141.06,141.06,0,0,0,10.5,12.09c5.55,6.32,11.6,12.64,17.64,18.41A417.71,417.71,0,0,0,193,587.76c33.7,23,96,50.72,96,50.72l15-6.81c128-57,206.29-150.36,247.57-277.38,4.58-14.1,8.47-28.21,11.67-42.1l-2.64-4.1C558,304.06,555.45,300,552.88,295.93ZM11.33,256A532.92,532.92,0,0,1,5,197.89v-.49c-.28-1.32,0-2.64-.28-4a296.66,296.66,0,0,0,64.69,16.82,299.84,299.84,0,0,0,73.59.55l9.24-1c3.12-.56,6-1.11,9.17-1.6,6-1.32,12.37-2.36,18.41-4,16.05-4.17,54.41-18.9,85.95-37.59l12.37-8.13,1,57.53-14.45,13.41-3.4,2.92L248.19,243.4c-12.64,9.73-32.38,25.78-74.41,43.08-5.49,2.15-11.05,3.4-16.54,5.28-2.92,1-5.56,1.81-8.41,2.64l-8.68,1.81A268.13,268.13,0,0,1,70,303.57a288.9,288.9,0,0,1-50-5.49C16.61,284.12,13.69,270.22,11.33,256ZM59.41,404.53a6.35,6.35,0,0,1-1-2.08,460.69,460.69,0,0,1-36.76-97,9.47,9.47,0,0,1-.56-2.64c-.27-.84-.27-1.32-.55-2.09h.28a281.64,281.64,0,0,0,48.63,11,296,296,0,0,0,73.59.56l9.24-1c3.12-.56,6-1.05,9.17-1.6,6-1.32,12.37-2.09,18.41-4,27.59-6.81,52.81-19.18,52.81-19.18l16.88-8.69c5.77-2.57,11-6.25,16.26-9.72L280,258.89l.83,57.33-16,14.94-3.4,2.91-13.14,10.77c-11.6,10.29-42.87,28.7-42.87,28.7-10,5.77-20.77,9.66-31.54,14.45-5.49,2.09-11.05,3.41-16.54,5.22-2.92,1-5.56,1.87-8.41,2.64l-8.68,1.87A271.55,271.55,0,0,1,70,405c-2.92,0-6-.21-9-.21C60.45,404.81,60,404.53,59.41,404.53ZM132.78,501c-.83.28-1.87.28-2.92.56-24.45-25.22-46.27-53.36-63.57-84.35-1.05-1.6-1.88-3.2-2.92-5a6.35,6.35,0,0,0,1.87.21c1.26.28,2.85.56,4.17.84a299.86,299.86,0,0,0,73.59.48l9.24-1c3.12-.49,6-1,9.17-1.6,6-1.25,12.37-2.08,18.41-3.89,44.19-12.09,66.22-25,85.95-37.59l15.78-10.28.76,56.76-17.58,16.61-16.54,13.62c-4.51,3.68-8.68,7.64-13.68,10.56l-14.18,9.45L213,470.75s-20.78,11.6-39.19,18.69c-5.49,2.08-11.05,3.4-16.54,5.49-2.92.83-5.56,1.6-8.41,2.36l-8.68,2.15C137.79,499.93,135.42,500.49,132.78,501Zm79.91,66a436.87,436.87,0,0,1-61-44.68c-1-1-2.36-1.87-3.4-2.91-1.32-1.32-2.92-2.85-4.45-4.17l3.68-.28,4.73-.56c3.12-.48,6-1.32,9.17-1.8,6-1.32,12.37-2.09,18.41-4,11.81-3.41,24.18-6.6,35.51-11.54l17.3-7.36,16.88-9c5.77-2.64,11-6.32,16.26-9.72l16.05-10.5,1.32-.83.77,56.56-66.5,53.64C215.81,568.79,214.29,568,212.69,567Zm38.07,19.94c-1.8-.76-3.4-1.8-5.21-2.57l39.12-24,.56,41.07C278.91,599,265.77,593.8,250.76,586.92Z"/></g></g></svg>