<svg xmlns="http://www.w3.org/2000/svg" viewBox="0 0 826.72 884.64"><defs><style>.cls-1{opacity:0.05;}.cls-2{fill:#bb9d5a;}.cls-3{fill:#4f715e;}</style></defs><g id="Layer_2" data-name="Layer 2"><g id="Layer_1-2" data-name="Layer 1"><g class="cls-1"><path class="cls-2" d="M726.9,309.23c.41-23.77,12.19-43.45,34-50.89,18.28-6.23,34.71-1.85,48.16,12,12.79,13.2,15.76,29.42,13.26,47.53-9.61-18.86-24-30.77-45.14-32.68S739.71,292.42,726.9,309.23Z"/><path class="cls-2" d="M806.62,455.93,797,440.75c-13.89-21.84-27.93-43.59-41.62-65.56-8.15-13.09-15.88-26.46-23.51-39.87-2.93-5.15-5.23-10.77-4.53-16.93a18,18,0,0,1,2.2-6.72c4-7,13.09-14.88,20.77-18.32.29,1.32.54,2.61.87,3.88,2.57,10.07,7.11,19.31,12,28.41,9.72,18.23,21.27,35.34,32.46,52.65q15.2,23.49,30.58,46.85a2.23,2.23,0,0,1,0,3c-6.13,8.7-12.19,17.46-18.27,26.2C807.51,454.84,807.12,455.29,806.62,455.93Z"/><path class="cls-2" d="M747.25,368.51l17.82,28.37L717.86,448.2c-5.06-11-10-21.72-15-32.6Z"/><path class="cls-2" d="M792.23,367.15,774.3,339c10.6-12.93,21.5-25.39,27.86-41.1A54,54,0,0,1,818.65,318a15.93,15.93,0,0,1,.36,14c-1.45,3.21-2.91,6.57-5.09,9.28C807,350,799.65,358.35,792.23,367.15Z"/><path class="cls-3" d="M766,410,736.1,442.66C700.76,586.78,611.9,739.75,406.17,833L418.11,78.27c48.52,37.83,146.81,95.41,271.39,95.41a381.76,381.76,0,0,0,63.35-5.11c2.21,23.69,3.94,51,4.23,81,.29-.1.48-.2.77-.29,15.5-5.3,30.14-4.24,43.23,3a907.37,907.37,0,0,0-4.14-92.42c-.77-8-1.44-15.59-2.6-22.53l-2.5-22.23-21.47,4.71c-4,1.16-7.7,1.83-11.36,2.6-4,.68-7.61,1.06-11.27,1.83-194.47,30.52-326-102-331.46-107.82L400.68,0s-13.86,13.09-32.82,30.23C267.73,119.76,80.19,134.4,8.76,118.32,39.37,131.12,206.5,181,383.16,74.23l1.45,87.41c-4.72,4.43-10.21,9.15-17.81,15.69-29.56,23.69-76.15,59.4-126,78.66-7.61,3.27-15.31,5.1-22.92,7.7-4,1.44-7.7,2.5-11.65,3.56l-12,2.6A380.15,380.15,0,0,1,97,280.06,388.32,388.32,0,0,1,6.55,267,880.23,880.23,0,0,1,9.15,139.5C3,180.61.38,222.1,0,263.69v3.56c.38,29.56,1.44,59.4,4.43,89,2.12,17.81,4.72,35.62,8,53.14,0,0,1.06,7.6,1.44,8.37A660.8,660.8,0,0,0,59.4,564.83c.39,1.15,2.5,6.26,3.66,7.7a568.34,568.34,0,0,0,85.2,133.63,195.81,195.81,0,0,0,14.54,16.75c7.7,8.76,16.07,17.52,24.45,25.51a577.72,577.72,0,0,0,80.1,66c46.69,31.86,133,70.27,133,70.27l20.79-9.43c177.34-79,285.84-208.33,343-384.32,6.35-19.54,11.75-39.09,16.17-58.34l-3.65-5.68C773.06,421.29,769.6,415.61,766,410ZM15.69,354.67a742.16,742.16,0,0,1-8.76-80.49v-.67c-.38-1.83,0-3.66-.38-5.49a410,410,0,0,0,89.63,23.3,414.78,414.78,0,0,0,101.95.77l12.8-1.44c4.33-.78,8.38-1.54,12.71-2.22,8.38-1.83,17.14-3.27,25.51-5.49,22.24-5.77,75.38-26.18,119.09-52.08l17.14-11.26,1.44,79.71-20,18.58-4.72,4-18.2,15.31C326.36,350.72,299,373,240.78,396.93c-7.61,3-15.31,4.72-22.92,7.32-4,1.44-7.7,2.5-11.65,3.65l-12,2.51A371.87,371.87,0,0,1,97,420.61,402.16,402.16,0,0,1,27.73,413C23,393.66,19,374.4,15.69,354.67ZM82.31,560.5a9,9,0,0,1-1.44-2.89,639,639,0,0,1-50.93-134.4,13.25,13.25,0,0,1-.77-3.66c-.38-1.15-.38-1.83-.77-2.88h.39c21.85,7.22,44.47,11.93,67.39,15.21a410.89,410.89,0,0,0,101.95.77l12.8-1.45c4.33-.77,8.38-1.44,12.71-2.21,8.38-1.83,17.14-2.89,25.51-5.49,38.22-9.43,73.17-26.57,73.17-26.57l23.39-12c8-3.57,15.21-8.67,22.53-13.48l19.64-12.71L389,438.13l-22.23,20.7-4.72,4.05-18.2,14.92c-16.07,14.25-59.4,39.76-59.4,39.76-13.86,8-28.78,13.38-43.7,20-7.61,2.89-15.31,4.72-22.92,7.22-4,1.45-7.7,2.6-11.65,3.66l-12,2.6A375.71,375.71,0,0,1,97,561.17c-4,0-8.38-.29-12.42-.29C83.76,560.88,83.08,560.5,82.31,560.5ZM184,694.12c-1.16.39-2.6.39-4,.77C146,659.94,115.81,621,91.84,578c-1.44-2.22-2.6-4.43-4-6.93a9.19,9.19,0,0,0,2.6.28c1.73.39,3.95.77,5.78,1.16a414.81,414.81,0,0,0,101.95.67l12.8-1.44c4.33-.67,8.38-1.44,12.71-2.21,8.38-1.74,17.14-2.89,25.51-5.4,61.23-16.75,91.75-34.65,119.09-52.08l21.85-14.25,1.06,78.66-24.35,23-22.92,18.87c-6.25,5.1-12,10.59-19,14.63l-19.64,13.09-10.21,6.16s-28.78,16.08-54.29,25.9c-7.61,2.89-15.31,4.72-22.92,7.61-4,1.15-7.7,2.21-11.65,3.27l-12,3C190.91,692.68,187.63,693.45,184,694.12Zm110.71,91.46c-29.56-18.2-58.25-38.61-84.53-61.9-1.44-1.45-3.27-2.6-4.72-4-1.82-1.83-4-3.94-6.16-5.77l5.11-.39,6.54-.77c4.33-.67,8.38-1.83,12.71-2.5,8.38-1.83,17.14-2.89,25.51-5.49,16.37-4.72,33.5-9.14,49.2-16l24-10.2,23.39-12.42c8-3.66,15.21-8.76,22.53-13.48l22.24-14.54,1.83-1.15,1.06,78.36-92.14,74.32C299,788.08,296.9,787,294.69,785.58Zm52.76,27.63c-2.51-1.06-4.72-2.5-7.23-3.56l54.21-33.22.77,56.9C386.44,830,368.24,822.74,347.45,813.21Z"/></g></g></g></svg>