<svg xmlns="http://www.w3.org/2000/svg" viewBox="0 0 29.94 29.93"><defs><style>.cls-1{fill:#b5975a;}</style></defs><g id="Layer_2" data-name="Layer 2"><g id="Layer_1-2" data-name="Layer 1"><path class="cls-1" d="M0,26V3.92l.06-.19A4.36,4.36,0,0,1,4.44,0h21A4.6,4.6,0,0,1,27,.25a4.32,4.32,0,0,1,3,4.26q0,10.46,0,20.92a2.81,2.81,0,0,1,0,.29,4.26,4.26,0,0,1-2.45,3.74,8.89,8.89,0,0,1-1.46.47H18.48V19.35h4.44l.88-5.27H18.49V10.52h5.28V5.26H18.58a5.28,5.28,0,0,0-5.37,5.37V14.1H9.72v5.25h3.49V29.93H3.92l-.17-.05A4.29,4.29,0,0,1,.41,27.37,10.19,10.19,0,0,1,0,26Z" transform="translate(0 0)"/></g></g></svg>