<svg id="Layer_1" data-name="Layer 1" xmlns="http://www.w3.org/2000/svg" viewBox="0 0 113 115"><defs><style>.cls-1{fill:#d8bf8b;}.cls-2{fill:#bb9d5a;}.cls-3{fill:#4f715e;}.cls-4{font-size:12px;fill:#fff;font-family:Montserrat-SemiBold, Montserrat;font-weight:600;}</style></defs><path class="cls-1" d="M54.19,112s30.41,9.86,58.31-8.55c0,0-27.93-1.78-30.24-32.14Z"/><circle class="cls-2" cx="56.5" cy="56.39" r="56"/><path class="cls-3" d="M46.63,46.39c-.08.07-.1.09-.1.1,0,3.77-.16,7.56.14,11.3.37,4.67,4.59,8.37,9.28,8.59a10,10,0,0,0,10.3-7.74,7.25,7.25,0,0,0,.23-1.54c0-3.54,0-7.08,0-10.68l-.54,0c-1.14,0-2.29,0-3.44,0a2,2,0,0,1,0-4q3,0,6.06,0a2,2,0,0,1,2,2c0,4.27.12,8.55,0,12.82A13.89,13.89,0,0,1,59,70.14l-.52.12a9.09,9.09,0,0,0,2.65,7,5.72,5.72,0,0,0,5,1.21,13.34,13.34,0,0,0,9.32-6.06c5.33-8,6.78-16.62,2.93-25.57C74.81,38.32,68,33.59,58.82,32.51A23.32,23.32,0,0,0,46,34.79a2.72,2.72,0,0,1-1.43.27,1.89,1.89,0,0,1-1.63-1.66A2,2,0,0,1,44,31.34a25.9,25.9,0,0,1,7.8-2.56A27.46,27.46,0,0,1,74.06,34.6,26.8,26.8,0,0,1,84.27,52.94,30.81,30.81,0,0,1,79,74.48a17.7,17.7,0,0,1-9.47,7.2,14,14,0,0,1-7,.52c-3.76-.77-6-3.22-7.09-6.8a37.36,37.36,0,0,1-.87-4.72c-.06-.35-.17-.48-.52-.54A14,14,0,0,1,42.51,56.33c0-3.9,0-7.79,0-11.69a2,2,0,0,1,2.23-2.25H50.3a2,2,0,1,1,0,4Z"/><path class="cls-3" d="M46.53,76.44a8,8,0,0,1-15.94.73,7.73,7.73,0,0,1,1.72-5.77.62.62,0,0,0,0-.86,28,28,0,0,1,4-33.59,2,2,0,1,1,2.86,2.78,24,24,0,0,0-3.5,28.65c.2.37.39.4.79.3A8,8,0,0,1,46.53,76.44Zm-4-.06a4,4,0,1,0-4,4A4,4,0,0,0,42.5,76.38Z"/><text class="cls-4" transform="translate(80.53 25.4) rotate(44.59)">H</text><text class="cls-4" transform="matrix(0.56, 0.83, -0.83, 0.56, 86.93, 31.82)">a</text><text class="cls-4" transform="translate(90.67 37.39) rotate(65.82)">v</text><text class="cls-4" transform="translate(93.18 42.94) rotate(74.21)">e</text><text class="cls-4" transform="translate(94.91 49.67) rotate(82.07)"> </text><text class="cls-4" transform="translate(95.42 52.29) rotate(89.12)">a</text><text class="cls-4" transform="translate(95.41 59.21) rotate(96.22)"> </text><text class="cls-4" transform="translate(95.38 61.85) rotate(104.73)">D</text><text class="cls-4" transform="matrix(-0.45, 0.9, -0.9, -0.45, 93.09, 70.38)">o</text><text class="cls-4" transform="matrix(-0.61, 0.8, -0.8, -0.61, 89.91, 76.88)">u</text><text class="cls-4" transform="translate(85.36 82.94) rotate(138.54)">b</text><text class="cls-4" transform="translate(79.4 88.08) rotate(147.9)">t</text></svg>