<svg xmlns="http://www.w3.org/2000/svg" viewBox="0 0 29.91 29.91"><defs><style>.cls-1{fill:#b5975a;}</style></defs><g id="Layer_2" data-name="Layer 2"><g id="Layer_1-2" data-name="Layer 1"><path class="cls-1" d="M15,29.9H4.4A4.09,4.09,0,0,1,0,25.53V4.37A4.09,4.09,0,0,1,4.4,0H25.51A4.09,4.09,0,0,1,29.9,4.37q0,10.65,0,21.3a4,4,0,0,1-3,4.09,5.21,5.21,0,0,1-1.25.14C22.05,29.91,18.5,29.9,15,29.9ZM15,6.17c-5.24,0-8.79,3.51-8.81,8.74s3.5,8.8,8.73,8.82,8.83-3.51,8.83-8.76S20.21,6.18,15,6.17Zm9.48,2a2.72,2.72,0,1,0-2.71-2.71A2.71,2.71,0,0,0,24.46,8.15Z" transform="translate(0)"/><path class="cls-1" d="M15,9a6,6,0,1,0,5.93,6A6,6,0,0,0,15,9Zm0,9a3,3,0,1,1,3-3A3,3,0,0,1,15,18Z" transform="translate(0)"/></g></g></svg>