<svg xmlns="http://www.w3.org/2000/svg" viewBox="0 0 940.55 282.99"><defs><style>.cls-1{fill:#50715f;}.cls-2{fill:#bb9c58;}</style></defs><g id="Layer_2" data-name="Layer 2"><g id="Layer_1-2" data-name="Layer 1"><path class="cls-1" d="M384,95l-28.38,79.65a7.12,7.12,0,0,0,0,4.15H343.1a6.31,6.31,0,0,0,.16-4.15L314.88,95a19.68,19.68,0,0,0-2.64-4.15h6.6a6,6,0,0,0-.16,4l27.88,78.41,27.89-78.41a5.44,5.44,0,0,0,0-4h12.21A14.48,14.48,0,0,0,384,95Z"/><path class="cls-1" d="M483.35,89.56v5.81a10.06,10.06,0,0,0-5-1.24H442.26v38.3h25.08a10.06,10.06,0,0,0,5-1.24V137a10.06,10.06,0,0,0-5-1.24H442.26v39.69H478.4a10,10,0,0,0,5-1.25V180a10.06,10.06,0,0,0-5-1.24H431.2a6.69,6.69,0,0,0,1.49-4.15V95a6.69,6.69,0,0,0-1.49-4.15h47.2A10,10,0,0,0,483.35,89.56Z"/><path class="cls-1" d="M583.66,178.76h-12a6.72,6.72,0,0,0-1-4.15l-21-36.65a75.49,75.49,0,0,1-10.73,1.11v35.54a6.69,6.69,0,0,0,1.49,4.15H527.89a6.69,6.69,0,0,0,1.49-4.15V95a6.69,6.69,0,0,0-1.49-4.15h22c4.29,0,30.19-1,30.19,20.88,0,12.72-9.73,20.19-21.28,24.06l21.45,38.86A21.32,21.32,0,0,0,583.66,178.76Zm-44.72-43c22.12-.42,31.52-9.4,31.52-24.06,0-15.07-8.74-17.56-23.1-17.56h-8.42Z"/><path class="cls-1" d="M639.26,174.61a6.69,6.69,0,0,0,1.49,4.15H628.21a6.72,6.72,0,0,0,1.48-4.15V95a6.72,6.72,0,0,0-1.48-4.15h12.54A6.69,6.69,0,0,0,639.26,95Z"/><path class="cls-1" d="M747,89.56v5.81a10.06,10.06,0,0,0-5-1.24H720.77v80.48a8.1,8.1,0,0,0,1.49,4.15H709.88a8.1,8.1,0,0,0,1.49-4.15V94.13H690.25a10.06,10.06,0,0,0-5,1.24V89.56a10,10,0,0,0,5,1.25h51.81A10,10,0,0,0,747,89.56Z"/><path class="cls-1" d="M849.31,178.76h-12a7.12,7.12,0,0,0,0-4.15L827.2,146.26H791.72l-10.23,28.35a6.31,6.31,0,0,0,.16,4.15h-6.6a20,20,0,0,0,2.64-4.15l28.38-79.79a5.79,5.79,0,0,0-.16-4h12.54a5.75,5.75,0,0,0,0,4.15l28.38,79.65A16.2,16.2,0,0,0,849.31,178.76ZM826,142.94l-16.67-46.6-16.5,46.6Z"/><path class="cls-1" d="M928.17,110.44a5.26,5.26,0,0,0,1.32-3.31c-1.32-13-10.23-13-14.52-13-2,0-9.73-.28-13.2,5.94-7.76,14,13,29,13,29,5,4.29,36.46,28.76,18.31,44.25-5.11,4.15-11.22,5.4-18.31,5.4-16.51,0-22.61-8-24.1-15.91a9.33,9.33,0,0,0-1.81-3.73h12.37a5.26,5.26,0,0,0-1.32,3.32c1.32,13,12.38,13,15,13,.5,0,9.24.41,12.71-5.95,7.75-14-13-28.9-13-28.9-4.95-4.42-36.47-28.76-18.32-44.39,5.29-4,11.23-5.39,18.32-5.39,16.67,0,22.44,7.74,24.09,15.49a8.39,8.39,0,0,0,1.82,4.14Z"/><path class="cls-2" d="M355.78,232.45a1.89,1.89,0,0,1-.09,1.23c-1.36,3.2-3.35,5.11-5.34,5.11-3.62,0-6.81-6.27-6.81-13.43s3.19-13.44,6.81-13.44c2.07,0,4,1.89,5.38,5.18a1.66,1.66,0,0,1,.06,1.13l-.48,1.13,5.26-2.61-1-.37a2.05,2.05,0,0,1-.86-.89c-2.08-3.57-5.12-5.61-8.33-5.61-6,0-10.81,6.94-10.81,15.48s4.85,15.47,10.81,15.47c3.32,0,6.68-2.77,8.28-5.52a2.26,2.26,0,0,1,.92-1l1-.37-5.14-2.54Z"/><path class="cls-2" d="M395.16,238.73l-9-27.21a1.65,1.65,0,0,1,0-1.09l.29-.65h-5.38l.29.64a1.65,1.65,0,0,1,0,1l-9,27.23a6.66,6.66,0,0,1-.78,1.31l-.58.73h3.71l-.27-.64a1.87,1.87,0,0,1,0-1.09l3.13-9.37h10.59l3.07,9.34a2.27,2.27,0,0,1,0,1.15l-.23.61h5.4l-.58-.73A5.68,5.68,0,0,1,395.16,238.73Zm-7.65-11.13h-9.25l4.6-14Z"/><path class="cls-2" d="M429.78,210.52l.61-.74h-4.1l.59.73a2,2,0,0,1,.37,1.14v21.52l-15.37-22.05a1.83,1.83,0,0,1,.28-.6l.62-.75h-4.1l.59.73a2,2,0,0,1,.37,1.14v27.21a2,2,0,0,1-.37,1.13l-.62.74h4.11l-.6-.74a2,2,0,0,1-.36-1.13v-22L427.25,239a2,2,0,0,1-.37,1l-.61.74h4.12l-.62-.74a2,2,0,0,1-.36-1.13V211.66A2,2,0,0,1,429.78,210.52Z"/><path class="cls-2" d="M459.26,232.45a1.86,1.86,0,0,1-.1,1.23c-1.35,3.2-3.34,5.11-5.33,5.11-3.62,0-6.81-6.27-6.81-13.43s3.19-13.44,6.81-13.44c2.07,0,4,1.89,5.38,5.18a1.66,1.66,0,0,1,.06,1.13l-.48,1.13,5.26-2.61-1-.37a2.05,2.05,0,0,1-.86-.89c-2.08-3.57-5.12-5.61-8.34-5.61-5.95,0-10.8,6.94-10.8,15.48s4.85,15.47,10.8,15.47c3.33,0,6.69-2.77,8.29-5.52a2.2,2.2,0,0,1,.92-1l1-.37-5.14-2.54Z"/><path class="cls-2" d="M492,211.82a2.68,2.68,0,0,1,1.32.35l.7.48V209l-.7.47a2.68,2.68,0,0,1-1.32.34H476.09l.6.73a2.07,2.07,0,0,1,.36,1.14v27.21a2,2,0,0,1-.36,1.13l-.62.74H492a2.63,2.63,0,0,1,1.32.35l.7.48v-3.68l-.7.46a2.63,2.63,0,0,1-1.32.35H481V226.05h7.49a2.73,2.73,0,0,1,1.32.34l.7.48v-3.68l-.7.47a2.68,2.68,0,0,1-1.32.35H481V211.82Z"/><path class="cls-2" d="M524.63,238.66l-6.56-12.82c4.24-1.68,6.56-4.68,6.56-8.47a7,7,0,0,0-1.93-5.14c-1.66-1.65-4.34-2.52-7.92-2.45h-8.06l.59.73a2,2,0,0,1,.37,1.14v27.21a2,2,0,0,1-.37,1.13l-.61.74h5.88L512,240a2,2,0,0,1-.36-1.13V227.16a26.11,26.11,0,0,0,2.7-.3l6.48,12.22a2.12,2.12,0,0,1,.27,1.13l-.09.53h5.46l-.8-.78A6.79,6.79,0,0,1,524.63,238.66Zm-3.94-21.29c0,5-3,7.52-9.07,7.76V211.82h2.21C518.38,211.82,520.69,212.68,520.69,217.37Z"/><path class="cls-2" d="M583.9,232.45a1.89,1.89,0,0,1-.09,1.23c-1.35,3.2-3.35,5.11-5.33,5.11-3.63,0-6.82-6.27-6.82-13.43s3.19-13.44,6.82-13.44c2.06,0,4,1.89,5.37,5.18a1.66,1.66,0,0,1,.06,1.13l-.48,1.13,5.26-2.61-1-.37a2.05,2.05,0,0,1-.86-.89c-2.08-3.57-5.12-5.61-8.33-5.61-6,0-10.8,6.94-10.8,15.48s4.84,15.47,10.8,15.47c3.32,0,6.68-2.77,8.29-5.52a2.21,2.21,0,0,1,.91-1l1-.37-5.14-2.54Z"/><path class="cls-2" d="M623.28,238.73l-9-27.21a1.65,1.65,0,0,1,0-1.09l.29-.65h-5.38l.3.64a1.69,1.69,0,0,1,0,1l-9,27.23a6.88,6.88,0,0,1-.77,1.31l-.58.73h3.71l-.27-.64a1.83,1.83,0,0,1,0-1.09l3.14-9.37H616.3l3.08,9.34a2.19,2.19,0,0,1,0,1.15l-.22.61h5.39L624,240A5.14,5.14,0,0,1,623.28,238.73Zm-7.64-11.13h-9.26l4.61-14Z"/><path class="cls-2" d="M654.71,238.66l-6.56-12.82c4.24-1.68,6.56-4.67,6.56-8.47a7,7,0,0,0-1.93-5.14c-1.64-1.62-4.25-2.45-7.76-2.45H636.8l.59.73a2,2,0,0,1,.37,1.14v27.21a2,2,0,0,1-.37,1.13l-.61.74h5.88l-.6-.74a2,2,0,0,1-.36-1.13V227.16a26.11,26.11,0,0,0,2.7-.3l6.48,12.22a2.12,2.12,0,0,1,.27,1.13l-.09.53h5.46l-.8-.78A6.38,6.38,0,0,1,654.71,238.66Zm-3.94-21.29c0,5-3,7.52-9.07,7.76V211.82h2.21C648.46,211.82,650.77,212.68,650.77,217.37Z"/><path class="cls-2" d="M685.78,238.35a2.63,2.63,0,0,1-1.32.35h-11V226.05H681a2.73,2.73,0,0,1,1.32.34l.7.48v-3.68l-.7.47A2.68,2.68,0,0,1,681,224h-7.49V211.82h11a2.63,2.63,0,0,1,1.32.35l.71.48V209l-.7.47a2.68,2.68,0,0,1-1.32.34H668.57l.6.73a2.07,2.07,0,0,1,.36,1.14v27.21a2,2,0,0,1-.36,1.13l-.62.74h15.91a2.63,2.63,0,0,1,1.32.35l.71.47v-3.67Z"/><path class="cls-2" d="M232.53,98.92c.13-7.6,3.9-13.9,10.89-16.28,5.85-2,11.1-.59,15.41,3.85,4.09,4.22,5,9.41,4.24,15.2-3.08-6-7.67-9.84-14.44-10.45S236.63,93.54,232.53,98.92Z"/><path class="cls-2" d="M258,145.85,254.94,141c-4.44-7-8.93-13.94-13.31-21-2.61-4.19-5.08-8.46-7.52-12.75a8.88,8.88,0,0,1-1.45-5.42,5.73,5.73,0,0,1,.7-2.15A16.34,16.34,0,0,1,240,93.84c.1.42.18.84.28,1.24a41,41,0,0,0,3.83,9.09c3.11,5.83,6.81,11.3,10.39,16.84q4.86,7.51,9.78,15a.72.72,0,0,1,0,1q-2.94,4.17-5.84,8.38C258.32,145.5,258.2,145.64,258,145.85Z"/><path class="cls-2" d="M239,117.88l5.7,9.08-15.1,16.42L224.83,133Q231.93,125.42,239,117.88Z"/><path class="cls-2" d="M253.43,117.45l-5.73-9c3.39-4.14,6.87-8.12,8.91-13.15a17.16,17.16,0,0,1,5.27,6.42,5.1,5.1,0,0,1,.12,4.49,13.78,13.78,0,0,1-1.63,3C258.14,112,255.81,114.64,253.43,117.45Z"/><path class="cls-1" d="M245.05,131.16l-9.58,10.44c-11.3,46.11-39.72,95-105.54,124.86L133.75,25c15.52,12.1,47,30.52,86.82,30.52a122.1,122.1,0,0,0,20.26-1.63c.71,7.57,1.27,16.32,1.36,25.9l.24-.1a16.59,16.59,0,0,1,13.83,1,290.67,290.67,0,0,0-1.32-29.57c-.25-2.55-.46-5-.83-7.2l-.8-7.12-6.87,1.51c-1.3.37-2.47.59-3.64.83s-2.43.34-3.6.59C177,49.49,134.92,7.08,133.17,5.24l-5-5.24s-4.44,4.19-10.5,9.67C85.65,38.31,25.65,43,2.8,37.85c9.8,4.1,63.26,20,119.77-14.11l.46,28c-1.5,1.41-3.26,2.92-5.69,5C107.88,64.3,93,75.73,77,81.89c-2.43,1-4.89,1.63-7.33,2.46-1.29.47-2.46.8-3.72,1.14l-3.85.83A121.57,121.57,0,0,1,31,89.59,124.24,124.24,0,0,1,2.09,85.4a282.23,282.23,0,0,1,.84-40.78A284,284,0,0,0,0,84.35v1.14c.12,9.46.46,19,1.42,28.46.67,5.7,1.51,11.39,2.55,17,0,0,.34,2.43.46,2.68A211.85,211.85,0,0,0,19,180.69a13.89,13.89,0,0,0,1.17,2.46A181.74,181.74,0,0,0,47.43,225.9a62.68,62.68,0,0,0,4.65,5.35c2.46,2.81,5.14,5.61,7.82,8.17a185.44,185.44,0,0,0,25.62,21.09c14.94,10.2,42.53,22.48,42.53,22.48l6.66-3c56.72-25.29,91.43-66.65,109.73-123,2-6.25,3.75-12.5,5.17-18.66l-1.17-1.82C247.3,134.77,246.19,133,245.05,131.16ZM5,113.46a235.19,235.19,0,0,1-2.8-25.75v-.22c-.13-.58,0-1.17-.13-1.75a131.07,131.07,0,0,0,28.68,7.45,132.69,132.69,0,0,0,32.61.25l4.1-.46c1.38-.25,2.68-.5,4.06-.71,2.68-.59,5.48-1,8.16-1.76,7.12-1.85,24.12-8.37,38.1-16.66l5.48-3.6.46,25.5-6.4,5.94-1.51,1.3L110,107.88c-5.61,4.31-14.35,11.43-33,19.1-2.43,1-4.89,1.51-7.33,2.34-1.29.46-2.46.8-3.72,1.17l-3.85.8A119,119,0,0,1,31,134.55a127.88,127.88,0,0,1-22.14-2.43C7.36,125.93,6.07,119.77,5,113.46ZM26.33,179.3a2.94,2.94,0,0,1-.46-.92,204.53,204.53,0,0,1-16.29-43,4,4,0,0,1-.25-1.17c-.12-.37-.12-.58-.24-.92h.12a125.13,125.13,0,0,0,21.56,4.87,131.24,131.24,0,0,0,32.61.24l4.1-.46,4.06-.71c2.68-.58,5.48-.92,8.16-1.75a133.14,133.14,0,0,0,23.41-8.5l7.48-3.85a52.63,52.63,0,0,0,7.21-4.31l6.28-4.07.37,25.41-7.11,6.62-1.51,1.29L110,152.85c-5.15,4.55-19,12.71-19,12.71-4.44,2.56-9.21,4.29-14,6.41-2.43.92-4.89,1.51-7.33,2.31-1.29.46-2.46.83-3.72,1.17l-3.85.83A120.24,120.24,0,0,1,31,179.52c-1.29,0-2.68-.1-4-.1C26.79,179.42,26.58,179.3,26.33,179.3Zm32.52,42.75c-.37.12-.83.12-1.29.24a180.4,180.4,0,0,1-28.18-37.38c-.46-.71-.83-1.42-1.29-2.22a2.9,2.9,0,0,0,.83.09l1.85.37a132.7,132.7,0,0,0,32.61.22l4.1-.47c1.38-.21,2.68-.46,4.06-.7,2.68-.56,5.48-.93,8.16-1.73,19.59-5.36,29.35-11.09,38.1-16.66l7-4.56.34,25.16-7.79,7.36-7.33,6a48.6,48.6,0,0,1-6.07,4.68l-6.28,4.19-3.27,2A161.48,161.48,0,0,1,77,216.93c-2.43.93-4.89,1.51-7.33,2.44-1.29.37-2.46.71-3.72,1l-3.85,1C61.07,221.58,60,221.83,58.85,222.05ZM94.27,251.3a193.8,193.8,0,0,1-27-19.8c-.46-.46-1-.83-1.51-1.29s-1.29-1.26-2-1.85l1.63-.12,2.1-.25c1.38-.22,2.68-.58,4.06-.8,2.68-.59,5.48-.92,8.16-1.76a126.19,126.19,0,0,0,15.74-5.11l7.67-3.26,7.48-4a58.19,58.19,0,0,0,7.21-4.31l7.11-4.65.59-.37.34,25.07L96.36,252.6C95.66,252.1,95,251.77,94.27,251.3Zm16.88,8.84c-.8-.34-1.51-.8-2.31-1.14l17.34-10.62.24,18.2C123.62,265.5,117.8,263.19,111.15,260.14Z"/></g></g></svg>