<svg xmlns="http://www.w3.org/2000/svg" viewBox="0 0 117.39 93.15"><defs><style>.cls-1{fill:#bb9d5a;}</style></defs><g id="Layer_2" data-name="Layer 2"><g id="Layer_1-2" data-name="Layer 1"><path class="cls-1" d="M57.4,0,32,44.22A25.48,25.48,0,0,1,48.93,68.69,24.29,24.29,0,0,1,24.46,93.15C11.29,93.15,0,81.86,0,67.75c0-8.47,3.76-15.06,9.41-23.53L38.58,0Zm51.52,68.69A24.29,24.29,0,0,1,84.46,93.15C71.28,93.15,60,81.86,60,67.75c0-8.47,3.77-15.06,9.41-23.53L98.57,0h18.82L92,44.22A25.48,25.48,0,0,1,108.92,68.69Z"/></g></g></svg>