<svg xmlns="http://www.w3.org/2000/svg" viewBox="0 0 29.71 29.71"><defs><style>.cls-1{fill:#b5975a;}</style></defs><g id="Layer_2" data-name="Layer 2"><g id="Layer_1-2" data-name="Layer 1"><path class="cls-1" d="M24.72,29.71H5a.5.5,0,0,0-.13,0A5.61,5.61,0,0,1,0,24.13C0,18,0,11.77,0,5.59A5.1,5.1,0,0,1,.48,3.31,5.48,5.48,0,0,1,5.67,0H20.29c1.35,0,2.69,0,4,0a5.53,5.53,0,0,1,5.22,4.22c.07.25.11.5.17.76V24.72a1.52,1.52,0,0,0-.06.2,5.57,5.57,0,0,1-4.17,4.63Zm-.54-21.9c-.63.25-1.25.5-1.87.73a1,1,0,0,1-1.1-.19,3.77,3.77,0,0,0-4.31-.5,3.83,3.83,0,0,0-2.28,3.71c0,.28,0,.56.05.87A11.72,11.72,0,0,1,6.31,8.19a4.19,4.19,0,0,0-.48,2.91,3.82,3.82,0,0,0,1.6,2.45l-.07.1L5.6,13.17a3.31,3.31,0,0,0,.49,1.9,4.18,4.18,0,0,0,2.69,2l0,.1H7.17A4.21,4.21,0,0,0,10.94,20,8.16,8.16,0,0,1,5,21.72l.11.1A11.24,11.24,0,0,0,8.08,23.1a11.93,11.93,0,0,0,4.83.3A10.47,10.47,0,0,0,18.49,21a11.75,11.75,0,0,0,4.26-9.33.58.58,0,0,1,.17-.36c.27-.26.58-.48.84-.75s.62-.72,1-1.14L22.62,10l0-.1A4,4,0,0,0,24.18,7.81Z"/></g></g></svg>