<svg id="Layer_1" data-name="Layer 1" xmlns="http://www.w3.org/2000/svg" viewBox="0 0 1200 1200"><defs><style>.cls-1{fill:#bb9c58;}.cls-2{fill:#50715f;}</style></defs><path class="cls-1" d="M826.29,503.94c.3-17.15,8.81-31.36,24.56-36.73,13.2-4.5,25.06-1.33,34.77,8.69,9.23,9.52,11.37,21.23,9.56,34.3-6.93-13.61-17.3-22.21-32.58-23.59S835.54,491.81,826.29,503.94Z"/><path class="cls-1" d="M883.83,609.82l-7-11c-10-15.77-20.16-31.46-30-47.32-5.89-9.45-11.47-19.1-17-28.78-2.11-3.71-3.77-7.77-3.26-12.22a12.78,12.78,0,0,1,1.58-4.84c2.91-5.08,9.45-10.74,15-13.23.21.95.39,1.89.63,2.8,1.86,7.27,5.13,13.94,8.64,20.51,7,13.15,15.35,25.5,23.43,38q11,17,22.07,33.81a1.61,1.61,0,0,1,0,2.18c-4.43,6.28-8.8,12.6-13.19,18.91C884.48,609,884.2,609.36,883.83,609.82Z"/><path class="cls-1" d="M841,546.73l12.86,20.48-34.07,37-10.85-23.53Z"/><path class="cls-1" d="M873.44,545.75l-12.93-20.31c7.65-9.34,15.51-18.33,20.11-29.67a39.06,39.06,0,0,1,11.9,14.49,11.52,11.52,0,0,1,.26,10.13,31.08,31.08,0,0,1-3.68,6.7C884.07,533.34,878.8,539.4,873.44,545.75Z"/><path class="cls-2" d="M854.54,576.69l-21.61,23.55c-25.5,104-89.63,214.43-238.12,281.69l8.62-544.68c35,27.31,106,68.86,195.87,68.86A274.56,274.56,0,0,0,845,402.42c1.6,17.1,2.85,36.83,3.06,58.44.21-.07.35-.14.55-.21,11.19-3.82,21.75-3.06,31.2,2.16a652.48,652.48,0,0,0-3-66.71c-.55-5.77-1-11.25-1.87-16.26l-1.81-16-15.49,3.41c-2.92.83-5.56,1.32-8.2,1.87-2.85.49-5.49.77-8.13,1.32-140.36,22-235.27-73.65-239.23-77.82l-11.26-11.81s-10,9.45-23.69,21.82C494.9,367.2,359.54,377.76,308,366.15c22.09,9.25,142.72,45.24,270.22-31.82l1,63.09c-3.41,3.2-7.37,6.6-12.86,11.33-21.33,17.09-55,42.87-90.95,56.77-5.49,2.36-11.05,3.68-16.54,5.55-2.91,1.05-5.55,1.81-8.4,2.57l-8.69,1.88a274.62,274.62,0,0,1-70.18,7.37,280.87,280.87,0,0,1-65.24-9.45,637.24,637.24,0,0,1,1.87-92,645.86,645.86,0,0,0-6.6,89.63v2.57c.28,21.34,1,42.88,3.2,64.21,1.53,12.85,3.4,25.71,5.77,38.35,0,0,.76,5.49,1,6a477,477,0,0,0,32.86,106.17,30.77,30.77,0,0,0,2.65,5.56,409.84,409.84,0,0,0,61.49,96.44,140.92,140.92,0,0,0,10.49,12.09c5.56,6.32,11.6,12.64,17.65,18.41a417.12,417.12,0,0,0,57.81,47.6c33.7,23,96,50.72,96,50.72l15-6.81c128-57,206.3-150.36,247.57-277.38,4.59-14.1,8.48-28.21,11.67-42.1l-2.64-4.1C859.61,584.82,857.11,580.72,854.54,576.69ZM313,536.74a532.92,532.92,0,0,1-6.32-58.09v-.49c-.28-1.32,0-2.64-.28-4A296.37,296.37,0,0,0,371.08,491a299.76,299.76,0,0,0,73.58.55l9.24-1c3.13-.56,6.05-1.11,9.17-1.6,6.05-1.32,12.37-2.36,18.42-4,16.05-4.17,54.4-18.9,86-37.59l12.36-8.13,1.05,57.53-14.46,13.41-3.4,2.92-13.13,11c-12.65,9.73-32.38,25.78-74.42,43.08-5.49,2.15-11.05,3.4-16.54,5.28-2.91,1-5.55,1.81-8.4,2.64L441.81,577a268.51,268.51,0,0,1-70.18,7.36,289,289,0,0,1-50-5.49C318.27,564.88,315.35,551,313,536.74Zm48.08,148.55a6.76,6.76,0,0,1-1-2.08,461.79,461.79,0,0,1-36.76-97,9.81,9.81,0,0,1-.55-2.64c-.28-.84-.28-1.32-.56-2.09h.28a281.54,281.54,0,0,0,48.64,11,295.87,295.87,0,0,0,73.58.56l9.24-1,9.17-1.59c6.05-1.32,12.37-2.09,18.42-4,27.58-6.81,52.8-19.18,52.8-19.18l16.89-8.69c5.76-2.57,11-6.25,16.26-9.72l14.17-9.18.83,57.33-16.05,14.94-3.4,2.91L549.86,625.6C538.25,635.89,507,654.3,507,654.3c-10,5.77-20.78,9.66-31.55,14.45-5.49,2.09-11.05,3.41-16.54,5.21-2.91,1-5.55,1.88-8.4,2.65l-8.69,1.87a271.51,271.51,0,0,1-70.18,7.3c-2.91,0-6-.21-9-.21C362.11,685.57,361.63,685.29,361.07,685.29Zm73.38,96.44c-.84.28-1.88.28-2.92.56-24.46-25.22-46.28-53.36-63.58-84.35-1-1.6-1.88-3.2-2.92-5a6.42,6.42,0,0,0,1.88.21c1.25.28,2.85.56,4.17.84a299.77,299.77,0,0,0,73.58.48l9.24-1c3.13-.49,6.05-1,9.17-1.6,6.05-1.25,12.37-2.08,18.42-3.89,44.19-12.09,66.21-25,86-37.59l15.77-10.28.76,56.76-17.58,16.61-16.53,13.62c-4.52,3.68-8.69,7.64-13.69,10.56L522,747.06l-7.36,4.45s-20.78,11.6-39.19,18.69c-5.49,2.08-11.05,3.4-16.54,5.49-2.91.83-5.55,1.6-8.4,2.36l-8.69,2.15C439.45,780.69,437.09,781.25,434.45,781.73Zm79.9,66a436.19,436.19,0,0,1-61-44.68c-1.05-1-2.37-1.87-3.41-2.91-1.32-1.32-2.92-2.85-4.45-4.17l3.69-.28,4.72-.56c3.13-.48,6.05-1.32,9.17-1.8,6.05-1.32,12.37-2.09,18.42-4,11.81-3.41,24.18-6.6,35.5-11.54l17.3-7.36,16.89-9c5.76-2.64,11-6.32,16.26-9.72l16-10.5,1.32-.83.76,56.56-66.49,53.64C517.48,849.55,516,848.78,514.35,847.74Zm38.08,19.94c-1.81-.76-3.41-1.8-5.21-2.57l39.12-24,.55,41.07C580.57,879.77,567.44,874.56,552.43,867.68Z"/></svg>