<svg xmlns="http://www.w3.org/2000/svg" viewBox="0 0 29.81 29.81"><defs><style>.cls-1{fill:#b5975a;}</style></defs><g id="Layer_2" data-name="Layer 2"><g id="Layer_1-2" data-name="Layer 1"><path class="cls-1" d="M29.81,6.87V22.94c0,.2-.08.4-.11.6A7.32,7.32,0,0,1,25,29.28a15,15,0,0,1-2.1.53H6.87a16,16,0,0,1-1.67-.36A7.45,7.45,0,0,1,0,22.31c0-4.93,0-9.85,0-14.78A7.17,7.17,0,0,1,1,3.78,7.34,7.34,0,0,1,7.67,0H22a9.21,9.21,0,0,1,1.57.11,7.26,7.26,0,0,1,5.71,4.62A15.12,15.12,0,0,1,29.81,6.87ZM14.91,8c-2.19.09-4.37.17-6.55.27a2.46,2.46,0,0,0-1.76.78,3.17,3.17,0,0,0-.77,2.06c-.07,2-.11,3.92-.11,5.87A14.54,14.54,0,0,0,6,19.44a2.25,2.25,0,0,0,2,2c.56.07,1.13.13,1.7.16a104.92,104.92,0,0,0,11.63-.06,2.57,2.57,0,0,0,1.89-.78A3.22,3.22,0,0,0,24,18.7c.07-2,.11-3.91.11-5.87a13.58,13.58,0,0,0-.24-2.46,2.39,2.39,0,0,0-2.41-2.1Z" transform="translate(0 0)"/><path class="cls-1" d="M13,12l5,2.74-5,2.69Z" transform="translate(0 0)"/></g></g></svg>