<?xml version="1.0" encoding="UTF-8"?>
<svg id="Layer_2" data-name="Layer 2" xmlns="http://www.w3.org/2000/svg" viewBox="0 0 90 88.45">
  <defs>
    <style>
      .cls-1 {
        fill: #bb9d5a;
      }
    </style>
  </defs>
  <g id="Layer_1-2" data-name="Layer 1">
    <path class="cls-1" d="M90,62.64v3.86c-.13,.8-.22,1.61-.4,2.41-2.09,9.46-7.69,15.93-17.03,18.54-9.42,2.64-17.61,.02-24.33-7.09-.33-.35-.65-.72-.98-1.1-3.84,2.55-7.62,5.05-11.37,7.59-.56,.38-.93,.33-1.46-.02-4.93-3.31-9.9-6.56-14.81-9.88C9.27,69.95,2.93,60.34,.66,48.08c-.28-1.51-.44-3.05-.66-4.57V17.37C11.43,11.66,22.87,5.96,34.29,.24c.65-.32,1.13-.31,1.77,0,11.14,5.59,22.29,11.15,33.45,16.69,.61,.3,.83,.63,.83,1.32-.03,7.34-.01,14.68-.03,22.01,0,.59,.13,.83,.76,.99,9.02,2.15,15.02,7.62,17.89,16.43,.52,1.59,.71,3.29,1.05,4.95M28.03,44.16c.28-1.29,.18-2.36-1.13-2.99-.39-.19-.76-.47-1.04-.79-.26-.29-.53-.7-.53-1.07-.04-2.95-.02-5.91-.02-8.86v-1.02h-2.81c0-.65-.02-1.21,0-1.76,.16-3.7,1.87-6.5,5.31-7.89,3.85-1.55,7.85-1.78,11.83-.27,.26,.1,.57,.12,.85,.13,2.81,.05,4.51,1.76,4.51,4.59,0,4.62-.06,9.24,.03,13.86,.03,1.4-.24,2.43-1.55,3.05-1.31,.62-1.54,1.68-1.19,3.05,2.67,.67,5.38,1.36,8.11,2,.26,.06,.63-.17,.91-.33,1.92-1.11,3.77-2.35,5.76-3.31,1.48-.71,3.15-1.05,4.77-1.57,0-.06,.04-.17,.04-.29,0-5.85,0-11.69,.02-17.54,0-.59-.34-.72-.73-.92-8.42-4.2-16.85-8.4-25.26-12.62-.52-.26-.92-.27-1.45,0-8.42,4.22-16.84,8.42-25.28,12.61-.54,.27-.75,.56-.75,1.18,.03,5.79,0,11.58,.02,17.37,.02,5.47,1.27,10.65,3.7,15.54,.12,.24,.27,.46,.52,.88,0-1.35,0-2.46,0-3.57,.02-3.38,2.1-6.07,5.38-6.92,3.34-.86,6.68-1.68,9.99-2.51m38.07-.66c-11.63,0-21.07,9.39-21.1,20.99-.03,11.64,9.43,21.12,21.07,21.12,11.64,0,21.12-9.47,21.11-21.09-.01-11.59-9.46-21.01-21.08-21.01m-46.67,22.73c.09-.05,.19-.1,.28-.15v-9.89h2.78c0,3.8,.03,7.54-.02,11.28-.01,.88,.23,1.43,.98,1.92,3.75,2.45,7.46,4.95,11.17,7.45,.42,.29,.7,.23,1.09-.03,2.18-1.47,4.36-2.95,6.58-4.36,.74-.47,.95-.88,.71-1.8-1.98-7.87-.37-14.98,4.71-21.31,.18-.22,.36-.44,.61-.75-2.13-.53-4.15-1.03-6.2-1.55-.57,3.32-2.46,5.32-5.61,6.2v5.64h-2.79v-5.67c-3.18-.88-5.02-2.92-5.59-6.17-3.09,.77-6.12,1.52-9.15,2.28-.28,.07-.57,.15-.84,.25-1.64,.63-2.68,2.14-2.7,3.95-.02,2.51-.01,5.03,0,7.54,0,.28,.03,.62,.2,.81,1.23,1.47,2.5,2.91,3.76,4.36m48.03-25.53c.02-.2,.03-.34,.03-.48,0-6.84,0-13.68,.02-20.52,0-.58-.3-.74-.71-.94-10.33-5.15-20.67-10.31-30.99-15.48-.47-.23-.82-.25-1.29,0C24.2,8.44,13.87,13.59,3.53,18.73c-.56,.28-.74,.59-.73,1.19,.02,6.93,0,13.86,.03,20.79,0,1.63,.1,3.28,.32,4.89,1.51,11.47,6.86,20.78,16.17,27.65,4.96,3.66,10.23,6.9,15.35,10.36,.44,.3,.72,.17,1.08-.07,3.09-2.07,6.19-4.12,9.28-6.18,.21-.14,.4-.31,.61-.48-.43-.81-.84-1.58-1.29-2.41-.28,.17-.53,.31-.77,.47-2.61,1.73-5.22,3.45-7.81,5.21-.47,.32-.78,.3-1.23,0-4.08-2.74-8.23-5.37-12.25-8.2-10.86-7.63-16.43-18.13-16.65-31.38-.1-6.28,0-12.57-.03-18.86,0-.63,.16-.97,.76-1.27,9.38-4.65,18.74-9.32,28.1-14.01,.49-.25,.86-.27,1.37-.02,9.35,4.69,18.72,9.37,28.09,14.02,.59,.29,.78,.61,.77,1.26-.03,6.02-.02,12.04-.02,18.07v.94h2.78ZM28.13,29.35c0,3.1-.01,5.99,.02,8.87,0,.23,.22,.52,.43,.68,1.25,.97,2.51,1.92,3.79,2.83,.28,.2,.68,.3,1.03,.35,2.78,.41,5.23-.24,7.23-2.32,.3-.31,.74-.49,1.03-.81,.24-.27,.5-.65,.51-.99,.04-1.75,.4-3.63-.12-5.22-.51-1.55-1.97-2.78-2.97-4.19-.36-.52-.7-.5-1.25-.33-1.36,.43-2.73,.92-4.13,1.07-1.79,.18-3.62,.04-5.56,.04m-2.67-2.79c2.69,0,5.32,.07,7.94-.03,1.03-.04,2.08-.36,3.04-.77,.98-.42,1.95-.61,2.97-.48,.38,.05,.81,.26,1.07,.54,.57,.63,1.04,1.34,1.55,2.02,.16-1.39,.19-2.7,.15-4.01-.03-.81-.51-1.3-1.33-1.36-1.04-.08-2.02-.21-3.06-.55-3.13-1.01-6.31-.68-9.31,.7-1.67,.77-2.64,2.13-3.01,3.95m5.5,18.04c0,.57-.06,1.36,.01,2.14,.18,2.01,1.87,3.62,3.89,3.76,1.99,.14,3.89-1.15,4.33-3.1,.22-.97,.17-2,.24-2.88-2.87,.6-5.61,.53-8.47,.08"/>
    <rect class="cls-1" x="73.19" y="25.14" width="16.81" height="1.52"/>
    <rect class="cls-1" x="73.2" y="29.53" width="11.14" height="2.7"/>
    <rect class="cls-1" x="73.17" y="35.13" width="5.51" height="2.7"/>
    <path class="cls-1" d="M60.94,79.26c-4.24-4.23-8.51-8.5-12.75-12.73,2.55-2.54,5.17-5.16,7.81-7.8,1.57,1.58,3.2,3.2,4.87,4.87,4.69-4.68,9.3-9.29,13.87-13.86,2.66,2.67,5.28,5.3,7.86,7.88-7.19,7.18-14.45,14.43-21.66,21.62m0-3.97c5.86-5.85,11.8-11.78,17.62-17.59-1.26-1.26-2.57-2.56-4.02-4-4.52,4.51-9.12,9.1-13.77,13.75-1.57-1.57-3.17-3.19-4.74-4.76-1.32,1.32-2.61,2.62-3.85,3.87,2.89,2.88,5.84,5.83,8.75,8.73"/>
  </g>
</svg>