<?xml version="1.0" encoding="UTF-8"?>
<svg id="Layer_2" data-name="Layer 2" xmlns="http://www.w3.org/2000/svg" viewBox="0 0 84.57 84.57">
  <defs>
    <style>
      .cls-1 {
        fill: #bb9d5a;
      }
    </style>
  </defs>
  <g id="Layer_1-2" data-name="Layer 1">
    <path class="cls-1" d="M0,70.87c.14-.59,.25-1.18,.41-1.76,1.28-4.7,5.24-8.12,10.05-8.69,.33-.04,.65-.08,1.09-.14,0-.89,.02-1.78-.02-2.68,0-.2-.25-.39-.38-.58-.77-1.06-1.53-2.12-2.3-3.19-.16-.22-.29-.49-.5-.62-5.01-3.11-6.35-9.04-4.08-14.55,2.33-5.66,8.35-9.27,14.19-8.55,6.6,.81,11.55,5.53,12.44,11.9,.65,4.69-.92,8.43-4.87,11.12-.25,.17-.44,.46-.62,.72-.7,.98-1.31,2.03-2.1,2.93-.41,.48-.65,.89-.61,1.51,.04,.63,0,1.26,0,1.95,5.74,.58,9.51,3.58,11.26,9.1,.76,0,1.53,0,2.3,0,.16,0,.32-.02,.58-.04,0-.74,.05-1.46-.03-2.15-.03-.26-.34-.53-.58-.71-4.97-3.66-5.72-10.62-1.61-15.2,3.97-4.43,10.9-4.57,15-.3,4.22,4.38,3.86,11.39-.93,15.11-1.26,.98-.97,2.02-1,3.24h2.87c1.74-5.44,5.47-8.44,11.24-9.03,0-.89,.12-1.78-.05-2.62-.08-.38-.69-.81-1.14-.92-.65-.16-1.37-.03-2.05-.05-2.95-.09-5.38-2.43-5.4-5.37-.02-3.08-.17-6.19,.21-9.23,.86-6.91,7.45-12.23,14.42-11.93,7.89,.34,13.81,6.45,13.9,14.35,.02,2.12,.02,4.24,0,6.36-.04,3.47-2.43,5.82-5.91,5.83-.52,0-1.05-.01-1.57,0-.74,.02-1.22,.5-1.23,1.22,0,.77,0,1.54,0,2.34,.77,.12,1.5,.21,2.21,.36,5.33,1.12,9.27,5.89,9.34,11.33,.04,2.67,.01,5.34,0,8.01,0,.89-.39,1.36-1.09,1.35-.69,0-1.06-.46-1.07-1.36,0-2.51,0-5.01,0-7.52-.02-5.34-3.78-9.44-9.1-9.93-.52-.05-.83,.06-1.13,.55-2.22,3.63-7.27,3.63-9.54,.04-.16-.25-.5-.56-.76-.57-4.05-.14-8.33,3.35-9.11,7.42,.22,.12,.46,.26,.69,.39,2.62,1.51,4.03,3.78,4.15,6.78,.08,2.03,.03,4.07,.02,6.11,0,.85-.44,1.37-1.1,1.36-.67-.01-1.05-.49-1.05-1.39,0-1.95,.03-3.91-.01-5.86-.06-2.98-2.13-5.34-5.02-5.7-.46,2.44-1.62,4.46-3.74,5.85-1.45,.95-3.04,1.38-4.77,1.32-3.8-.13-6.4-2.5-7.85-7.14-2.74,.19-4.94,2.69-4.98,5.71-.03,1.93,0,3.85,0,5.78,0,.94-.4,1.45-1.09,1.43-.66-.01-1.06-.53-1.07-1.4,0-2.01-.06-4.02,.01-6.03,.11-3.01,1.5-5.29,4.11-6.81,.23-.14,.48-.26,.79-.42-.86-3.13-2.72-5.39-5.69-6.63-1.02-.43-2.17-.54-3.27-.79-.46-.11-.72,.11-.97,.52-2.26,3.68-7.31,3.67-9.56-.02-.28-.46-.57-.56-1.06-.52-5.3,.45-9.12,4.58-9.14,9.89,0,2.48,0,4.96,0,7.43,0,.61-.04,1.19-.71,1.43-.65,.23-1.1-.11-1.45-.63v-9.75Zm75.4-16.4c2.4,.21,4.07-1.15,4.12-3.38,.06-2.56,.1-5.13-.07-7.68-.37-5.76-5.18-10.62-10.77-11.04-6.26-.47-11.7,3.32-13.01,9.2-.75,3.33-.39,6.75-.27,10.12,.07,1.89,2.19,3.18,3.75,2.76-.25-1.35-.65-2.69-.71-4.03-.12-2.44-.05-4.9-.03-7.35,0-1.01,.34-1.36,1.34-1.36,5.12-.01,10.24-.01,15.36,0,.97,0,1.33,.4,1.34,1.38,.01,1.68-.01,3.36,0,5.04,.02,2.15,.07,4.3-1.06,6.34M8.11,50.3c0-2.42,0-4.59,0-6.77,0-1.27,.6-1.67,1.81-1.27,.29,.1,.57,.2,.86,.3,1.08,.37,2.16,.74,3.44,1.17,0-1.36-.02-2.57,0-3.77,.02-1.21,.65-1.65,1.77-1.25,3.05,1.09,6.09,2.21,9.15,3.3,.73,.26,1.03,.71,1.02,1.48-.03,1.98-.01,3.96,0,5.95,0,.22,.04,.44,.07,.81,.31-.33,.51-.52,.68-.73,1.74-2.14,2.26-4.58,1.86-7.27-.87-5.99-6.39-10.46-12.39-10.01-6.22,.48-11.01,5.58-10.99,11.69,0,2.42,.84,4.48,2.72,6.36m8.15-9.18c0,1.44,.04,2.7-.01,3.96-.04,1.02-.65,1.4-1.63,1.1-.29-.09-.57-.19-.86-.29-1.13-.39-2.26-.78-3.36-1.17,0,2.32-.19,4.56,.04,6.76,.36,3.37,3.63,5.85,7.11,5.66,3.37-.18,6.26-2.99,6.4-6.3,.09-2.14,.04-4.29,.02-6.43,0-.21-.19-.54-.37-.61-2.36-.89-4.73-1.73-7.34-2.68m44.33,2.83c0,2.25-.05,4.45,.01,6.64,.09,3.44,2.81,6.24,6.24,6.55,3.39,.3,6.79-2.05,7.22-5.41,.33-2.53,.06-5.14,.06-7.78h-13.54Zm-22.11,7.1c-2.87,1.22-4.78,4.99-4.23,8.26,.64,3.8,3.63,6.61,7.36,6.92,3.47,.28,7.09-1.9,8.03-4.86-5.9-1.08-9.53-4.63-11.16-10.32m9.7,20.48c-.42,0-.77,0-1.13,0-1.2,0-1.52-.32-1.53-1.51,0-.67,0-1.35,0-2.11-2.21,.65-4.29,.65-6.34,.03-.06,.11-.11,.15-.11,.2-.01,.66-.01,1.32-.02,1.98-.02,1.04-.37,1.39-1.39,1.4-.42,0-.84,0-1.28,0,.61,3.02,3.13,5.14,5.96,5.11,2.81-.03,5.31-2.17,5.85-5.11m-7.57-21.34c.55,4.54,5.55,9.13,9.72,8.93,.27-2.74-.55-5.08-2.58-6.96-2.01-1.85-4.4-2.45-7.14-1.97m30.17,8.49c-2.24,.85-4.47,.82-6.72,.03-.16,1.77-.07,3.34,1.52,4.35,1.2,.76,2.46,.77,3.66,0,1.6-1.02,1.73-2.61,1.55-4.38m-57.02,0c-.18,1.9,0,3.54,1.75,4.5,1.28,.7,2.56,.58,3.72-.31,1.39-1.06,1.41-2.55,1.25-4.17-2.26,.82-4.47,.81-6.71-.01"/>
    <path class="cls-1" d="M42.78,0c1.46,.22,2.96,.31,4.38,.68,2.41,.62,4.8,1.36,7.16,2.17,1.47,.5,2.19,1.68,2.18,3.26,0,4.24,.03,8.48-.03,12.72-.05,3.08-.92,5.97-2.48,8.62-.21,.35-.75,.65-1.16,.69-.27,.03-.68-.41-.85-.73-.12-.23-.02-.66,.13-.92,1.76-3.08,2.33-6.41,2.25-9.92-.08-3.36-.04-6.72,0-10.07,.01-.94-.32-1.47-1.19-1.81-8.5-3.35-16.99-3.35-25.49,0-.84,.33-1.18,.84-1.17,1.74,.03,3.85-.02,7.71,.02,11.56,.08,8.08,5.24,14.62,13.02,16.43,.73,.17,1.61,.1,2.33-.14,1.4-.46,2.76-1.08,4.1-1.69,.85-.39,1.45-.36,1.79,.25,.35,.62,.15,1.26-.74,1.64-1.84,.78-3.71,1.49-5.59,2.15-1.18,.42-2.34-.02-3.47-.35-7.84-2.26-13.54-9.75-13.61-17.93-.04-3.99-.01-7.98,0-11.97,0-1.93,.69-2.92,2.48-3.66,3.43-1.42,6.99-2.29,10.69-2.57,.21-.02,.43-.09,.64-.14h4.62Z"/>
    <path class="cls-1" d="M30.52,16.67c0-5.48,3.26-9.91,7.3-9.92,4.03,0,7.32,4.46,7.32,9.91,0,5.45-3.3,9.93-7.32,9.93-4.03,0-7.31-4.45-7.31-9.92m1.6,0c0,4.28,2.58,7.77,5.73,7.76,3.12-.02,5.69-3.5,5.71-7.73,.02-4.26-2.57-7.78-5.72-7.79-3.17,0-5.72,3.46-5.72,7.76"/>
    <path class="cls-1" d="M51.8,30.47c0,.68-.58,1.25-1.26,1.25-.68,0-1.26-.57-1.26-1.25s.56-1.24,1.26-1.24,1.26,.55,1.26,1.24"/>
    <path class="cls-1" d="M41.5,15.57c.94,0,1.77-.01,2.59,0,.89,.02,1.35,.4,1.35,1.1,0,.7-.45,1.06-1.36,1.07-.82,.01-1.64,0-2.58,0,0,.93,0,1.77,0,2.61-.01,.89-.4,1.35-1.09,1.34-.68-.01-1.06-.48-1.07-1.38-.01-.82,0-1.64,0-2.58-.91,0-1.75,.01-2.6,0-.84-.02-1.31-.39-1.33-1.03-.03-.68,.47-1.12,1.33-1.14,.82-.02,1.65,0,2.61,0,0-.93-.02-1.83,0-2.72,.02-.78,.51-1.29,1.15-1.22,.68,.08,1.01,.5,1.01,1.18,0,.88,0,1.75,0,2.76"/>
  </g>
</svg>