<?xml version="1.0" encoding="UTF-8"?>
<svg id="Layer_2" data-name="Layer 2" xmlns="http://www.w3.org/2000/svg" viewBox="0 0 74.12 85.15">
  <defs>
    <style>
      .cls-1 {
        fill: #bb9d5a;
      }
    </style>
  </defs>
  <g id="Layer_1-2" data-name="Layer 1">
    <path class="cls-1" d="M19.23,85.15h-2.75v-.95c0-3.6-.02-7.21,0-10.82,.01-1.91-.43-3.67-1.36-5.33-3.87-6.84-6.62-14.11-8.15-21.82-1.16-5.86-1.81-11.76-1.31-17.74,.32-3.74,1.39-7.28,3.04-10.75-.57-.5-1.15-1-1.73-1.5-2.06-1.77-4.12-3.54-6.19-5.3-.56-.48-.98-.99-.69-1.77,.29-.77,.92-.92,1.67-.92,2.11,.02,4.23,0,6.48,0v-.85c0-1.89,.01-3.78,0-5.67,0-.68,.13-1.25,.79-1.58,.71-.35,1.25-.02,1.78,.43,2.32,2,4.64,3.98,6.89,5.91,1.84-1.09,3.55-2.24,5.37-3.16,18.98-9.55,42.05,2.35,45.18,23.37,.46,3.06,.29,6.22,.43,9.33,.02,.56,.08,1.14,.23,1.68,1.66,5.88,3.35,11.75,5.04,17.63,.49,1.69-.01,2.35-1.78,2.35-2.05,0-4.1,0-6.24,0v1c0,3.63,0,7.27,0,10.9,0,1.39-.45,1.83-1.86,1.83-3.92,0-7.83,0-11.84,0v13.69h-2.77v-.79c0-4.61,0-9.21,0-13.82,0-1.39,.45-1.82,1.86-1.83,3.92,0,7.83,0,11.87,0v-.95c0-3.66,0-7.32,0-10.99,0-1.35,.45-1.79,1.8-1.8,1.94,0,3.89,0,5.93,0-.08-.35-.12-.65-.2-.93-1.5-5.27-3.02-10.54-4.51-15.82-.17-.6-.25-1.23-.26-1.85-.06-3.34,.12-6.69-.49-10.01-2.15-11.72-11.46-21.05-23.17-23.1-7.94-1.39-15.21,.27-21.84,4.84-.12,.08-.23,.17-.16,.12,.12,.98,.3,1.82,.32,2.66,.05,1.92,0,3.83,.03,5.75,0,.38,.26,.76,.46,1.28,5.06-5.01,10.93-7.35,17.8-6.82,5.75,.44,10.61,2.86,14.48,7.14,7.59,8.38,7.58,21,.03,29.41-7.45,8.3-20.08,9.61-29.13,3.1-9.28-6.67-12.43-20.33-4.74-31.02-.57-.18-1.07-.45-1.56-.46-2.06-.05-4.12,0-6.18-.04-.57-.01-.84,.17-1.08,.69-2.01,4.54-2.66,9.31-2.44,14.24,.44,9.89,2.71,19.33,7.01,28.26,.74,1.54,1.57,3.05,2.38,4.56,1.04,1.93,1.57,3.98,1.56,6.17,0,3.97,0,7.95,0,12m6.15-63.81c6.77-6.56,16.69-6.16,22.82-.46,6.03,5.6,6.96,14.9,2.15,21.56-4.89,6.77-14,8.83-21.26,4.76-3.58-2.01-6.12-4.95-7.47-8.84-1.82-5.27-1.05-10.24,1.99-14.91-.7-.59-1.34-1.15-1.99-1.7-5.22,6.56-5.61,18.26,2.71,25.73,8.04,7.22,20.68,6.29,27.6-2.02,7.02-8.43,5.68-20.99-2.95-27.65-8.76-6.75-20.17-4.32-25.58,1.83,.64,.56,1.29,1.11,1.97,1.7m7.92,1.3c.25-.06,.42-.1,.58-.15,7.99-2.35,15.44,4.29,14.03,12.5-.95,5.51-6.02,9.38-11.75,8.97-5.43-.39-9.9-5.1-10.05-10.59-.02-.82,.34-1.84-.03-2.39-.38-.57-1.44-.7-2.2-1.01-.04-.02-.1,.01-.15,.02-1.62,5.9,1.59,12.68,7.34,15.51,6.02,2.96,13.28,1.21,17.28-4.17,3.95-5.31,3.56-12.79-.89-17.63-4.88-5.3-12.09-5.34-16.14-3.11,1.4-.03,1.6,1.05,1.98,2.04m1.92,5.13c.33-.07,.56-.12,.78-.16,2.02-.38,3.76,.19,5.12,1.69,1.41,1.56,1.81,3.41,1.14,5.43-.8,2.43-3.18,3.97-5.72,3.73-2.59-.25-4.61-2.26-4.96-4.91-.04-.26-.17-.64-.36-.74-.71-.34-1.47-.58-2.21-.86-.84,3.04,1.24,7.01,4.46,8.62,3.56,1.78,7.92,.8,10.34-2.34,2.48-3.2,2.35-7.6-.3-10.67-2.28-2.64-6.62-3.7-9.2-2.22,.3,.79,.6,1.58,.91,2.41M10.99,4.38c0,1.49-.04,2.74,.02,3.99,.02,.36,.24,.81,.51,1.05,1.44,1.3,2.93,2.55,4.41,3.81,.59,.51,1.2,1.01,1.93,1.62,0-1.18-.08-2.18,.02-3.16,.11-1.05-.27-1.73-1.08-2.38-1.93-1.55-3.77-3.2-5.81-4.95m-5.75,6.63c.11,.17,.14,.25,.19,.29,1.9,1.64,3.81,3.28,5.72,4.91,.15,.12,.34,.27,.51,.27,1.21,.02,2.41,.01,3.84,.01-2.18-1.87-4.17-3.58-6.17-5.28-.12-.1-.3-.2-.45-.2-1.19-.02-2.37,0-3.65,0m29.47,23.12c.53,1.35,2.05,1.95,3.41,1.39,1.38-.57,2.06-2.17,1.5-3.56-.54-1.36-2.05-2.04-3.38-1.49,.24,.66,.57,1.31,.69,1.99,.08,.45,.02,1.11-.26,1.39-.31,.31-.95,.31-1.45,.4-.14,.03-.32-.07-.51-.12m-1.35-3.49c-.74-1.97-1.41-3.74-2.03-5.37-1.13,1.14-2.23,2.23-3.35,3.35,1.64,.62,3.41,1.29,5.37,2.02m-2.82-9.55l-.17-.17c-.95,.71-1.9,1.43-2.93,2.2,.47,.38,.79,.64,1.13,.92,.69-1.04,1.33-2,1.97-2.95m-4.83,4.17c-.37,.66-.68,1.21-.98,1.75,.04,.04,.09,.07,.13,.11,.54-.36,1.07-.73,1.67-1.14-.29-.25-.49-.44-.82-.73"/>
  </g>
</svg>