<?xml version="1.0" encoding="UTF-8"?>
<svg id="Layer_2" data-name="Layer 2" xmlns="http://www.w3.org/2000/svg" viewBox="0 0 72.93 68.37">
  <defs>
    <style>
      .cls-1 {
        fill: #bb9d5a;
      }
    </style>
  </defs>
  <g id="Layer_1-2" data-name="Layer 1">
    <path class="cls-1" d="M72.93,40.88c-.24,1.15-.39,2.33-.74,3.45-.38,1.24-.9,2.44-1.44,3.62-.39,.85-1.2,1.13-1.94,.76-.74-.36-1.02-1.18-.59-2,1.44-2.74,1.91-5.66,1.88-8.73-.06-5.98,0-11.96-.02-17.94,0-2.05-1.85-3.42-3.73-2.81-1.13,.37-1.94,1.41-1.95,2.62-.02,3.94-.01,7.88,0,11.82,0,.21,.15,.49,.33,.62,3.09,2.36,3.38,6.2,.64,8.95-2.29,2.3-4.59,4.6-6.89,6.9-.62,.62-1.24,.76-1.85,.45-.9-.46-1.05-1.54-.28-2.33,1.11-1.14,2.24-2.25,3.37-3.38,1.22-1.23,2.45-2.44,3.67-3.68,1.27-1.28,1.33-3.01,.17-4.19-1.16-1.17-2.89-1.12-4.18,.14-.76,.75-1.52,1.5-2.27,2.26-3.04,3.14-6.89,4.64-11.09,5.27-3.17,.47-5.25,2.65-5.26,5.85,0,5.41,0,10.82,0,16.23v.68h12.24v-.77c0-2.04,0-4.08,0-6.12,0-.69,.26-1.18,.88-1.49,1.76-.88,3.51-1.77,5.27-2.64,.8-.39,1.58-.14,1.96,.56,.39,.73,.13,1.55-.69,1.97-1.32,.69-2.65,1.36-4.01,2-.46,.22-.59,.49-.58,.97,.03,2.21,.01,4.41,.01,6.62,0,1.3-.5,1.79-1.82,1.79-4.77,0-9.54,0-14.3,0-1.32,0-1.81-.49-1.81-1.8,0-5.96,0-11.91,0-17.87,0-4.8,3.07-8.14,7.83-8.82,3.6-.52,6.91-1.82,9.49-4.57,.63-.67,1.32-1.29,1.96-1.97,1.16-1.23,2.56-1.93,4.36-2.01v-.75c0-3.58-.02-7.17,.01-10.75,.02-2.64,1.94-4.91,4.49-5.44,2.67-.55,5.29,.78,6.38,3.24,.21,.47,.34,.98,.51,1.47v21.78Z"/>
    <path class="cls-1" d="M11.43,31.33c1.8,.07,3.2,.76,4.35,2,.39,.42,.83,.78,1.2,1.21,2.89,3.34,6.69,4.85,10.94,5.46,3.91,.56,7.05,3.94,7.1,7.9,.08,6.31,.03,12.62,.03,18.94,0,.94-.57,1.51-1.52,1.51-4.96,.01-9.92,.01-14.88,0-.98,0-1.53-.57-1.53-1.57-.01-2.21-.04-4.41,.02-6.62,.02-.71-.23-1.03-.84-1.32-2.34-1.14-4.73-2.21-6.97-3.54C3.33,51.75,.19,46.39,.06,39.43c-.12-6.43-.03-12.86-.02-19.29,0-3.32,2.48-5.87,5.68-5.87,3.2,0,5.69,2.53,5.71,5.84,.01,3.46,0,6.93,0,10.39v.84m20.74,34.17c.02-.14,.04-.23,.04-.32,0-5.69,.03-11.39-.02-17.08-.02-2.57-1.98-4.73-4.5-5.25-1.53-.32-3.06-.66-4.54-1.13-2.57-.81-5.01-1.9-6.92-3.91-.88-.93-1.8-1.82-2.72-2.72-.76-.75-1.67-1.08-2.73-.81-2.27,.57-2.92,3.2-1.21,4.93,2.32,2.34,4.66,4.66,6.99,7,.7,.71,.74,1.54,.15,2.14-.58,.59-1.46,.55-2.14-.12-2.39-2.38-4.79-4.74-7.14-7.15-2.54-2.6-2.18-6.53,.73-8.71,.22-.16,.41-.52,.41-.79,.03-3.84,.03-7.69,.01-11.53,0-1.68-1.24-2.93-2.84-2.94-1.6,0-2.85,1.25-2.85,2.92,0,6.5-.1,13,.03,19.5,.12,6.04,2.94,10.6,8.22,13.53,2.52,1.4,5.15,2.62,7.74,3.9,.78,.38,1.11,.93,1.1,1.8-.03,1.99-.01,3.99-.01,5.98v.76h12.2Z"/>
    <path class="cls-1" d="M36.19,4.61c.94-.77,1.88-1.52,2.8-2.3,4.55-3.85,12.87-3,16.42,3.41,2.94,5.31,2.56,10.55-.61,15.63-1.79,2.86-4.17,5.22-6.67,7.45-3.47,3.09-7.01,6.11-10.53,9.15-.79,.68-1.42,.71-2.16,.07-4.3-3.77-8.63-7.5-12.85-11.35-2.42-2.22-4.5-4.77-5.78-7.85-1.96-4.71-1.62-9.26,1.04-13.61,3.67-6.01,12.96-7.4,17.94-1.06,.2,.26,.41,.52,.62,.78-.07-.1-.15-.21-.22-.31m.24,30.53c.16-.1,.24-.15,.31-.21,3.57-3.12,7.18-6.21,10.69-9.39,2.27-2.06,4.37-4.3,5.74-7.1,1.91-3.9,1.93-7.78-.37-11.53-2.63-4.29-8.43-5.42-12.07-2.28-1.14,.98-2,2.32-2.87,3.58-.83,1.21-1.97,1.25-2.75,.01-.54-.86-1.09-1.73-1.74-2.51-3.6-4.32-9.24-3.18-11.87-.48-2.67,2.73-3.49,6.06-2.89,9.76,.47,2.91,2.02,5.29,3.92,7.45,4.16,4.72,9.19,8.49,13.89,12.69"/>
    <path class="cls-1" d="M65.36,53.84c-.79-.01-1.43-.69-1.4-1.47,.03-.76,.68-1.37,1.44-1.36,.79,.01,1.43,.69,1.4,1.47-.03,.76-.68,1.38-1.44,1.36"/>
  </g>
</svg>