<?xml version="1.0" encoding="UTF-8"?>
<svg id="Layer_2" data-name="Layer 2" xmlns="http://www.w3.org/2000/svg" viewBox="0 0 56.37 56.35">
  <defs>
    <style>
      .cls-1 {
        fill: none;
        stroke: #fff;
        stroke-miterlimit: 10;
        stroke-width: .75px;
      }

      .cls-2 {
        fill: #bb9d5a;
      }
    </style>
  </defs>
  <g id="Layer_1-2" data-name="Layer 1">
    <path class="cls-2" d="M55.99,42.94v2.28c-.03,.08-.08,.16-.09,.25-.87,6.21-5.78,10.5-12.04,10.5-10.44,0-20.88,0-31.32-.01-.9,0-1.82-.07-2.69-.26-4.86-1.04-8.48-4.86-9.31-9.8-.8-4.7,1.48-9.49,5.73-12.03,.3-.18,.38-.35,.32-.68-.85-4.75,1.18-9.11,5.39-11.52,.29-.17,.4-.36,.42-.68,.17-2.42,.85-4.69,2.13-6.76,1.88-3.02,4.45-5.12,8.03-5.77,1.04-.19,2.13-.14,3.18-.29,1.94-.27,3.39-1.24,4.03-3.16,.22-.68,.37-1.41,.37-2.12,0-1.19,.4-2.06,1.54-2.53h1.41c.24,.06,.49,.11,.73,.17,3.5,.78,6.12,2.81,8.03,5.76,2.9,4.47,2.82,9.16,.76,13.93-.08,.17-.15,.35-.23,.54,.2,.08,.35,.14,.51,.19,5.06,1.89,7.91,6.9,6.93,12.21-.07,.37,.03,.53,.34,.72,2.63,1.59,4.44,3.84,5.33,6.79,.22,.74,.34,1.5,.51,2.26M10.43,32.27c.12,0,.21,.02,.3,.02,2.51-.04,5.03-.11,7.54-.13,1.13,0,1.97,.87,1.98,1.95,.01,1.1-.86,1.97-2,1.99-.33,0-.65,0-.98,0-2.03,.03-4.06-.08-6.07,.12-4.32,.42-7.52,4.83-6.73,9.1,.73,3.99,3.92,6.66,7.98,6.66,10.5,0,20.99,0,31.49,0,.25,0,.51,0,.76-.02,4.54-.26,8.04-4.71,7.22-9.18-.73-3.98-3.92-6.66-7.97-6.68-1.88,0-3.76,0-5.65,0-1.28,0-2.18-.84-2.16-2,.01-1.14,.89-1.95,2.15-1.95,1.94,0,3.87-.01,5.81,0,.61,0,1.22,.08,1.82,.12,.03-.08,.06-.13,.07-.18,.62-3.75-2.28-7.53-6.06-7.84-1.3-.1-2.6-.04-3.91-.09-1.08-.04-1.87-.93-1.85-2.01,.02-1.04,.84-1.88,1.9-1.92,.27-.01,.55-.05,.81,0,1,.19,1.51-.28,1.92-1.16,1.88-4.05,1.93-7.93-.96-11.56-1.01-1.28-2.27-2.25-3.86-2.84-.05,.22-.1,.39-.14,.56-.69,2.82-2.27,4.93-4.95,6.13-1.44,.65-2.98,.9-4.54,.9-1.88,.01-3.44,.74-4.78,2-1.44,1.35-2.36,3-2.87,4.89-.09,.35-.16,.71-.24,1.06,1.27,0,2.45,0,3.62,0,1.29,0,2.17,.81,2.17,1.98,0,1.17-.87,1.96-2.18,1.97-.87,0-1.74,0-2.61,0-2.14,0-3.96,.76-5.38,2.38-1.43,1.63-1.97,3.53-1.63,5.7"/>
    <path class="cls-1" d="M55.99,42.94v2.28c-.03,.08-.08,.16-.09,.25-.87,6.21-5.78,10.5-12.04,10.5-10.44,0-20.88,0-31.32-.01-.9,0-1.82-.07-2.69-.26-4.86-1.04-8.48-4.86-9.31-9.8-.8-4.7,1.48-9.49,5.73-12.03,.3-.18,.38-.35,.32-.68-.85-4.75,1.18-9.11,5.39-11.52,.29-.17,.4-.36,.42-.68,.17-2.42,.85-4.69,2.13-6.76,1.88-3.02,4.45-5.12,8.03-5.77,1.04-.19,2.13-.14,3.18-.29,1.94-.27,3.39-1.24,4.03-3.16,.22-.68,.37-1.41,.37-2.12,0-1.19,.4-2.06,1.54-2.53h1.41c.24,.06,.49,.11,.73,.17,3.5,.78,6.12,2.81,8.03,5.76,2.9,4.47,2.82,9.16,.76,13.93-.08,.17-.15,.35-.23,.54,.2,.08,.35,.14,.51,.19,5.06,1.89,7.91,6.9,6.93,12.21-.07,.37,.03,.53,.34,.72,2.63,1.59,4.44,3.84,5.33,6.79,.22,.74,.34,1.5,.51,2.26ZM10.43,32.27c.12,0,.21,.02,.3,.02,2.51-.04,5.03-.11,7.54-.13,1.13,0,1.97,.87,1.98,1.95,.01,1.1-.86,1.97-2,1.99-.33,0-.65,0-.98,0-2.03,.03-4.06-.08-6.07,.12-4.32,.42-7.52,4.83-6.73,9.1,.73,3.99,3.92,6.66,7.98,6.66,10.5,0,20.99,0,31.49,0,.25,0,.51,0,.76-.02,4.54-.26,8.04-4.71,7.22-9.18-.73-3.98-3.92-6.66-7.97-6.68-1.88,0-3.76,0-5.65,0-1.28,0-2.18-.84-2.16-2,.01-1.14,.89-1.95,2.15-1.95,1.94,0,3.87-.01,5.81,0,.61,0,1.22,.08,1.82,.12,.03-.08,.06-.13,.07-.18,.62-3.75-2.28-7.53-6.06-7.84-1.3-.1-2.6-.04-3.91-.09-1.08-.04-1.87-.93-1.85-2.01,.02-1.04,.84-1.88,1.9-1.92,.27-.01,.55-.05,.81,0,1,.19,1.51-.28,1.92-1.16,1.88-4.05,1.93-7.93-.96-11.56-1.01-1.28-2.27-2.25-3.86-2.84-.05,.22-.1,.39-.14,.56-.69,2.82-2.27,4.93-4.95,6.13-1.44,.65-2.98,.9-4.54,.9-1.88,.01-3.44,.74-4.78,2-1.44,1.35-2.36,3-2.87,4.89-.09,.35-.16,.71-.24,1.06,1.27,0,2.45,0,3.62,0,1.29,0,2.17,.81,2.17,1.98,0,1.17-.87,1.96-2.18,1.97-.87,0-1.74,0-2.61,0-2.14,0-3.96,.76-5.38,2.38-1.43,1.63-1.97,3.53-1.63,5.7Z"/>
  </g>
</svg>