<?xml version="1.0" encoding="UTF-8"?>
<svg id="Layer_2" data-name="Layer 2" xmlns="http://www.w3.org/2000/svg" viewBox="0 0 65.76 65.7">
  <defs>
    <style>
      .cls-1 {
        fill: #bb9d5a;
      }
    </style>
  </defs>
  <g id="Layer_1-2" data-name="Layer 1">
    <path class="cls-1" d="M56.92,50.4h2.21v.7c0,4.36,0,8.71,0,13.07,0,1.2-.34,1.53-1.56,1.53H17.96c-1.2,0-1.53-.33-1.53-1.55,0-7.07,0-14.14,0-21.21v-.89c-1.42,.63-2.97,.71-4.15,1.71-2.75,2.33-6.81,2.39-9.51,.13-2.85-2.38-3.63-6.54-1.75-9.73,2.71-4.59,5.48-9.15,8.22-13.72,.73-1.21,1.42-2.44,2.19-3.63,1.14-1.77,2.18-3.58,2.49-5.71,.02-.13,.08-.25,.14-.41,.69,.18,1.34,.34,2.2,.56-.51,1.45-.79,2.97-1.53,4.22-3.81,6.51-7.73,12.96-11.6,19.43-1.49,2.49-1.1,5.43,.94,7.21,2.66,2.33,6.76,1.32,8.23-2.05,1.35-3.09,2.66-6.19,3.99-9.29,1.12-2.62,2.23-5.24,3.38-7.84,.17-.39,.48-.78,.83-1.03,3.5-2.51,7.03-4.98,10.55-7.47,1.2-.84,1.33-1.62,.46-2.81-.94-1.29-1.87-2.58-2.82-3.87-.75-1.02-1.55-1.15-2.57-.41-1.63,1.17-3.25,2.35-4.87,3.54-.45,.34-.91,.53-1.45,.23-.55-.31-.6-.8-.51-1.36,.16-.99,.33-1.98,.43-2.98,.07-.66-.38-1.17-.99-1.27-.58-.09-1.12,.24-1.34,.83-.06,.17-.1,.35-.15,.53-.18,.7-.36,1.41-.56,2.18-.71-.18-1.37-.35-2.14-.55,.32-1.13,.54-2.23,.96-3.25,.59-1.44,2.2-2.17,3.74-1.85,.16,.03,.31,.06,.45,.08,.05-.04,.11-.05,.12-.09C20.71,.94,22.04,0,24.6,0,28.31,0,32.03,0,35.75,0c5.96,0,10.23,4.25,10.24,10.19,0,.23,0,.45,0,.72,1.43,.11,2.63,.63,3.49,1.78,.64,.85,.93,1.82,.88,2.88-.11,2.24-1.74,3.82-4.31,4.17-.06,1.31-.06,2.64-.2,3.94-.61,5.65-5.54,10.57-11.18,11.22-6.17,.71-11.42-2.29-13.96-7.98-.04-.1-.09-.2-.21-.44-2,4.66-3.94,9.19-5.95,13.88,.89-.31,1.61-.56,2.34-.8,1.1-.37,1.73,.08,1.73,1.25,0,7.34,0,14.69,0,22.03v.6h28.45v-24h2.18v4.3h7.7v-.67c0-2.97,0-5.93,0-8.9,0-5.14-3.37-9.12-8.43-9.98-.13-.02-.25-.08-.42-.13,.07-.69,.14-1.36,.23-2.2,1.07,.28,2.08,.46,3.02,.82,4.69,1.75,7.76,6.18,7.79,11.18,.02,4.58,0,9.17,0,13.75v.51h-2.17v-2.09h-7.64v17.43h7.6v-13.07ZM32.17,8.79c.42,.59,.79,1.1,1.16,1.61,1.52,2.1,1.16,4.27-.93,5.75-.61,.43-1.22,.87-1.85,1.31,.19,.43,.36,.82,.62,1.4-1.1,.24-2.13,.45-3.16,.68-.26,.06-.54,.11-.75,.25-1.63,1.13-3.25,2.27-4.85,3.44-.18,.13-.33,.49-.29,.71,.97,5.43,6.1,9.35,11.6,8.88,5.61-.48,10.01-5.1,10.08-10.65,.03-2.4,.01-4.79,0-7.19,0-.25-.08-.54-.22-.76-1.11-1.7-2.23-3.39-3.38-5.06-.15-.21-.49-.4-.75-.4-2.26-.03-4.51-.02-6.77-.02-.13,0-.25,.01-.49,.03m11.57,1.74c.4-4.35-3.01-8.21-7.28-8.32-2.94-.07-5.88-.02-8.82-.02-1.21,0-2.42-.02-3.62,0-1.02,.02-1.83,.71-2.07,1.69-.22,.91,.22,1.96,1.07,2.38,.23,.11,.61,.09,.84-.03,.46-.24,.85-.61,1.29-.9,1.72-1.13,3.79-.81,5.06,.81,.26,.33,.51,.44,.91,.43,3.03-.02,6.06,0,9.09-.02,.61,0,1.04,.21,1.36,.72,.68,1.05,1.38,2.08,2.16,3.25m2.28,2.63v4.32c1.25-.06,2.14-.96,2.15-2.14,.01-1.17-.84-2.06-2.15-2.19"/>
    <path class="cls-1" d="M40.95,38.25c-5.44,2.17-10.78,2.18-16.19,0,.29-.68,.56-1.32,.86-2.01,2.34,.95,4.73,1.46,7.21,1.46,2.49,0,4.89-.48,7.25-1.47,.29,.67,.56,1.31,.87,2.02"/>
    <path class="cls-1" d="M55.96,2.79c.71,.27,1.31,.49,1.95,.73-.61,.92-1.21,1.81-1.86,2.79,.52,.36,1.06,.72,1.59,1.09,.4,.29,.52,.63,.27,1.01-.71,1.06-1.42,2.11-2.16,3.23-.66-.24-1.28-.46-1.96-.71,.54-.81,1.05-1.59,1.6-2.37,.19-.26,.19-.44-.13-.65-.43-.28-.87-.56-1.19-.9-.22-.23-.43-.64-.3-.86,.66-1.13,1.44-2.21,2.2-3.37"/>
    <path class="cls-1" d="M59.88,24.52c-.51-.55-.98-1.05-1.49-1.6,.87-.81,1.7-1.61,2.57-2.37,.36-.31,.42-.57,.2-.99-.26-.48-.55-.97-.66-1.49-.08-.39-.06-.99,.18-1.24,1.14-1.17,2.37-2.26,3.6-3.41,.5,.55,.97,1.06,1.48,1.61-.89,.83-1.72,1.63-2.59,2.39-.33,.29-.39,.54-.18,.93,.25,.46,.44,.95,.66,1.42,.26,.56,.2,1.06-.27,1.48-1.15,1.07-2.3,2.14-3.5,3.25"/>
    <path class="cls-1" d="M37.83,25.71c-.41,.59-.8,1.15-1.21,1.73-2.52-1.54-5.01-1.54-7.53,0-.41-.58-.79-1.14-1.18-1.69,2.24-1.97,6.85-2.37,9.92-.05"/>
    <path class="cls-1" d="M41.2,16.91c.25,.52,.55,1.14,.88,1.82-2.53,1.09-4.98,1.1-7.51,0,.32-.67,.61-1.27,.88-1.82,.98,.16,1.92,.43,2.85,.43,.94,0,1.88-.26,2.91-.42"/>
  </g>
</svg>