<?xml version="1.0" encoding="UTF-8"?>
<svg id="Layer_2" data-name="Layer 2" xmlns="http://www.w3.org/2000/svg" viewBox="0 0 47.26 71.11">
  <defs>
    <style>
      .cls-1 {
        fill: #bb9d5a;
      }
    </style>
  </defs>
  <g id="Layer_1-2" data-name="Layer 1">
    <path class="cls-1" d="M10.58,71.11c-.56-.29-.75-.74-.74-1.36,.02-2.52-.02-5.04,.03-7.57,.01-.64-.22-.87-.79-1.04-2-.58-3.98-1.2-5.97-1.82-2.16-.68-3.22-2.5-2.75-4.69,.67-3.09,1.32-6.19,2.03-9.28,.2-.9,.54-1.77,.88-2.62,.27-.67,.83-.89,1.39-.66,.58,.24,.72,.81,.51,1.52-.54,1.76-1.03,3.53-1.56,5.38h6.25c0-.46-.01-.92,0-1.37,.02-.72,.41-1.15,1.02-1.16,.59,0,1.04,.44,1.05,1.14,.02,1.64,.03,3.29,0,4.93,0,.48,.11,.73,.6,.91,2.42,.9,4.83,1.85,7.24,2.79,.4,.16,.72,.15,1.1-.09,.72-.45,1.48-.85,2.23-1.27,1.95-1.1,3.2-.66,4.04,1.46,.42-.16,.85-.31,1.28-.47,2.12-.79,4.23-1.61,6.36-2.38,.45-.16,.6-.38,.59-.85-.03-1.57-.01-3.15,0-4.72,0-.23,0-.47,.06-.69,.13-.52,.5-.79,1.02-.76,.55,.02,.93,.33,.97,.9,.04,.52,0,1.05,0,1.62h6.1c-.51-2.7-.96-5.38-2.75-7.59-1.68-2.07-3.81-3.41-6.41-3.98-.27-.06-.65,.05-.87,.21-1.69,1.27-3.58,1.93-5.67,1.95-2.78,.02-5.55,.02-8.33,0-2.1-.02-3.99-.68-5.68-1.94-.24-.18-.65-.26-.94-.2-1.72,.38-3.28,1.1-4.65,2.23-.11,.09-.21,.18-.32,.26-.55,.4-1.17,.35-1.54-.13-.35-.46-.28-1.03,.22-1.48,1.36-1.19,2.91-2.04,4.62-2.6,.18-.06,.35-.11,.44-.14-.42-1.18-.81-2.34-1.26-3.49-.06-.15-.39-.21-.61-.26-.92-.18-1.91-.18-2.75-.54-1.88-.82-2.83-2.39-2.93-4.43-.04-.9,0-1.81,.13-2.69,.08-.53,.26-1.15,.61-1.52,.83-.86,.71-1.74,.48-2.77-.55-2.5-.82-5.02-.14-7.56,.05-.19,.02-.42-.04-.61-.86-2.7-.15-5.02,1.73-7.03,1.95-2.08,4.45-3.21,7.16-3.88,5.78-1.42,11.42-.95,16.89,1.43,.08,.04,.17,.07,.25,.12,.66,.33,.9,.9,.63,1.47-.26,.53-.81,.66-1.5,.42-1.66-.56-3.3-1.25-5-1.6-4.46-.93-8.88-.76-13.15,.99-1.58,.65-3.02,1.52-4.11,2.87-1.14,1.42-1.47,2.98-.89,4.75,.16,.49,.16,1.1,.04,1.61-.47,1.89-.31,5.69,.4,7.44,.84-.07,1.69-.15,2.64-.23,0-.93-.06-1.87,.02-2.81,.07-.82,.18-1.67,.49-2.42,.69-1.7,1.91-2.17,3.65-1.58,4.79,1.64,9.64,1.88,14.53,.5,1.04-.29,2.04-.74,3.02-1.21,1.07-.51,2.05-.46,3,.24,1.45,1.06,2.15,2.5,2.17,4.28,.01,.99,0,1.98,0,2.98,.92,.08,1.76,.15,2.69,.23,.44-1.86,.78-3.78,.61-5.76-.06-.64-.18-1.29-.37-1.9-.36-1.15-1.14-1.83-2.38-1.88-.98-.03-1.52-.55-1.92-1.42-.37-.81-.9-1.55-1.43-2.27-.47-.65-.54-1.24-.07-1.66,.47-.42,1.15-.36,1.62,.27,.62,.83,1.14,1.73,1.72,2.58,.14,.2,.37,.43,.59,.46,2.18,.31,3.4,1.65,3.97,3.66,.68,2.4,.39,4.82-.05,7.22,0,.04-.02,.09-.04,.13-.34,1.07-.19,1.93,.43,2.98,1.24,2.08,1.18,4.42,.04,6.56-.96,1.81-2.63,2.61-4.68,2.54-.62-.02-.9,.12-1.07,.79-.26,.99-.73,1.93-1.13,2.93,.53,.2,1.16,.41,1.75,.68,4.18,1.93,6.69,5.19,7.65,9.67,.62,2.89,1.25,5.78,1.87,8.67,.5,2.31-.5,4.07-2.76,4.79-2,.64-4.01,1.28-6.02,1.88-.51,.15-.69,.35-.68,.9,.03,2.52,0,5.04,.02,7.57,0,.64-.15,1.13-.74,1.43h-.69c-.56-.38-.67-.92-.66-1.56,.02-2.22,0-4.44,0-6.66v-.79c-2.48,.77-4.84,1.5-7.2,2.25-.22,.07-.4,.3-.59,.46-1.5,1.27-3.15,2.23-5.18,1.69-.95-.25-1.9-.77-2.69-1.38-2.29-1.75-5.06-2.14-7.75-3.08v.86c0,2.22-.01,4.44,0,6.67,0,.64-.11,1.18-.66,1.56h-.69ZM34.98,23.77c0-2.17,0-4.35,0-6.52,0-.91-.22-1.73-.88-2.41-.46-.47-.93-.73-1.57-.27-.29,.21-.66,.33-1,.47-5.75,2.28-11.56,2.14-17.39,.36-1.31-.4-1.61-.22-1.81,1.17-.03,.23-.05,.46-.05,.69,0,4.26-.02,8.51,0,12.77,.02,4.37,3.12,7.45,7.5,7.46,2.55,0,5.09,0,7.64,0,4.46,0,7.54-3.08,7.56-7.55,0-2.06,0-4.12,0-6.18M9.84,51.14H3.25c-.3,1.42-.63,2.81-.87,4.21-.18,1.01,.33,1.68,1.38,2.01,2.87,.88,5.74,1.78,8.62,2.63,3.37,.99,6.78,1.87,9.6,4.14,.27,.22,.67,.35,1.03,.38,1.65,.14,2.83-.73,3.74-1.96,1.05-1.42,.9-1.94-.65-2.75-1-.52-1.39-1.28-1.24-2.39,.04-.33,.06-.65,.1-1.13-.35,.17-.55,.26-.74,.36-.93,.52-1.86,1.04-2.78,1.57-.62,.36-1.26,.4-1.93,.14-2.93-1.13-5.86-2.27-8.8-3.39-.6-.23-.87-.62-.86-1.27,.02-.83,0-1.66,0-2.56m34.16,.01h-6.59c0,.82,0,1.6,0,2.38,0,1.04-.12,1.21-1.1,1.58-2.61,.99-5.23,1.97-7.84,2.96-.17,.07-.34,.16-.42,.2,.41,.53,.9,.97,1.14,1.52,.25,.56,.27,1.23,.39,1.87,.01,0,.09,.02,.15,0,4.65-1.45,9.3-2.9,13.95-4.36,.98-.31,1.39-1.04,1.19-2.06-.26-1.36-.58-2.71-.87-4.08M10.15,29.68v-7.4c-2.11-.3-3.64,.64-3.96,2.44-.08,.47-.05,.97-.06,1.45,0,2.55,1.39,3.79,4.02,3.51m26.96-7.4v7.41c2.17,.23,3.64-.69,3.95-2.48,.09-.49,.05-1.01,.05-1.52,0-2.47-1.5-3.76-4.01-3.41"/>
    <path class="cls-1" d="M42.35,65.04c-.69-.17-1.29-.31-1.9-.48-.72-.19-1.08-.71-.92-1.31,.17-.61,.7-.89,1.43-.72,.83,.2,1.66,.42,2.48,.63,1.67,.43,2,1.28,.98,2.8,.62,.16,1.21,.3,1.79,.46,.79,.21,1.15,.68,1.01,1.31-.14,.62-.69,.91-1.48,.72-.9-.21-1.79-.45-2.69-.68-1.34-.34-1.7-1.33-.9-2.45,.05-.07,.1-.15,.19-.29"/>
    <path class="cls-1" d="M2.85,65.96c-.19-.28-.34-.46-.45-.66-.42-.79-.03-1.71,.88-1.98,1.02-.3,2.05-.56,3.08-.8,.69-.16,1.2,.13,1.37,.72,.16,.57-.17,1.08-.85,1.29-.33,.1-.67,.17-1.01,.25-.3,.08-.61,.16-.95,.26,.15,.22,.28,.38,.38,.55,.47,.8,.17,1.76-.71,2.04-1.1,.34-2.23,.61-3.35,.86-.6,.13-1.09-.22-1.21-.76-.12-.56,.15-1.04,.75-1.23,.66-.2,1.33-.36,2.08-.56"/>
    <path class="cls-1" d="M28.54,49.24c-.23,.62-.44,1.22-.67,1.81-.28,.72-.79,1-1.39,.78-.6-.22-.81-.76-.55-1.5,.27-.79,.57-1.56,.85-2.34,.61-1.67,1.46-1.92,2.9-.75,.23-.61,.44-1.21,.66-1.79,.28-.71,.79-1.01,1.38-.82,.61,.2,.83,.79,.57,1.55-.3,.85-.6,1.7-.92,2.54-.51,1.39-1.5,1.64-2.61,.67-.05-.04-.11-.07-.22-.14"/>
    <path class="cls-1" d="M17.59,47.26c.19-.17,.32-.3,.47-.41,.77-.61,1.82-.38,2.2,.53,.42,1.02,.79,2.07,1.14,3.12,.21,.63-.08,1.15-.64,1.34-.56,.19-1.06-.06-1.31-.7-.25-.62-.47-1.25-.72-1.93-.19,.16-.33,.3-.5,.42-.76,.58-1.78,.36-2.15-.52-.44-1.04-.81-2.11-1.17-3.19-.19-.58,.1-1.12,.61-1.31,.55-.2,1.09,.05,1.34,.66,.26,.62,.47,1.25,.74,1.97"/>
    <path class="cls-1" d="M21.49,35.21c-.66,0-1.31,.01-1.97,0-1.09-.03-1.91-.85-2.25-2.24-.32-1.28-.07-2.69,.62-3.6,.74-.97,1.8-1.21,2.7-.45,.66,.56,1.22,.55,1.87-.03,.84-.76,1.92-.51,2.66,.44,.7,.9,.96,2.32,.66,3.59-.32,1.36-1.11,2.23-2.13,2.28-.72,.04-1.44,0-2.15,0h0Zm.01-2.08c.64,0,1.28,.01,1.92,0,.2,0,.41-.04,.59-.16,.42-.28,.59-1.04,.4-1.64-.22-.67-.76-.96-1.23-.66-.37,.23-.73,.55-1.11,.72-.78,.35-1.46-.11-2.14-.65-.39-.31-.79-.24-1.13,.22-.26,.36-.34,.82-.2,1.33,.17,.61,.5,.84,.93,.84,.66,0,1.31,0,1.97,0"/>
    <path class="cls-1" d="M16.31,22.9c-.75,.02-1.24-.34-1.29-.96-.05-.64,.39-1.06,1.19-1.12,1.24-.08,2.32-.52,3.25-1.37,.62-.58,1.26-.6,1.69-.09,.42,.49,.32,1.06-.29,1.63-1.28,1.2-2.81,1.81-4.56,1.91"/>
    <path class="cls-1" d="M30.96,22.9c-1.77-.1-3.32-.73-4.61-1.95-.59-.56-.66-1.15-.2-1.63,.42-.45,1.03-.44,1.59,.08,.95,.89,2.07,1.35,3.36,1.42,.74,.04,1.18,.49,1.14,1.1-.04,.62-.53,.99-1.28,.97"/>
    <path class="cls-1" d="M18.65,24.31c.25,0,.51-.03,.76,0,.55,.07,.87,.4,.9,.96,.04,.56-.26,.97-.79,1.05-.58,.09-1.2,.09-1.78,.01-.57-.07-.89-.5-.84-1.08,.05-.57,.4-.91,1-.95,.25-.01,.51,0,.76,0h0Z"/>
    <path class="cls-1" d="M28.64,26.36c-.28,0-.56,.05-.82,0-.56-.12-.9-.47-.86-1.07,.03-.59,.38-.93,.97-.97,.46-.03,.92-.02,1.38,0,.65,.03,1.07,.44,1.08,1.01,0,.56-.43,1-1.06,1.06-.23,.02-.46,0-.69,0v-.02Z"/>
  </g>
</svg>