<?xml version="1.0" encoding="UTF-8"?>
<svg id="Layer_2" data-name="Layer 2" xmlns="http://www.w3.org/2000/svg" viewBox="0 0 67.24 71.27">
  <defs>
    <style>
      .cls-1 {
        fill: #bb9d5a;
      }
    </style>
  </defs>
  <g id="Layer_1-2" data-name="Layer 1">
    <path class="cls-1" d="M13.03,6.81c1.6,0,3.2-.02,4.79,.01,.44,0,.69-.15,.92-.52,5.23-8.31,17.02-8.42,22.4-.21,.31,.47,.61,.65,1.16,.64,2.76-.03,5.52-.06,8.27,0,1.17,.03,2.38,.18,3.5,.51,3.47,1.02,5.79,4.02,5.8,7.8,0,2.35-.34,4.72-.66,7.06-.8,5.79-1.67,11.57-2.53,17.35-.08,.54,.09,.76,.58,.96,6.55,2.69,10.61,9.37,9.89,16.26-.75,7.27-5.92,13-13.02,14.31-4.41,.81-8.49-.1-12.18-2.69-.37-.26-.88-.43-1.33-.43-8.43-.02-16.85,0-25.28-.03-1.02,0-2.08-.04-3.07-.27-3.31-.78-5.29-2.94-5.81-6.26-.95-5.97-1.78-11.97-2.66-17.95-1-6.83-2.01-13.65-3-20.48-.27-1.89-.64-3.77-.76-5.66-.09-1.37,0-2.8,.31-4.13,.85-3.62,3.93-6.02,7.83-6.21,1.62-.08,3.24-.01,4.87-.01v-.05M54.15,39.31s.04-.15,.06-.3c.81-5.45,1.66-10.9,2.43-16.35,.35-2.44,.73-4.9,.78-7.36,.07-3.29-2.04-5.69-5.31-5.93-3.15-.24-6.32-.05-9.54-.05,.74,2.65,.8,5.36-.1,8.05-.91,2.73-2.55,4.93-4.87,6.6-2.31,1.67-4.91,2.5-7.74,2.47-3.85-.04-7.14-1.49-9.71-4.36-3.32-3.72-4.13-8.06-2.86-12.84-3.06,0-6.08-.12-9.08,.04-2.5,.13-4.47,1.3-5.38,3.83-.52,1.45-.57,2.94-.36,4.43,.74,5.31,1.53,10.6,2.32,15.9,1.32,8.94,2.65,17.88,3.96,26.83,.5,3.44,2.45,5.21,5.93,5.22,7.84,.01,15.67,0,23.51,0,.18,0,.37-.04,.45-.05-.74-1.35-1.54-2.65-2.15-4.03-.31-.69-.65-.87-1.35-.86-6.26,.03-12.53,.02-18.79,.02-1.32,0-1.68-.36-1.68-1.71,0-1.91,0-3.81,0-5.72,0-1.48,.34-1.83,1.81-1.83,6.13,0,12.27-.01,18.4,.01,.59,0,.8-.18,1-.75,2.21-6.48,6.67-10.31,13.48-11.23,1.56-.21,3.17-.03,4.82-.03m-16.54,15.93c-.02,7.49,6.09,13.62,13.61,13.65,7.54,.02,13.61-5.99,13.63-13.5,.02-7.56-6.02-13.7-13.51-13.73-7.6-.03-13.7,6-13.72,13.58m-7.62-31.18c6.03,0,10.87-4.83,10.86-10.85,0-5.95-4.87-10.82-10.82-10.83-6.03-.01-10.88,4.81-10.89,10.82-.02,6.01,4.83,10.86,10.85,10.86m5.17,29.76H17.15v4.33h18.29c-.1-1.46-.19-2.87-.28-4.33"/>
    <path class="cls-1" d="M50.11,59.29c-.09,.04-.18,.08-.27,.11-.45-.49-.89-.99-1.35-1.47-.46-.48-.94-.96-1.42-1.42-.62-.59-1.26-.63-1.77-.14-.54,.52-.5,1.18,.14,1.82,1.61,1.63,3.23,3.25,4.86,4.86,.72,.72,1.42,.73,2.15,.02,1.63-1.61,3.25-3.23,4.86-4.86,.6-.61,.66-1.29,.2-1.77-.54-.55-1.36-.53-1.99,.08-.85,.83-1.67,1.68-2.52,2.51-.13,.13-.28,.23-.51,.41,0-3.71,0-7.29,0-10.86,0-.3-.01-.63-.11-.91-.19-.55-.65-.9-1.19-.72-.4,.13-.74,.54-1,.9-.14,.19-.07,.55-.07,.83,0,3.27,0,6.54,0,9.81v.82Z"/>
    <path class="cls-1" d="M50.11,60.27v-.63c0-2.53,0-5.05,0-7.58,0-.22-.07-.49,.07-.64,.26-.28,.61-.59,1-.69,.54-.14,1,.13,1.19,.56,.1,.22,.11,.47,.11,.7,0,2.76,0,5.53,0,8.39,.23-.14,.38-.21,.51-.31,.84-.64,1.67-1.3,2.52-1.94,.63-.47,1.45-.49,1.99-.06,.46,.37,.41,.9-.2,1.37-1.61,1.26-3.23,2.51-4.86,3.75-.72,.55-1.42,.54-2.15-.01-1.62-1.25-3.25-2.5-4.86-3.75-.64-.5-.67-1-.14-1.4,.51-.38,1.15-.35,1.77,.11,.48,.36,.96,.72,1.42,1.1,.46,.37,.9,.76,1.35,1.14,.09-.03,.18-.06,.27-.09"/>
    <path class="cls-1" d="M29.79,14.41c-.18-.13-.58-.29-.8-.6-1.11-1.51-2.17-3.05-3.23-4.6-.4-.57-.27-1.26,.23-1.64,.51-.39,1.25-.34,1.65,.21,1.14,1.55,2.27,3.11,3.35,4.71,.56,.84-.03,1.91-1.2,1.92"/>
  </g>
</svg>