<?xml version="1.0" encoding="UTF-8"?>
<svg id="Layer_2" data-name="Layer 2" xmlns="http://www.w3.org/2000/svg" viewBox="0 0 55.11 73.34">
  <defs>
    <style>
      .cls-1 {
        fill: none;
        stroke: #bb9d5a;
        stroke-miterlimit: 10;
        stroke-width: .5px;
      }

      .cls-2 {
        fill: #bb9d5a;
      }
    </style>
  </defs>
  <g id="Layer_1-2" data-name="Layer 1">
    <path class="cls-2" d="M19.27,73.09H4.17l-.07-1.19c-.02-.21-.03-.42-.03-.63v-17.88H.25v-5.77H36.56v5.74h-1.3c0,.15,0,.3-.01,.46-.03,1.02-.06,2.07-.23,3.1-.53,3.24-2.35,5.77-5.4,7.53-1.89,1.09-4.08,1.79-6.71,2.14-1.59,.21-2.63,1.15-3.1,2.79-.16,.58-.23,1.21-.3,1.88-.04,.33-.07,.65-.12,.98l-.12,.86Zm-13.2-2h11.44s0-.03,0-.05c.08-.72,.16-1.47,.37-2.22,.68-2.41,2.38-3.91,4.76-4.22,2.36-.31,4.31-.93,5.97-1.89,2.51-1.45,4-3.51,4.43-6.12,.15-.9,.17-1.84,.2-2.83,.01-.48,.03-.96,.05-1.45l.05-.95h1.21v-1.74H2.25v1.77h3.82v19.7Z"/>
    <path class="cls-1" d="M19.27,73.09H4.17l-.07-.92c-.02-.16-.03-.32-.03-.49v-13.79H.25v-4.45H36.56v4.43h-1.3c0,.12,0,.23-.01,.35-.03,.78-.06,1.59-.23,2.39-.53,2.5-2.35,4.45-5.4,5.81-1.89,.84-4.08,1.38-6.71,1.65-1.59,.16-2.63,.89-3.1,2.15-.16,.45-.23,.94-.3,1.45-.04,.25-.07,.5-.12,.75l-.12,.66Zm-13.2-1.54h11.44s0-.02,0-.04c.08-.56,.16-1.14,.37-1.71,.68-1.86,2.38-3.01,4.76-3.26,2.36-.24,4.31-.72,5.97-1.46,2.51-1.12,4-2.71,4.43-4.72,.15-.69,.17-1.42,.2-2.18,.01-.37,.03-.74,.05-1.12l.05-.73h1.21v-1.35H2.25v1.36h3.82v15.2Z"/>
    <path class="cls-2" d="M38.71,71.54c-1.15,0-2.29-.3-3.28-.9-2.02-1.22-2.85-3.36-2.1-5.45,.6-1.67,1.25-3.35,1.89-4.98,.47-1.2,.94-2.41,1.39-3.62,.99-2.66,1.95-5.32,2.91-7.98l.81-2.23-3.58-.1c-3.76-.1-7.52-.2-11.27-.33-1.73-.06-3.58-.16-5.42-.44-3.43-.53-6.91-3.41-6.96-7.88-.02-1.53,.32-3.07,.99-4.57,2.55-5.7,6.12-10.45,10.6-14.12,1.92-1.57,3.73-2.8,5.52-3.76,2.33-1.24,4.81-1.28,6.94-.27-.72-1-1.22-2.15-1.51-3.44-.87-3.86,.96-7.97,4.45-10,3.44-2,7.89-1.53,10.82,1.15,3.19,2.9,3.83,6.57,1.94,11.18,1.63,1.08,2.32,2.81,1.89,4.81-.92,4.33-2.57,8.3-4.47,12.67-.5,1.15-1,2.31-1.51,3.49l-.19,.45c.24,.03,.48,.07,.72,.12,1.75,.39,3.12,1.34,3.87,2.66,.73,1.3,.83,2.86,.29,4.51-1.8,5.4-3.75,11.07-5.8,16.86-.6,1.69-1.28,3.38-1.94,5.01-.43,1.06-.85,2.12-1.26,3.18-.67,1.75-1.97,3.04-3.66,3.62-.67,.23-1.37,.34-2.07,.34m2.98-27.14h1.31l-.4,1.48c-.05,.19-.09,.35-.15,.51l-1.05,2.91c-.96,2.67-1.93,5.34-2.92,8-.45,1.22-.93,2.43-1.4,3.65-.63,1.61-1.28,3.27-1.86,4.92-.43,1.2,.04,2.34,1.25,3.07,1.07,.64,2.47,.79,3.66,.38,.79-.27,1.86-.92,2.45-2.44,.41-1.08,.84-2.15,1.27-3.21,.65-1.61,1.32-3.28,1.91-4.93,2.05-5.78,4-11.44,5.79-16.82,.36-1.1,.32-2.1-.13-2.9-.47-.83-1.36-1.42-2.57-1.69-.35-.08-.72-.11-1.16-.14-.23-.02-.46-.04-.7-.06l-1.34-.15,1.27-2.96c.51-1.18,1.01-2.34,1.51-3.5,1.85-4.27,3.46-8.15,4.34-12.29,.28-1.29-.16-2.26-1.28-2.88l-1.21-.7,.38-.83c1.95-4.23,1.61-7.22-1.11-9.7-2.29-2.09-5.78-2.46-8.47-.9-2.74,1.59-4.18,4.81-3.5,7.83,.37,1.65,1.15,2.96,2.38,4.01,1.89,1.6,4.11,2.09,6.78,1.49l1.56-.35-.37,1.56c-.91,3.83-2.3,7.28-3.66,10.44l-.73,1.7-1.61-2.42c-.59-.88-1.14-1.72-1.68-2.56-.26-.41-.24-.88-.2-1.19,.21-1.64-.17-3.15-1.16-4.64-1.86-2.8-4.9-3.64-7.75-2.12-1.68,.89-3.38,2.05-5.19,3.54-4.23,3.47-7.61,7.98-10.04,13.39-.56,1.25-.83,2.47-.82,3.73,.03,3.36,2.67,5.52,5.26,5.92,1.74,.27,3.52,.36,5.19,.42,3.75,.13,7.51,.23,11.26,.33l4.09,.11c.15,0,.31,0,.49,0h.32Zm.34-20.43c.37,.57,.74,1.14,1.13,1.72,.9-2.18,1.77-4.49,2.46-6.95-1.89,.17-3.63-.16-5.2-.98,.05,.07,.1,.14,.14,.21,1.24,1.87,1.74,3.89,1.47,5.99,0,0,0,.01,0,.02m.05,12.95h-13.87l1.04-1.56c1.91-2.85,4-5,6.56-6.75l.87-.59,5.39,8.89Zm-10.05-2h6.49l-2.45-4.03c-1.5,1.13-2.82,2.45-4.05,4.03"/>
    <path class="cls-1" d="M38.71,71.54c-1.15,0-2.29-.3-3.28-.9-2.02-1.22-2.85-3.36-2.1-5.45,.6-1.67,1.25-3.35,1.89-4.98,.47-1.2,.94-2.41,1.39-3.62,.99-2.66,1.95-5.32,2.91-7.98l.81-2.23-3.58-.1c-3.76-.1-7.52-.2-11.27-.33-1.73-.06-3.58-.16-5.42-.44-3.43-.53-6.91-3.41-6.96-7.88-.02-1.53,.32-3.07,.99-4.57,2.55-5.7,6.12-10.45,10.6-14.12,1.92-1.57,3.73-2.8,5.52-3.76,2.33-1.24,4.81-1.28,6.94-.27-.72-1-1.22-2.15-1.51-3.44-.87-3.86,.96-7.97,4.45-10,3.44-2,7.89-1.53,10.82,1.15,3.19,2.9,3.83,6.57,1.94,11.18,1.63,1.08,2.32,2.81,1.89,4.81-.92,4.33-2.57,8.3-4.47,12.67-.5,1.15-1,2.31-1.51,3.49l-.19,.45c.24,.03,.48,.07,.72,.12,1.75,.39,3.12,1.34,3.87,2.66,.73,1.3,.83,2.86,.29,4.51-1.8,5.4-3.75,11.07-5.8,16.86-.6,1.69-1.28,3.38-1.94,5.01-.43,1.06-.85,2.12-1.26,3.18-.67,1.75-1.97,3.04-3.66,3.62-.67,.23-1.37,.34-2.07,.34Zm2.98-27.14h1.31l-.4,1.48c-.05,.19-.09,.35-.15,.51l-1.05,2.91c-.96,2.67-1.93,5.34-2.92,8-.45,1.22-.93,2.43-1.4,3.65-.63,1.61-1.28,3.27-1.86,4.92-.43,1.2,.04,2.34,1.25,3.07,1.07,.64,2.47,.79,3.66,.38,.79-.27,1.86-.92,2.45-2.44,.41-1.08,.84-2.15,1.27-3.21,.65-1.61,1.32-3.28,1.91-4.93,2.05-5.78,4-11.44,5.79-16.82,.36-1.1,.32-2.1-.13-2.9-.47-.83-1.36-1.42-2.57-1.69-.35-.08-.72-.11-1.16-.14-.23-.02-.46-.04-.7-.06l-1.34-.15,1.27-2.96c.51-1.18,1.01-2.34,1.51-3.5,1.85-4.27,3.46-8.15,4.34-12.29,.28-1.29-.16-2.26-1.28-2.88l-1.21-.7,.38-.83c1.95-4.23,1.61-7.22-1.11-9.7-2.29-2.09-5.78-2.46-8.47-.9-2.74,1.59-4.18,4.81-3.5,7.83,.37,1.65,1.15,2.96,2.38,4.01,1.89,1.6,4.11,2.09,6.78,1.49l1.56-.35-.37,1.56c-.91,3.83-2.3,7.28-3.66,10.44l-.73,1.7-1.61-2.42c-.59-.88-1.14-1.72-1.68-2.56-.26-.41-.24-.88-.2-1.19,.21-1.64-.17-3.15-1.16-4.64-1.86-2.8-4.9-3.64-7.75-2.12-1.68,.89-3.38,2.05-5.19,3.54-4.23,3.47-7.61,7.98-10.04,13.39-.56,1.25-.83,2.47-.82,3.73,.03,3.36,2.67,5.52,5.26,5.92,1.74,.27,3.52,.36,5.19,.42,3.75,.13,7.51,.23,11.26,.33l4.09,.11c.15,0,.31,0,.49,0h.32Zm.34-20.43c.37,.57,.74,1.14,1.13,1.72,.9-2.18,1.77-4.49,2.46-6.95-1.89,.17-3.63-.16-5.2-.98,.05,.07,.1,.14,.14,.21,1.24,1.87,1.74,3.89,1.47,5.99,0,0,0,.01,0,.02Zm.05,12.95h-13.87l1.04-1.56c1.91-2.85,4-5,6.56-6.75l.87-.59,5.39,8.89Zm-10.05-2h6.49l-2.45-4.03c-1.5,1.13-2.82,2.45-4.05,4.03Z"/>
  </g>
</svg>