<?xml version="1.0" encoding="UTF-8"?>
<svg id="Layer_2" data-name="Layer 2" xmlns="http://www.w3.org/2000/svg" viewBox="0 0 62.13 69.68">
  <defs>
    <style>
      .cls-1 {
        fill: #bb9d5a;
      }
    </style>
  </defs>
  <g id="Layer_1-2" data-name="Layer 1">
    <path class="cls-1" d="M24.4,0c.5,.36,.67,.85,.66,1.46-.03,1.86,0,3.72-.01,5.58,0,1.49-.58,2.28-1.99,2.71-4.22,1.29-8.44,2.6-12.67,3.85-1.53,.45-2.41,1.32-2.78,2.89-1.81,7.53-3.67,15.05-5.51,22.57-.05,.22-.09,.45-.19,.65-.23,.46-.62,.67-1.12,.55-.5-.11-.77-.46-.78-.98,0-.2,.04-.41,.09-.6,1.88-7.67,3.76-15.35,5.64-23.02,.5-2.03,1.78-3.3,3.76-3.91,4.24-1.29,8.48-2.6,12.73-3.86,.61-.18,.82-.46,.8-1.1-.04-1.81,0-3.63-.02-5.44-.01-.61,.18-1.06,.72-1.34h.68Z"/>
    <path class="cls-1" d="M38.42,7.83c.54,.23,.73,.59,.72,1.08-.03,1.5,0,3-.02,4.5,0,.42,.16,.61,.67,.73,4.25,1.03,8.48,2.1,12.73,3.12,2.19,.53,3.46,1.67,3.99,3.45,1.81,6.07,3.66,12.12,5.49,18.18,.04,.14,.09,.28,.11,.43,.07,.49-.23,.86-.77,.95-.53,.09-1.03-.14-1.19-.61-.33-.97-.61-1.94-.91-2.92-1.6-5.28-3.2-10.56-4.8-15.84-.31-1.03-1.06-1.7-2.33-2.01-4.29-1.05-8.57-2.11-12.86-3.17-1.66-.41-2.19-.97-2.19-2.39,0-1.44,.02-2.89-.01-4.33,0-.5,.15-.89,.66-1.18h.68Z"/>
    <path class="cls-1" d="M33.23,24.67h-2.01c0,.66,0,1.29,0,1.92-.01,.74-.41,1.18-1.02,1.18-.59,0-.99-.44-1.01-1.13-.02-.66-.03-1.32,0-1.97,.05-1.2,.9-2.02,2.1-2.06,.64-.02,1.27-.02,1.91,0,1.26,.03,2.1,.86,2.11,2.1,.01,4.29,.01,8.57,0,12.86,0,.49-.15,.97-.24,1.53,.7,0,1.39,0,2.09,0,2.4,0,4.26,1.19,5.07,3.2,.83,2.07,.3,4.14-1.49,5.85-.05,.04-.08,.1-.14,.19,1.12,.94,1.82,2.11,1.98,3.58,.3,2.7-1.86,5.34-4.57,5.51-1.04,.06-2.09,.05-3.13,.03-.57-.01-.76,.21-.74,.76,.03,1.16,.02,2.31,0,3.47-.02,1.31-.65,2.3-1.74,2.65-1.17,.37-2.93,.36-3.69-.76-.36-.53-.63-1.23-.65-1.87-.08-2.17-.05-4.35-.02-6.53,0-.58,.16-1.15,.26-1.8-1.2,0-2.42,.02-3.64,0-2.7-.06-4.74-1.89-5.05-4.57-.18-1.58,.34-2.95,1.43-4.09,.15-.16,.32-.31,.53-.5-.98-.85-1.69-1.85-1.91-3.13-.55-3.23,1.79-5.99,5.17-6.06,1.22-.03,2.45-.02,3.67,0,.53,.01,.73-.17,.71-.71-.03-.86-.02-1.72,0-2.58,.01-.77,.44-1.25,1.06-1.23,.6,.02,.97,.48,.97,1.23,0,.98,.02,1.95,0,2.93-.03,1.39-.97,2.36-2.35,2.38-1.36,.03-2.72-.02-4.08,.02-2.13,.05-3.56,1.81-3.11,3.78,.32,1.4,1.53,2.33,3.11,2.33,3.65,.01,7.3,0,10.96,0,.18,0,.36,0,.54,0,.69,.05,1.11,.45,1.1,1.05-.01,.61-.42,.98-1.14,.99-2.88,.01-5.76,0-8.64,0-1,0-2-.03-2.99,.01-1.64,.07-2.82,1.19-3.01,2.79-.16,1.4,.78,2.8,2.2,3.2,.39,.11,.81,.12,1.21,.12,3.58,0,7.17,0,10.75,0,.23,0,.46-.01,.68,.02,.6,.08,.96,.5,.94,1.06-.02,.56-.4,.95-1.02,.96-1.36,.02-2.72,0-4.08,.01-.25,0-.5,0-.75,.03-.85,.13-1.43,.69-1.45,1.54-.04,2.27-.03,4.54-.02,6.8,0,.72,.54,.71,1.06,.72,.55,0,.96-.11,.96-.76,0-1.18,0-2.36,0-3.54,.01-1.84,.93-2.75,2.77-2.76,.91,0,1.82,.02,2.72-.01,1.62-.05,2.85-1.27,2.97-2.89,.1-1.47-1.02-2.87-2.55-3.14-.35-.06-.72-.08-1.08-.08-3.51,0-7.03,0-10.55,0-.23,0-.46,0-.68-.02-.52-.07-.81-.41-.86-.91-.04-.5,.21-.89,.71-1.03,.26-.07,.54-.08,.81-.08,3.7,0,7.39,.01,11.09-.01,2.07-.01,3.47-1.79,3.02-3.76-.32-1.42-1.56-2.35-3.17-2.35-3.63-.01-7.26,0-10.89,0-.23,0-.46,0-.68-.02-.55-.07-.86-.42-.89-.95-.03-.51,.24-.87,.74-1,.24-.06,.49-.06,.74-.07,1.75,0,3.49,0,5.24-.01,1.07-.01,1.7-.64,1.7-1.7,.01-4.13,0-8.26,0-12.38,0-.09-.02-.18-.03-.33"/>
    <path class="cls-1" d="M49.42,39.64c-.31,5.85-.67,11.66-.21,17.49,.28,3.52,.41,7.06,.6,10.59,.06,1.18-.66,1.95-1.84,1.95-8.12,0-16.23,0-24.35,0-.78,0-1.26-.41-1.24-1.04,.01-.62,.48-1,1.28-1,7.73,0,15.46,0,23.19,0h.78c0-.85,.04-1.66,0-2.46-.24-4.57-.6-9.14-.72-13.72-.08-3.31,.16-6.62,.27-9.93,.16-5.01,.34-10.02,.51-15.02,.01-.27,0-.55,.05-.81,.11-.56,.47-.88,1.05-.87,.54,0,.94,.44,.95,1.04,0,.66,.04,1.32-.05,1.97-.43,3.22,.13,6.3,1.15,9.34,.49,1.46,.85,2.96,1.27,4.44,.02,.09,.05,.17,.07,.26,.15,.68-.11,1.19-.67,1.36-.55,.16-1.08-.15-1.28-.81-.28-.92-.54-1.85-.8-2.78"/>
    <path class="cls-1" d="M12.76,39.51c-.32,1.09-.57,2.07-.88,3.03-.18,.57-.72,.84-1.23,.7-.53-.15-.81-.63-.71-1.22,.03-.16,.07-.31,.11-.46,.57-2.05,1.05-4.13,1.74-6.14,.75-2.18,.87-4.37,.7-6.63-.07-.93-.07-1.86-.09-2.79-.01-.71,.35-1.15,.94-1.19,.59-.04,1.05,.42,1.09,1.14,.06,1.2,.09,2.4,.13,3.6,.23,7,.54,14.01,.66,21.01,.05,3.05-.27,6.11-.42,9.17-.13,2.6-.28,5.2-.42,7.9,1.23,0,2.43,0,3.62,0,.25,0,.5-.02,.75,.02,.53,.09,.86,.42,.88,.97,.02,.58-.32,1.01-.88,1.02-1.65,.05-3.31,.06-4.97,0-.93-.04-1.51-.87-1.46-1.89,.13-2.65,.22-5.3,.44-7.95,.55-6.66,.39-13.32,.08-19.98,0-.06-.03-.11-.09-.31"/>
    <path class="cls-1" d="M22.98,14.27c1.06,0,2.13,0,3.19,0,1.1,0,1.97,.44,2.63,1.31,.3,.4,.61,.79,.87,1.21,.31,.49,.21,.96-.23,1.33-.43,.36-.99,.29-1.4-.14-.05-.05-.1-.1-.12-.16-.64-1.35-1.73-1.63-3.13-1.54-1.62,.11-3.26,.02-4.89,.02-.18,0-.36,0-.54-.02-.58-.09-.96-.52-.94-1.06,.02-.54,.43-.95,1.03-.96,1.18-.02,2.36,0,3.53,0h0Z"/>
    <path class="cls-1" d="M39.17,14.27c1.13,0,2.26,0,3.4,0,.7,0,1.14,.39,1.15,.97,.02,.61-.43,1.05-1.16,1.06-2.08,.02-4.17,.03-6.25,0-.71-.01-1.22,.22-1.59,.82-.2,.33-.43,.65-.69,.92-.38,.38-.85,.44-1.29,.12-.43-.31-.62-.79-.32-1.25,.44-.68,.89-1.4,1.51-1.9,.51-.41,1.25-.64,1.91-.71,1.1-.11,2.22-.03,3.33-.03h0Z"/>
    <path class="cls-1" d="M5.37,57.31c-.22-1.52,.07-1.96,1.5-2.39,.91-.27,1.82-.55,2.73-.81,.67-.19,1.18,.06,1.36,.63,.18,.57-.1,1.09-.76,1.3-.88,.28-1.76,.54-2.64,.8,.17,1.5-.09,1.9-1.5,2.37-.96,.32-1.92,.66-2.89,.98-.78,.25-1.31,.04-1.51-.56-.2-.62,.1-1.11,.85-1.37,.94-.32,1.88-.63,2.85-.96"/>
    <path class="cls-1" d="M54.6,56.85c-.88-.26-1.72-.51-2.56-.77-.73-.23-1.04-.7-.87-1.29,.18-.62,.71-.86,1.47-.64,.93,.27,1.86,.55,2.79,.83,1.26,.38,1.58,.92,1.32,2.31,.61,.22,1.24,.44,1.87,.66,.41,.14,.82,.26,1.22,.42,.57,.22,.8,.65,.64,1.25-.14,.54-.61,.8-1.23,.67-.31-.06-.61-.18-.9-.28-.79-.27-1.58-.54-2.37-.81-1.31-.45-1.62-.95-1.38-2.34"/>
    <path class="cls-1" d="M57.68,48.13c.91-.48,1.78-.96,2.66-1.42,.7-.36,1.3-.24,1.59,.32,.29,.55,.06,1.11-.64,1.49-.89,.49-1.8,.96-2.7,1.43-1.32,.7-1.81,.61-2.74-.56-.76,.44-1.51,.89-2.28,1.33-.68,.38-1.29,.26-1.59-.28-.3-.55-.08-1.09,.61-1.5,.78-.46,1.56-.91,2.34-1.37,1.29-.75,1.82-.65,2.75,.56"/>
    <path class="cls-1" d="M4.45,48.12c.99-1.22,1.45-1.3,2.79-.53,.8,.47,1.61,.92,2.41,1.4,.63,.38,.8,.96,.48,1.48-.3,.5-.88,.62-1.49,.28-.79-.44-1.56-.9-2.34-1.35-1.06,1.19-1.44,1.26-2.87,.5-.88-.47-1.76-.93-2.63-1.41-.66-.36-.88-.9-.61-1.44,.28-.57,.89-.71,1.58-.35,.9,.47,1.79,.95,2.68,1.42"/>
  </g>
</svg>