<?xml version="1.0" encoding="UTF-8"?>
<svg id="Layer_2" data-name="Layer 2" xmlns="http://www.w3.org/2000/svg" viewBox="0 0 124.41 124.46">
  <defs>
    <style>
      .cls-1 {
        fill: #4f715e;
      }
    </style>
  </defs>
  <g id="Layer_1-2" data-name="Layer 1">
    <path class="cls-1" d="M102.97,77.59c3.69-5.59,5.24-13.97,4.59-24.73-2.28-.8-4.61-1.61-6.94-2.43-.62-.22-1.25-.41-1.84-.69-1.93-.88-3.01-2.39-2.99-4.53,.02-2.19,.12-4.38,.29-6.55,.08-.98-.22-1.46-1.14-1.85-5.99-2.53-12.25-4.11-18.63-5.24-15.56-2.75-30.65-.85-45.34,4.68-3.38,1.27-2.59,.41-2.53,3.96,.03,1.57,.17,3.15,.2,4.72,.03,2.4-1.11,4.15-3.35,4.95-4.36,1.56-8.73,3.09-13.12,4.56-2.52,.84-4.88-.15-6.09-2.51-1.59-3.07-3.16-6.14-4.62-9.26-3.31-7.08-.79-14.85,5.94-18.83,11.88-7.02,24.69-11.21,38.36-12.85,11.57-1.39,23.12-1.37,34.67,.24,.43,.06,.86,.06,1.32,.09,.39-.97,.7-1.92,1.13-2.82,3-6.28,9.97-9.68,16.7-8.16,6.74,1.52,11.57,7.41,11.72,14.31,.04,1.62,.07,3.24-.01,4.85-.05,.94,.32,1.39,1.12,1.78,1.6,.8,3.17,1.68,4.71,2.59,6.74,4,9.16,11.77,5.83,18.86-1.39,2.97-2.9,5.88-4.37,8.81-1.39,2.76-3.53,3.68-6.51,2.85-.21-.06-.42-.08-.75-.13,0,1.89-.01,3.72,0,5.55,.07,7.59-1.87,14.61-5.93,21.02-.46,.73-.33,1.25-.01,1.92,2.9,6.07,5.85,12.12,8.63,18.24,.68,1.5,1.05,3.26,1.11,4.91,.15,4.28,.06,8.57,.05,12.86-.01,3.69-2,5.67-5.68,5.67-31.5,0-63,0-94.49,0-3.7,0-5.69-1.97-5.7-5.65-.01-4.33-.1-8.67,.05-12.99,.06-1.61,.42-3.33,1.1-4.78,5.83-12.46,11.79-24.87,17.66-37.32,1.18-2.52,2.96-3.77,5.76-3.64,1.82,.08,3.65,.02,5.63,.02,0-1.41-.02-2.66,0-3.92,.03-1.75,.64-2.34,2.41-2.34,3.85,0,7.7,0,11.55,0,1.69,0,2.28,.59,2.31,2.28,.02,1.26,0,2.52,0,3.88h12.95c0-1.32-.02-2.62,0-3.92,.03-1.63,.62-2.23,2.21-2.24,3.94-.01,7.87-.01,11.81,0,1.58,0,2.19,.63,2.24,2.25,.03,1.18,.02,2.36,.03,3.54,0,.08,.05,.17,.14,.47,1.56,0,3.22,.11,4.85-.02,3.29-.27,5.33,1.13,6.64,4.15,1.78,4.13,3.82,8.15,5.75,12.21,.18,.38,.39,.75,.61,1.17m-40.74,43.19c15.66,0,31.32,0,46.98,0,1.97,0,2.26-.29,2.26-2.29,0-4.2,.05-8.4-.03-12.6-.02-1.1-.26-2.28-.73-3.27-5.88-12.49-11.84-24.94-17.73-37.42-.51-1.07-1.15-1.46-2.32-1.46-18.98,.03-37.97,.03-56.95,0-1.11,0-1.75,.36-2.23,1.38-5.92,12.52-11.88,25.02-17.78,37.54-.47,.99-.69,2.17-.72,3.27-.08,4.15-.03,8.31-.03,12.47,0,2.13,.25,2.37,2.44,2.37H62.23m.05-107.35c-5.4,.42-10.82,.67-16.2,1.28-13.15,1.49-25.46,5.58-36.87,12.34-5.12,3.03-6.95,8.82-4.4,14.17,1.39,2.92,2.91,5.77,4.32,8.68,.53,1.09,1.24,1.34,2.33,.96,4.04-1.42,8.07-2.84,12.12-4.21,1.03-.35,1.47-.92,1.4-2.02-.15-2.44-.15-4.9-.35-7.34-.14-1.6,.43-2.49,1.89-3.14,9.81-4.42,20.17-6.48,30.81-7.34,6.94-.56,13.8,.14,20.62,1.36,6.98,1.25,13.8,3.07,20.25,6.13,1.2,.57,1.68,1.35,1.6,2.67-.17,2.57-.22,5.16-.35,7.73-.04,.89,.2,1.51,1.11,1.83,4.21,1.45,8.41,2.93,12.61,4.39,.92,.32,1.6,.05,2.04-.86,1.48-3.02,3.06-5.99,4.47-9.04,2.41-5.22,.65-11.03-4.35-13.85-3.8-2.14-7.69-4.16-11.69-5.88-13.19-5.65-27.11-7.56-41.37-7.86m23.24-1.38c7.61,1.42,14.92,3.72,21.99,6.84,1-7.85-2.54-13.73-8.91-14.96-5.86-1.13-11.6,2.34-13.08,8.12M51.98,57.59h-8.75v2.42h8.75v-2.42Zm20.45,2.39h8.76v-2.42h-8.76v2.42Z"/>
    <path class="cls-1" d="M62.15,115.07c-12.75-.08-22.83-10.28-22.77-23.07,.06-12.47,10.46-22.67,23.03-22.59,12.52,.08,22.75,10.47,22.64,22.98-.11,12.62-10.34,22.76-22.9,22.68m-.05-3.67c10.46,.1,19.17-8.41,19.27-18.83,.1-10.7-8.4-19.4-19.05-19.48-10.44-.08-19.16,8.46-19.27,18.87-.11,10.73,8.32,19.34,19.05,19.44"/>
    <path class="cls-1" d="M25.6,90.34c-1.57-.04-2.46-1.21-1.97-2.4,.83-2.01,1.79-3.97,2.79-5.9,.45-.86,1.31-1.12,2.25-.69,.94,.43,1.34,1.27,.96,2.16-.86,2.04-1.82,4.05-2.86,6.01-.24,.45-.93,.66-1.18,.82"/>
    <path class="cls-1" d="M59.7,108.77c-7.74,.02-14.02-7.07-14.03-15.85-.01-8.8,6.3-15.94,14.1-15.94,7.62,0,13.97,7.19,13.98,15.83,0,8.87-6.22,15.95-14.05,15.96m-.09-3.53c6.11,.03,11.01-5.47,11.02-12.36,.02-6.78-4.93-12.36-10.94-12.36-5.95,0-10.87,5.53-10.9,12.27-.04,6.85,4.81,12.43,10.82,12.46"/>
  </g>
</svg>