<?xml version="1.0" encoding="UTF-8"?>
<svg id="Layer_2" data-name="Layer 2" xmlns="http://www.w3.org/2000/svg" viewBox="0 0 110.86 110.94">
  <defs>
    <style>
      .cls-1 {
        fill: none;
        stroke: #bb9d5a;
        stroke-miterlimit: 10;
        stroke-width: 1.5px;
      }

      .cls-2 {
        fill: #4f715e;
      }
    </style>
  </defs>
  <g id="Layer_1-2" data-name="Layer 1">
    <path class="cls-2" d="M77.98,74.2c-11.33,13.95-32.13,13.72-43.6,1.68-10.75-11.28-10.83-28.83-.11-40.23,11.1-11.8,30.95-12.56,42.97,.71,0-2.15-.03-4.14,0-6.12,.06-2.77,2.81-4.5,5.21-3.28,1.42,.72,2.06,1.93,2.06,3.52,0,5.87,0,11.75,0,17.62,0,7.24-.04,14.47,.02,21.71,.03,3.15,1.57,5.52,4.4,6.9,2.79,1.36,5.52,1.05,8.05-.74,1.31-.92,2.17-2.2,2.74-3.68,10.25-27.16-6.45-57.26-34.96-62.99C39.3,4.16,14.44,20.51,9.07,45.91c-5.41,25.57,11.09,50.82,36.75,56.08,11.58,2.38,22.59,.58,32.93-5.18,.36-.2,.72-.42,1.08-.62,1.94-1.08,4.11-.55,5.13,1.25,1.01,1.78,.43,3.87-1.43,5-4.96,3-10.26,5.2-15.93,6.43-27.23,5.92-53.75-8.57-63.5-34.67C-3.77,53.12,2.55,28.64,19.69,14.05,31.2,4.25,44.61-.44,59.62,1.01c22.22,2.15,37.94,13.81,46.5,34.46,5.3,12.79,5.16,25.91,.55,38.96-2.21,6.25-7.7,10.27-13.96,10.34-6.6,.07-12.08-3.71-14.52-10.03-.05-.14-.11-.27-.21-.54m-.74-18.53c-.04-12.03-9.81-21.84-21.72-21.82-12.27,.02-21.98,9.78-21.94,22.05,.04,11.89,9.92,21.62,21.94,21.6,11.93-.02,21.76-9.9,21.72-21.83"/>
    <path class="cls-1" d="M77.98,74.2c-11.33,13.95-32.13,13.72-43.6,1.68-10.75-11.28-10.83-28.83-.11-40.23,11.1-11.8,30.95-12.56,42.97,.71,0-2.15-.03-4.14,0-6.12,.06-2.77,2.81-4.5,5.21-3.28,1.42,.72,2.06,1.93,2.06,3.52,0,5.87,0,11.75,0,17.62,0,7.24-.04,14.47,.02,21.71,.03,3.15,1.57,5.52,4.4,6.9,2.79,1.36,5.52,1.05,8.05-.74,1.31-.92,2.17-2.2,2.74-3.68,10.25-27.16-6.45-57.26-34.96-62.99C39.3,4.16,14.44,20.51,9.07,45.91c-5.41,25.57,11.09,50.82,36.75,56.08,11.58,2.38,22.59,.58,32.93-5.18,.36-.2,.72-.42,1.08-.62,1.94-1.08,4.11-.55,5.13,1.25,1.01,1.78,.43,3.87-1.43,5-4.96,3-10.26,5.2-15.93,6.43-27.23,5.92-53.75-8.57-63.5-34.67C-3.77,53.12,2.55,28.64,19.69,14.05,31.2,4.25,44.61-.44,59.62,1.01c22.22,2.15,37.94,13.81,46.5,34.46,5.3,12.79,5.16,25.91,.55,38.96-2.21,6.25-7.7,10.27-13.96,10.34-6.6,.07-12.08-3.71-14.52-10.03-.05-.14-.11-.27-.21-.54Zm-.74-18.53c-.04-12.03-9.81-21.84-21.72-21.82-12.27,.02-21.98,9.78-21.94,22.05,.04,11.89,9.92,21.62,21.94,21.6,11.93-.02,21.76-9.9,21.72-21.83Z"/>
  </g>
</svg>