<?xml version="1.0" encoding="UTF-8"?>
<svg id="Layer_2" data-name="Layer 2" xmlns="http://www.w3.org/2000/svg" viewBox="0 0 132.92 128.86">
  <defs>
    <style>
      .cls-1 {
        fill: #4f715e;
      }
    </style>
  </defs>
  <g id="Layer_1-2" data-name="Layer 1">
    <path class="cls-1" d="M84.92,84.51h2.63c8.91,0,17.81,.02,26.72-.02,1.53,0,2.36,.55,2.91,1.95,5.09,13.03,10.23,26.03,15.35,39.04,.93,2.37,.19,3.39-2.46,3.39-42.44,0-84.87,0-127.31,0-2.53,0-3.3-1.07-2.41-3.33,5.12-13.01,10.27-26.02,15.35-39.04,.57-1.46,1.42-2.02,3.01-2.01,9.19,.05,18.37,.02,27.56,.02h1.75c-.53-.87-.94-1.55-1.36-2.24-5.27-8.64-9.89-17.57-13.05-27.16-2.11-6.39-3.47-12.92-3.51-19.65C30.02,17.59,43.68,2.5,61.95,.28c20.34-2.48,38.9,12,40.66,31.72,.71,7.92-.86,15.54-3.3,23.03-3.21,9.86-8.02,19.01-13.46,27.87-.28,.46-.54,.92-.93,1.6m-18.34,19.12c4.37-6.09,8.63-11.74,12.57-17.59,6.71-9.96,12.46-20.41,16.26-31.78,2.41-7.21,4-14.55,3.27-22.21-1.66-17.5-18.5-30.4-36.53-27.98-16.38,2.2-28.36,15.71-28.12,31.73,.12,8.04,2.21,15.69,5.16,23.14,4.94,12.46,11.93,23.83,19.82,34.71,2.35,3.24,4.83,6.38,7.56,9.97M4.76,124.99c.43,.04,.61,.08,.8,.08,7.22,0,14.45,.01,21.67-.01,.63,0,1.28-.19,1.89-.4,6.93-2.37,13.86-4.75,20.78-7.14,.36-.13,.71-.3,1.06-.45-.08-.2-.1-.29-.15-.36-7.35-9.26-14.71-18.53-22.09-27.76-.28-.35-.91-.61-1.38-.62-2.19-.07-4.38,.03-6.57-.05-1.14-.05-1.69,.28-2.11,1.36-3.31,8.56-6.71,17.1-10.07,25.64-1.26,3.19-2.5,6.38-3.81,9.73m28.5-36.71c.45,.61,.71,1.01,1.01,1.39,6.62,8.33,13.26,16.65,19.84,25.01,.71,.91,1.29,.97,2.32,.62,16.21-5.61,32.43-11.19,48.65-16.78,3.67-1.27,7.35-2.54,11.12-3.85-.72-1.83-1.45-3.53-2.05-5.27-.3-.87-.74-1.14-1.7-1.14-9.6,.04-19.21,.04-28.81,0-.99,0-1.46,.38-2,1.1-4.35,5.86-8.73,11.69-13.15,17.5-1.42,1.86-2.68,1.86-4.09,0-4.42-5.81-8.8-11.64-13.14-17.51-.59-.79-1.14-1.11-2.14-1.09-3.87,.06-7.74,.02-11.61,.02h-4.25Zm58.21,18.94c-17.05,5.87-34.02,11.71-50.98,17.55,.03,.07,.05,.13,.08,.2H105.58c-4.76-5.99-9.38-11.8-14.11-17.75m4.07-1.25c.06,.13,.1,.26,.19,.37,4.77,6.01,9.53,12.03,14.35,18,.33,.41,1.08,.69,1.63,.69,5.08,.05,10.16,.03,15.24,.03,.34,0,.69-.06,1.2-.1-3.55-9.01-7.04-17.86-10.54-26.74-7.37,2.54-14.56,5.02-21.75,7.5-.12,.04-.21,.17-.33,.26"/>
    <path class="cls-1" d="M66.39,48.64c-9.21-.05-16.51-7.46-16.45-16.72,.06-9.08,7.55-16.4,16.72-16.32,9.09,.07,16.37,7.53,16.32,16.73-.05,9-7.53,16.36-16.59,16.31m.09-3.92c6.92,.01,12.56-5.59,12.58-12.5,.02-7.01-5.58-12.68-12.55-12.7-6.99-.02-12.66,5.62-12.66,12.59,0,7,5.61,12.61,12.62,12.62"/>
  </g>
</svg>